<?xml version="1.0" encoding="utf-8"?>
<!-- Generator: Adobe Illustrator 23.0.3, SVG Export Plug-In . SVG Version: 6.00 Build 0)  -->
<svg version="1.1" id="Layer_1" xmlns="http://www.w3.org/2000/svg" xmlns:xlink="http://www.w3.org/1999/xlink" x="0px" y="0px"
	 viewBox="0 0 2050 250" style="enable-background:new 0 0 2050 250;" xml:space="preserve" preserveAspectRatio="xMinYMax slice">
<style type="text/css">
	.st0{fill:#FFFFFF;}
</style>
<g>
	<g>
		<rect y="228.16" width="2050" height="7.51"/>
		<rect y="14.34" width="2050" height="7.51"/>
		<rect y="154.78" width="2050" height="7.51"/>
		<rect y="136.98" width="2050" height="7.51"/>
		<rect y="64.21" width="2050" height="51.39"/>
		<g>
			<path d="M1627.43,185.56h-8.47v-7.83h26.26v7.83h-8.47v29.26h-9.33L1627.43,185.56L1627.43,185.56z"/>
			<path d="M1661.51,215.53c-2.04,0-3.99-0.36-5.85-1.09s-3.49-1.86-4.89-3.42c-1.42-1.55-2.55-3.54-3.39-5.97s-1.26-5.36-1.26-8.79
				s0.42-6.36,1.26-8.79s1.97-4.42,3.39-5.97c1.41-1.55,3.04-2.68,4.89-3.4c1.86-0.72,3.81-1.08,5.85-1.08
				c2.02,0,3.97,0.36,5.82,1.08c1.86,0.72,3.49,1.85,4.89,3.4c1.41,1.55,2.52,3.54,3.37,5.97c0.84,2.43,1.26,5.36,1.26,8.79
				s-0.42,6.36-1.26,8.79s-1.96,4.42-3.37,5.97c-1.41,1.55-3.04,2.69-4.89,3.42C1665.47,215.17,1663.53,215.53,1661.51,215.53z
				 M1661.51,207.83c2.02,0,3.53-1.01,4.5-3.01c0.98-2,1.46-4.85,1.46-8.56c0-3.73-0.49-6.55-1.45-8.46
				c-0.97-1.9-2.47-2.86-4.51-2.86s-3.55,0.96-4.53,2.86c-0.99,1.9-1.48,4.72-1.48,8.46c0,3.7,0.5,6.55,1.48,8.56
				C1657.96,206.82,1659.48,207.83,1661.51,207.83z"/>
			<path d="M1680.87,177.73h11.92l5.06,24.17h0.05l4.6-24.17h12.14v37.09h-8.83v-23.9h-0.1c-0.03,0.66-0.11,1.4-0.23,2.25
				c-0.12,0.85-0.27,1.69-0.43,2.54c-0.16,0.85-0.33,1.64-0.49,2.38c-0.16,0.75-0.29,1.35-0.39,1.79l-3.4,14.93h-6.83l-3.31-14.88
				c-0.05-0.2-0.11-0.49-0.2-0.9c-0.08-0.4-0.17-0.87-0.27-1.4c-0.11-0.54-0.23-1.12-0.36-1.73c-0.12-0.62-0.23-1.24-0.33-1.86
				c-0.11-0.62-0.21-1.23-0.29-1.81c-0.08-0.59-0.14-1.11-0.17-1.56h-0.1v24.15h-8.05v-37.08H1680.87z"/>
			<path d="M1720.11,177.73h11.62c1.72,0,3.42,0.19,5.05,0.56c1.64,0.38,3.1,1.04,4.39,1.98c1.28,0.97,2.29,2.26,3.07,3.91
				c0.78,1.64,1.17,3.73,1.17,6.25c0,1.74-0.19,3.28-0.58,4.6c-0.38,1.33-0.9,2.45-1.55,3.4c-0.67,0.95-1.44,1.73-2.33,2.35
				c-0.89,0.62-1.84,1.11-2.85,1.46c-1.02,0.38-2.06,0.64-3.17,0.79c-1.1,0.15-2.18,0.22-3.24,0.22h-2.42v11.57h-9.15
				L1720.11,177.73L1720.11,177.73z M1731.93,195.98c0.88,0,1.61-0.11,2.2-0.34s1.06-0.57,1.42-1.03c0.34-0.44,0.59-1,0.75-1.66
				c0.15-0.67,0.23-1.44,0.23-2.33c0-0.87-0.08-1.62-0.23-2.27c-0.16-0.65-0.41-1.19-0.77-1.63c-0.36-0.43-0.84-0.75-1.43-0.96
				c-0.6-0.21-1.34-0.32-2.21-0.32h-2.62v10.54H1731.93z"/>
			<path d="M1752.17,214.82h-8.66l10.84-37.23h9.06l10.84,37.23h-9.38l-1.56-6.27h-9.52L1752.17,214.82z M1760.91,198.57
				c-0.23-0.92-0.45-1.75-0.65-2.53c-0.21-0.78-0.4-1.53-0.58-2.29c-0.2-0.74-0.38-1.47-0.54-2.22c-0.16-0.75-0.31-1.55-0.44-2.42
				h-0.1c-0.15,0.87-0.31,1.67-0.48,2.42c-0.17,0.75-0.36,1.49-0.55,2.22c-0.2,0.74-0.4,1.48-0.61,2.26s-0.44,1.62-0.69,2.56
				l-0.69,2.81h5.95L1760.91,198.57z"/>
			<path d="M1777.15,177.73h12.07c2.02,0,3.86,0.22,5.49,0.66c1.64,0.44,3.03,1.15,4.18,2.11c1.15,0.98,2.02,2.25,2.64,3.82
				c0.62,1.56,0.93,3.46,0.93,5.68c0,2.34-0.5,4.35-1.48,6.06c-0.99,1.7-2.37,2.97-4.15,3.8l6.78,14.98h-9.62l-5.73-12.57h-2.05
				v12.57h-9.06v-37.09H1777.15z M1788.97,195.17c0.79,0,1.45-0.09,2.03-0.27c0.57-0.18,1.06-0.48,1.44-0.89
				c0.38-0.39,0.66-0.91,0.85-1.54c0.19-0.64,0.28-1.41,0.28-2.33c0-0.89-0.09-1.62-0.28-2.23c-0.19-0.61-0.47-1.1-0.85-1.47
				c-0.39-0.36-0.88-0.62-1.44-0.78c-0.57-0.16-1.25-0.23-2.03-0.23h-2.76v9.73L1788.97,195.17L1788.97,195.17z"/>
			<path d="M1807.47,177.73h9.2v14.49c0.16-0.31,0.36-0.69,0.6-1.13c0.24-0.44,0.49-0.9,0.77-1.37c0.26-0.47,0.52-0.94,0.79-1.39
				c0.26-0.46,0.5-0.87,0.71-1.23l5.51-9.37h9.98l-9.77,14.71l10.71,22.39h-10.13l-6.66-14.44l-2.52,3.45v10.99h-9.2v-37.09H1807.47
				z"/>
			<path d="M1838.79,177.73h22.39v7.83h-13.06v6.46h9.3v7.26h-9.3v7.97h13.68v7.56h-23v-37.08H1838.79z"/>
			<path d="M1864.6,206.01h9.05v8.81h-9.05V206.01z"/>
			<path d="M1878.08,177.73h10.47c1.63,0,3.2,0.11,4.71,0.33c1.5,0.22,2.92,0.59,4.22,1.12c1.31,0.54,2.49,1.26,3.56,2.15
				s1.98,2.02,2.75,3.38c0.77,1.37,1.36,3,1.77,4.88s0.63,4.07,0.63,6.55c0,2.53-0.21,4.74-0.64,6.66
				c-0.43,1.91-1.02,3.56-1.78,4.94c-0.77,1.38-1.68,2.54-2.77,3.45c-1.08,0.92-2.27,1.64-3.58,2.18c-1.33,0.54-2.73,0.92-4.22,1.14
				c-1.49,0.22-3.05,0.33-4.66,0.33h-10.47v-37.09H1878.08z M1889.34,207.11c1.46,0,2.68-0.18,3.65-0.55
				c0.96-0.37,1.72-0.99,2.3-1.84c0.57-0.85,0.97-1.97,1.2-3.38c0.23-1.4,0.34-3.14,0.34-5.21c0-1.97-0.12-3.64-0.34-4.98
				c-0.23-1.35-0.63-2.43-1.2-3.27c-0.57-0.83-1.35-1.42-2.31-1.78c-0.97-0.36-2.2-0.54-3.69-0.54h-1.88v21.55L1889.34,207.11
				L1889.34,207.11z"/>
			<path d="M1910.16,177.73h22.39v7.83h-13.06v6.46h9.3v7.26h-9.3v7.97h13.68v7.56h-23L1910.16,177.73L1910.16,177.73z"/>
			<path d="M1949.8,215.53c-1.95,0-3.71-0.23-5.24-0.68c-1.53-0.45-2.89-1.08-4.07-1.87c-1.2-0.79-2.23-1.72-3.12-2.81
				c-0.89-1.1-1.66-2.28-2.31-3.58l7.46-3.82c0.39,0.69,0.84,1.36,1.34,2c0.5,0.66,1.06,1.23,1.67,1.71
				c0.61,0.51,1.26,0.91,1.97,1.22c0.71,0.3,1.47,0.45,2.29,0.45c1.33,0,2.3-0.29,2.95-0.87c0.65-0.58,0.97-1.36,0.97-2.34
				c0-0.62-0.16-1.17-0.49-1.62c-0.33-0.47-0.76-0.9-1.3-1.29c-0.56-0.38-1.2-0.72-1.93-1.04c-0.74-0.32-1.51-0.64-2.35-0.97
				s-1.68-0.68-2.56-1.04c-0.88-0.37-1.72-0.79-2.56-1.26c-0.83-0.46-1.61-0.99-2.36-1.57c-0.75-0.6-1.4-1.3-1.94-2.09
				c-0.56-0.79-1-1.68-1.33-2.69c-0.33-1.01-0.49-2.17-0.49-3.48c0-1.63,0.31-3.12,0.94-4.45c0.63-1.34,1.5-2.49,2.63-3.45
				c1.13-0.95,2.46-1.67,4.02-2.19c1.55-0.52,3.24-0.77,5.06-0.77c1.64,0,3.15,0.21,4.5,0.64c1.36,0.43,2.57,1.02,3.65,1.76
				c1.08,0.75,2.02,1.64,2.85,2.69s1.54,2.18,2.16,3.43l-7.16,3.97c-0.8-1.58-1.7-2.8-2.7-3.65c-1.01-0.85-2.17-1.28-3.51-1.28
				c-1.11,0-1.93,0.27-2.48,0.8c-0.55,0.54-0.82,1.21-0.82,2.03c0,0.58,0.14,1.09,0.43,1.52c0.29,0.45,0.68,0.85,1.17,1.21
				c0.49,0.38,1.07,0.73,1.72,1.06s1.38,0.66,2.14,0.99c0.85,0.36,1.72,0.73,2.64,1.11s1.81,0.8,2.69,1.28
				c0.87,0.49,1.69,1.04,2.48,1.64s1.48,1.31,2.09,2.1c0.59,0.8,1.06,1.7,1.41,2.73c0.35,1.02,0.53,2.18,0.53,3.49
				c0,1.43-0.27,2.81-0.81,4.13c-0.54,1.33-1.35,2.49-2.42,3.5c-1.1,1.03-2.45,1.84-4.09,2.45
				C1953.89,215.23,1951.99,215.53,1949.8,215.53z"/>
			<path d="M1967.3,177.73h9.33v37.09h-9.33V177.73z"/>
			<path d="M1994.6,215.43c-2.25,0-4.23-0.44-5.95-1.33c-1.71-0.88-3.15-2.15-4.3-3.82c-1.18-1.64-2.05-3.66-2.64-6.04
				c-0.59-2.38-0.88-5.07-0.88-8.07c0-3.07,0.33-5.79,0.98-8.17s1.61-4.38,2.89-6.02c1.26-1.61,2.82-2.84,4.69-3.69
				c1.87-0.84,4.04-1.26,6.49-1.26c1.82,0,3.46,0.24,4.9,0.71c1.44,0.48,2.7,1.24,3.78,2.27c1.08,1.06,1.97,2.43,2.7,4.12
				c0.73,1.68,1.29,3.75,1.67,6.18l-8.47,1.68c-0.25-1.37-0.52-2.51-0.83-3.43c-0.31-0.92-0.66-1.64-1.06-2.18
				c-0.41-0.54-0.86-0.92-1.36-1.14c-0.5-0.22-1.06-0.33-1.67-0.33c-0.41,0-0.83,0.05-1.26,0.15c-0.43,0.1-0.85,0.29-1.24,0.57
				c-0.39,0.3-0.77,0.7-1.12,1.2c-0.35,0.51-0.66,1.17-0.92,1.98c-0.26,0.84-0.47,1.84-0.61,3.03c-0.15,1.19-0.22,2.59-0.22,4.22
				c0,2.43,0.15,4.41,0.45,5.94c0.3,1.52,0.72,2.72,1.24,3.59c0.52,0.87,1.14,1.45,1.84,1.77c0.71,0.32,1.47,0.48,2.29,0.48
				c1.33,0,2.42-0.42,3.31-1.25c0.88-0.83,1.5-2.12,1.86-3.87h-4.52v-6.82h12.94v18.89h-6.73v-4.6h-0.1
				c-0.18,0.57-0.49,1.17-0.93,1.78c-0.44,0.62-1.02,1.19-1.71,1.68c-0.7,0.51-1.51,0.93-2.45,1.25
				C1996.75,215.27,1995.72,215.43,1994.6,215.43z"/>
			<path d="M2014.77,177.73h9.33l6.95,13.65c0.29,0.57,0.55,1.08,0.77,1.51c0.22,0.44,0.44,0.89,0.65,1.35s0.44,0.96,0.67,1.49
				c0.24,0.54,0.51,1.18,0.82,1.91h0.1v-19.92h8.42v37.09h-8.61l-8.22-15.02c-0.23-0.41-0.43-0.79-0.61-1.13
				c-0.18-0.34-0.36-0.7-0.54-1.06c-0.18-0.36-0.36-0.74-0.55-1.15c-0.19-0.41-0.41-0.89-0.65-1.44h-0.1v19.8h-8.42L2014.77,177.73
				L2014.77,177.73z"/>
		</g>
		<polygon points="60.16,227.69 84.22,180.56 91.69,180.56 67.64,227.69 		"/>
		<polygon points="73.71,227.69 97.76,180.56 105.24,180.56 81.18,227.69 		"/>
		<polygon points="87.26,227.69 111.31,180.56 118.79,180.56 94.73,227.69 		"/>
		<polygon points="100.8,227.69 124.86,180.56 132.33,180.56 108.27,227.69 		"/>
		<polygon points="114.34,227.69 138.4,180.56 145.87,180.56 121.82,227.69 		"/>
		<polygon points="127.89,227.69 151.95,180.56 159.42,180.56 135.37,227.69 		"/>
		<polygon points="141.44,227.69 165.49,180.56 172.97,180.56 148.91,227.69 		"/>
		<polygon points="154.98,227.69 179.03,180.56 186.51,180.56 162.45,227.69 		"/>
		<polygon points="168.53,227.69 192.59,180.56 200.06,180.56 176,227.69 		"/>
		<polygon points="182.07,227.69 206.13,180.56 213.6,180.56 189.55,227.69 		"/>
		<polygon points="195.61,227.69 219.68,180.56 227.15,180.56 203.09,227.69 		"/>
		<polygon points="209.17,227.69 233.22,180.56 240.7,180.56 216.64,227.69 		"/>
		<polygon points="222.71,227.69 246.76,180.56 254.24,180.56 230.18,227.69 		"/>
		<polygon points="236.26,227.69 260.32,180.56 267.79,180.56 243.73,227.69 		"/>
		<g>
			<polygon class="st0" points="1596.93,126.68 1620.98,79.56 1628.46,79.56 1604.4,126.68 			"/>
			<polygon class="st0" points="1610.48,126.68 1634.53,79.56 1642.01,79.56 1617.95,126.68 			"/>
			<polygon class="st0" points="1624.02,126.68 1648.08,79.56 1655.55,79.56 1631.5,126.68 			"/>
			<polygon class="st0" points="1637.56,126.68 1661.62,79.56 1669.09,79.56 1645.04,126.68 			"/>
			<polygon class="st0" points="1651.12,126.68 1675.17,79.56 1682.64,79.56 1658.59,126.68 			"/>
			<polygon class="st0" points="1664.66,126.68 1688.71,79.56 1696.19,79.56 1672.13,126.68 			"/>
			<polygon class="st0" points="1678.2,126.68 1702.25,79.56 1709.73,79.56 1685.67,126.68 			"/>
			<polygon class="st0" points="1691.75,126.68 1715.81,79.56 1723.28,79.56 1699.23,126.68 			"/>
			<polygon class="st0" points="1705.29,126.68 1729.35,79.56 1736.82,79.56 1712.77,126.68 			"/>
			<polygon class="st0" points="1718.84,126.68 1742.9,79.56 1750.37,79.56 1726.31,126.68 			"/>
			<polygon class="st0" points="1732.39,126.68 1756.44,79.56 1763.92,79.56 1739.86,126.68 			"/>
			<polygon class="st0" points="1745.93,126.68 1769.98,79.56 1777.46,79.56 1753.4,126.68 			"/>
			<polygon class="st0" points="1759.48,126.68 1783.54,79.56 1791.01,79.56 1766.96,126.68 			"/>
			<polygon class="st0" points="1773.02,126.68 1797.08,79.56 1804.55,79.56 1780.5,126.68 			"/>
		</g>
		<rect x="764.6" y="101.07" class="st0" width="199.92" height="5.43"/>
		<rect x="764.6" y="73.64" class="st0" width="199.92" height="5.43"/>
		<rect x="764.6" y="91.92" class="st0" width="199.92" height="5.43"/>
		<rect x="764.6" y="82.78" class="st0" width="199.92" height="5.43"/>
		<g>
			<path d="M5.98,36.13h10.41v3.73h-5.98v3.6h4.23v3.46h-4.23v6.86H5.98V36.13z"/>
			<path d="M18.05,36.13h4.43v17.64h-4.43C18.05,53.76,18.05,36.13,18.05,36.13z"/>
			<path d="M25.19,36.13h4.43v14.05h6.43v3.6H25.19C25.19,53.77,25.19,36.13,25.19,36.13z"/>
			<path d="M37.72,36.13h10.65v3.73h-6.22v3.07h4.42v3.46h-4.42v3.8h6.51v3.6H37.72V36.13z"/>
			<path d="M60.3,48.6c-0.46,0-0.88-0.08-1.27-0.24c-0.39-0.16-0.72-0.38-1-0.67c-0.29-0.29-0.51-0.62-0.67-1.01
				s-0.24-0.81-0.24-1.27s0.08-0.88,0.24-1.27s0.38-0.73,0.67-1.02c0.28-0.29,0.61-0.51,1-0.67c0.39-0.16,0.81-0.24,1.27-0.24
				s0.89,0.08,1.28,0.24c0.39,0.16,0.73,0.38,1.02,0.67c0.28,0.29,0.5,0.63,0.67,1.02c0.16,0.39,0.25,0.81,0.25,1.27
				s-0.08,0.88-0.25,1.27c-0.16,0.39-0.39,0.72-0.67,1.01c-0.29,0.29-0.63,0.51-1.02,0.67S60.76,48.6,60.3,48.6z"/>
			<path d="M72.75,36.13H83.4v3.73h-6.22v3.07h4.42v3.46h-4.42v3.8h6.51v3.6H72.75V36.13z"/>
			<path d="M85.51,36.13h4.98c0.78,0,1.52,0.05,2.24,0.16c0.72,0.1,1.39,0.28,2,0.53c0.62,0.26,1.19,0.6,1.69,1.03
				c0.51,0.43,0.95,0.97,1.31,1.6c0.37,0.65,0.65,1.42,0.85,2.32c0.2,0.9,0.3,1.93,0.3,3.11c0,1.21-0.1,2.26-0.3,3.17
				c-0.2,0.91-0.49,1.69-0.85,2.35c-0.37,0.66-0.81,1.21-1.32,1.64c-0.51,0.44-1.08,0.78-1.69,1.04c-0.63,0.26-1.3,0.44-2,0.54
				c-0.71,0.1-1.44,0.16-2.21,0.16h-4.98V36.13H85.51z M90.86,50.1c0.7,0,1.28-0.09,1.73-0.26c0.46-0.18,0.82-0.47,1.1-0.88
				c0.27-0.41,0.46-0.94,0.57-1.6c0.11-0.67,0.16-1.49,0.16-2.48c0-0.94-0.05-1.72-0.16-2.37c-0.11-0.64-0.3-1.16-0.57-1.55
				s-0.64-0.68-1.1-0.85s-1.05-0.26-1.75-0.26h-0.9V50.1H90.86z"/>
			<path d="M100.88,36.13h4.43v17.64h-4.43V36.13z"/>
			<path d="M111.01,39.84h-4.03v-3.72h12.49v3.73h-4.03v13.91h-4.43V39.84z"/>
			<path d="M130.15,48.6c-0.46,0-0.88-0.08-1.27-0.24c-0.39-0.16-0.72-0.38-1-0.67c-0.29-0.29-0.51-0.62-0.67-1.01
				c-0.16-0.39-0.24-0.81-0.24-1.27s0.08-0.88,0.24-1.27c0.16-0.39,0.38-0.73,0.67-1.02c0.28-0.29,0.61-0.51,1-0.67
				c0.39-0.16,0.81-0.24,1.27-0.24s0.89,0.08,1.28,0.24c0.39,0.16,0.73,0.38,1.02,0.67c0.28,0.29,0.5,0.63,0.67,1.02
				c0.16,0.39,0.25,0.81,0.25,1.27s-0.08,0.88-0.25,1.27c-0.16,0.39-0.39,0.72-0.67,1.01c-0.29,0.29-0.63,0.51-1.02,0.67
				C131.02,48.52,130.61,48.6,130.15,48.6z"/>
			<path d="M149.2,54.1c-0.97,0-1.89-0.17-2.78-0.52c-0.89-0.35-1.66-0.89-2.33-1.62c-0.68-0.74-1.22-1.68-1.61-2.84
				c-0.4-1.16-0.6-2.55-0.6-4.17c0-1.62,0.2-3.02,0.6-4.17c0.4-1.16,0.94-2.1,1.61-2.84c0.67-0.74,1.44-1.28,2.33-1.61
				s1.81-0.51,2.78-0.51c0.97,0,1.88,0.17,2.77,0.51s1.66,0.88,2.33,1.61c0.67,0.74,1.2,1.68,1.6,2.84c0.4,1.16,0.6,2.55,0.6,4.17
				c0,1.62-0.2,3.02-0.6,4.17c-0.4,1.16-0.94,2.1-1.6,2.84s-1.44,1.28-2.33,1.62C151.09,53.93,150.17,54.1,149.2,54.1z M149.2,50.43
				c0.97,0,1.67-0.48,2.14-1.43c0.47-0.96,0.7-2.31,0.7-4.07c0-1.77-0.23-3.12-0.69-4.03c-0.46-0.91-1.18-1.36-2.14-1.36
				c-0.97,0-1.69,0.46-2.16,1.36c-0.47,0.91-0.71,2.25-0.71,4.03c0,1.76,0.24,3.12,0.71,4.07C147.52,49.96,148.23,50.43,149.2,50.43
				z"/>
			<path d="M158.41,36.13h6.46c0.46,0,0.92,0.02,1.38,0.06c0.46,0.04,0.9,0.12,1.33,0.24c0.42,0.12,0.81,0.29,1.18,0.5
				c0.37,0.21,0.69,0.47,0.96,0.79c0.26,0.33,0.47,0.72,0.63,1.19c0.16,0.46,0.23,1.01,0.23,1.62c0,0.67-0.08,1.24-0.25,1.7
				c-0.16,0.47-0.38,0.87-0.65,1.19c-0.27,0.32-0.58,0.57-0.93,0.76c-0.35,0.19-0.7,0.34-1.07,0.44v0.05
				c0.47,0.09,0.9,0.23,1.3,0.41c0.4,0.18,0.74,0.44,1.04,0.76c0.29,0.33,0.51,0.74,0.68,1.25c0.16,0.51,0.25,1.13,0.25,1.86
				c0,0.95-0.18,1.73-0.54,2.35c-0.36,0.63-0.82,1.12-1.39,1.48c-0.58,0.37-1.22,0.63-1.91,0.78c-0.7,0.15-1.41,0.22-2.1,0.22h-6.58
				V36.13z M164.55,43.25c0.65,0,1.13-0.14,1.41-0.42c0.3-0.28,0.44-0.74,0.44-1.36s-0.15-1.08-0.44-1.35
				c-0.3-0.27-0.76-0.41-1.4-0.41h-1.86v3.54C162.71,43.25,164.55,43.25,164.55,43.25z M164.64,50.35c0.71,0,1.23-0.18,1.55-0.54
				c0.33-0.36,0.5-0.86,0.5-1.51c0-0.68-0.17-1.19-0.53-1.51c-0.35-0.34-0.88-0.51-1.57-0.51h-1.88v4.08H164.64z"/>
			<path d="M176.23,54.03c-0.97,0-1.86-0.12-2.71-0.36s-1.59-0.56-2.24-0.95l1.7-3.24c0.42,0.23,0.87,0.41,1.34,0.57
				c0.47,0.15,0.92,0.23,1.33,0.23c0.46,0,0.79-0.13,1-0.38c0.21-0.25,0.32-0.69,0.32-1.32V36.13h4.43v12.95c0,0.73-0.1,1.39-0.29,2
				s-0.5,1.13-0.91,1.56s-0.95,0.78-1.6,1.02C177.94,53.91,177.15,54.03,176.23,54.03z"/>
			<path d="M183.69,36.13h10.65v3.73h-6.22v3.07h4.42v3.46h-4.42v3.8h6.51v3.6h-10.94V36.13z"/>
			<path d="M202.37,54.08c-1.04,0-1.99-0.17-2.85-0.51c-0.86-0.34-1.59-0.88-2.21-1.61c-0.62-0.74-1.11-1.68-1.44-2.83
				c-0.35-1.16-0.52-2.54-0.52-4.17s0.18-3.02,0.54-4.17c0.36-1.16,0.86-2.1,1.48-2.84c0.63-0.74,1.39-1.28,2.26-1.61
				s1.83-0.51,2.87-0.51s1.91,0.15,2.65,0.44c0.74,0.29,1.36,0.71,1.85,1.26c0.49,0.55,0.88,1.22,1.16,1.99
				c0.28,0.78,0.48,1.65,0.6,2.64l-4.17,0.74c-0.09-0.57-0.18-1.06-0.3-1.47c-0.11-0.42-0.25-0.76-0.43-1.03
				c-0.17-0.26-0.38-0.46-0.63-0.6c-0.25-0.13-0.55-0.2-0.9-0.2c-0.9,0-1.55,0.45-1.95,1.35c-0.4,0.9-0.6,2.24-0.6,4.05
				c0,1.82,0.21,3.2,0.62,4.11c0.41,0.93,1.07,1.38,1.98,1.38c0.36,0,0.67-0.06,0.92-0.19c0.26-0.12,0.48-0.33,0.67-0.61
				c0.19-0.28,0.34-0.64,0.47-1.09c0.13-0.45,0.24-1,0.33-1.64l4.18,0.68c-0.16,0.91-0.39,1.75-0.69,2.54
				c-0.3,0.79-0.71,1.47-1.23,2.05c-0.51,0.58-1.15,1.05-1.91,1.37C204.37,53.91,203.46,54.08,202.37,54.08z"/>
			<path d="M213.24,39.84h-4.03v-3.72h12.49v3.73h-4.03v13.91h-4.43L213.24,39.84L213.24,39.84z"/>
			<path d="M232.37,48.6c-0.46,0-0.88-0.08-1.27-0.24c-0.39-0.16-0.72-0.38-1-0.67c-0.29-0.29-0.51-0.62-0.67-1.01
				s-0.24-0.81-0.24-1.27s0.08-0.88,0.24-1.27s0.38-0.73,0.67-1.02c0.28-0.29,0.61-0.51,1-0.67c0.39-0.16,0.81-0.24,1.27-0.24
				c0.46,0,0.89,0.08,1.28,0.24c0.39,0.16,0.73,0.38,1.02,0.67c0.28,0.29,0.5,0.63,0.67,1.02c0.16,0.39,0.25,0.81,0.25,1.27
				s-0.08,0.88-0.25,1.27c-0.16,0.39-0.39,0.72-0.67,1.01c-0.29,0.29-0.63,0.51-1.02,0.67C233.26,48.52,232.83,48.6,232.37,48.6z"/>
			<path d="M247.1,39.84h-4.03v-3.72h12.49v3.73h-4.03v13.91h-4.43L247.1,39.84L247.1,39.84z"/>
			<path d="M260.89,47.02l-5-10.89h4.52l2.79,6.88h0.05l2.78-6.88h4.34l-5.05,10.89v6.75h-4.43L260.89,47.02L260.89,47.02z"/>
			<path d="M271.58,36.13h5.53c0.82,0,1.62,0.09,2.4,0.27s1.47,0.49,2.09,0.95c0.61,0.46,1.1,1.08,1.46,1.85
				c0.37,0.78,0.55,1.77,0.55,2.97c0,0.83-0.09,1.55-0.27,2.19c-0.18,0.63-0.43,1.17-0.74,1.61c-0.32,0.45-0.69,0.83-1.12,1.12
				c-0.42,0.3-0.88,0.53-1.36,0.7c-0.48,0.18-0.99,0.3-1.5,0.37c-0.53,0.07-1.04,0.11-1.54,0.11h-1.16v5.5h-4.35L271.58,36.13
				L271.58,36.13z M277.2,44.8c0.42,0,0.77-0.05,1.05-0.16c0.28-0.11,0.51-0.27,0.68-0.49c0.16-0.21,0.28-0.48,0.36-0.8
				c0.07-0.32,0.11-0.69,0.11-1.11c0-0.41-0.04-0.77-0.11-1.08c-0.07-0.31-0.2-0.57-0.37-0.78c-0.17-0.2-0.4-0.36-0.68-0.46
				s-0.64-0.15-1.06-0.15h-1.25v5.01C275.93,44.8,277.2,44.8,277.2,44.8z"/>
			<path d="M285.48,36.13h10.65v3.73h-6.22v3.07h4.42v3.46h-4.42v3.8h6.51v3.6h-10.94V36.13z"/>
			<path d="M308.07,48.6c-0.46,0-0.88-0.08-1.27-0.24c-0.39-0.16-0.72-0.38-1-0.67c-0.29-0.29-0.51-0.62-0.67-1.01
				c-0.16-0.39-0.24-0.81-0.24-1.27s0.08-0.88,0.24-1.27c0.16-0.39,0.38-0.73,0.67-1.02c0.28-0.29,0.61-0.51,1-0.67
				c0.39-0.16,0.81-0.24,1.27-0.24c0.46,0,0.89,0.08,1.28,0.24c0.39,0.16,0.73,0.38,1.02,0.67c0.28,0.29,0.5,0.63,0.67,1.02
				c0.16,0.39,0.25,0.81,0.25,1.27s-0.08,0.88-0.25,1.27c-0.16,0.39-0.39,0.72-0.67,1.01c-0.29,0.29-0.63,0.51-1.02,0.67
				C308.94,48.52,308.51,48.6,308.07,48.6z"/>
			<path d="M326.79,54.1c-0.93,0-1.76-0.11-2.49-0.32c-0.73-0.21-1.38-0.51-1.93-0.89c-0.57-0.37-1.06-0.82-1.48-1.34
				c-0.42-0.52-0.79-1.09-1.1-1.7l3.55-1.81c0.19,0.33,0.4,0.65,0.64,0.96c0.24,0.31,0.5,0.58,0.8,0.82
				c0.29,0.24,0.6,0.43,0.94,0.58s0.7,0.22,1.09,0.22c0.63,0,1.1-0.14,1.41-0.41c0.31-0.28,0.46-0.65,0.46-1.12
				c0-0.3-0.08-0.55-0.23-0.78c-0.16-0.22-0.36-0.43-0.62-0.61c-0.27-0.18-0.57-0.34-0.92-0.5c-0.35-0.15-0.72-0.31-1.12-0.46
				c-0.4-0.16-0.8-0.32-1.22-0.5c-0.42-0.18-0.82-0.38-1.22-0.6c-0.4-0.22-0.77-0.47-1.13-0.75c-0.35-0.28-0.66-0.62-0.93-1
				c-0.26-0.37-0.48-0.8-0.63-1.28c-0.16-0.48-0.23-1.04-0.23-1.65c0-0.78,0.15-1.48,0.45-2.12s0.72-1.19,1.26-1.64
				c0.54-0.45,1.18-0.8,1.91-1.05c0.74-0.24,1.54-0.37,2.41-0.37c0.79,0,1.49,0.1,2.14,0.3c0.65,0.2,1.23,0.48,1.73,0.84
				c0.51,0.36,0.97,0.79,1.36,1.28c0.39,0.5,0.74,1.04,1.03,1.63l-3.41,1.88c-0.38-0.75-0.81-1.33-1.29-1.73
				c-0.48-0.41-1.04-0.61-1.67-0.61c-0.53,0-0.92,0.13-1.19,0.38c-0.26,0.25-0.39,0.58-0.39,0.97c0,0.27,0.07,0.52,0.2,0.73
				c0.14,0.21,0.32,0.4,0.55,0.58c0.23,0.18,0.51,0.35,0.82,0.51c0.32,0.16,0.66,0.31,1.02,0.47c0.4,0.17,0.83,0.35,1.26,0.53
				c0.44,0.18,0.86,0.38,1.28,0.61c0.41,0.23,0.81,0.49,1.19,0.78c0.38,0.29,0.71,0.62,1,1c0.28,0.38,0.5,0.82,0.67,1.3
				c0.17,0.49,0.25,1.04,0.25,1.65c0,0.69-0.13,1.34-0.39,1.96c-0.26,0.63-0.64,1.19-1.16,1.66c-0.52,0.49-1.17,0.88-1.94,1.17
				C328.73,53.95,327.83,54.1,326.79,54.1z"/>
			<path d="M334.99,36.13h10.65v3.73h-6.22v3.07h4.42v3.46h-4.42v3.8h6.51v3.6h-10.94V36.13z"/>
			<path d="M347.75,36.13h4.43v14.05h6.43v3.6h-10.86L347.75,36.13L347.75,36.13z"/>
			<path d="M360.28,36.13h10.65v3.73h-6.22v3.07h4.42v3.46h-4.42v3.8h6.51v3.6h-10.94V36.13z"/>
			<path d="M378.96,54.08c-1.04,0-1.99-0.17-2.85-0.51c-0.86-0.34-1.59-0.88-2.21-1.61c-0.62-0.74-1.11-1.68-1.44-2.83
				c-0.35-1.16-0.52-2.54-0.52-4.17s0.18-3.02,0.54-4.17c0.36-1.16,0.86-2.1,1.48-2.84s1.39-1.28,2.26-1.61
				c0.88-0.34,1.83-0.51,2.87-0.51c1.04,0,1.91,0.15,2.65,0.44c0.74,0.29,1.36,0.71,1.85,1.26c0.49,0.55,0.88,1.22,1.16,1.99
				c0.28,0.78,0.48,1.65,0.6,2.64l-4.17,0.74c-0.09-0.57-0.18-1.06-0.3-1.47c-0.11-0.42-0.25-0.76-0.43-1.03
				c-0.17-0.26-0.38-0.46-0.63-0.6c-0.25-0.13-0.55-0.2-0.9-0.2c-0.9,0-1.55,0.45-1.95,1.35c-0.4,0.9-0.6,2.24-0.6,4.05
				c0,1.82,0.21,3.2,0.62,4.11c0.41,0.93,1.07,1.38,1.98,1.38c0.36,0,0.67-0.06,0.92-0.19c0.26-0.12,0.48-0.33,0.67-0.61
				c0.19-0.28,0.34-0.64,0.47-1.09c0.13-0.45,0.24-1,0.33-1.64l4.18,0.68c-0.16,0.91-0.39,1.75-0.69,2.54s-0.71,1.47-1.23,2.05
				c-0.51,0.58-1.15,1.05-1.91,1.37C380.97,53.91,380.04,54.08,378.96,54.08z"/>
			<path d="M389.84,39.84h-4.03v-3.72h12.49v3.73h-4.03v13.91h-4.43L389.84,39.84L389.84,39.84z"/>
			<path d="M408.97,48.6c-0.46,0-0.88-0.08-1.27-0.24c-0.39-0.16-0.72-0.38-1-0.67c-0.29-0.29-0.51-0.62-0.67-1.01
				c-0.16-0.39-0.24-0.81-0.24-1.27s0.08-0.88,0.24-1.27c0.16-0.39,0.38-0.73,0.67-1.02c0.28-0.29,0.61-0.51,1-0.67
				c0.39-0.16,0.81-0.24,1.27-0.24s0.89,0.08,1.28,0.24c0.39,0.16,0.73,0.38,1.02,0.67c0.28,0.29,0.5,0.63,0.67,1.02
				c0.16,0.39,0.25,0.81,0.25,1.27s-0.08,0.88-0.25,1.27c-0.16,0.39-0.39,0.72-0.67,1.01c-0.29,0.29-0.63,0.51-1.02,0.67
				C409.85,48.52,409.43,48.6,408.97,48.6z"/>
			<path d="M421.4,36.13h10.65v3.73h-6.22v3.07h4.42v3.46h-4.42v3.8h6.51v3.6H421.4V36.13z"/>
			<path d="M434.16,36.13h10.41v3.73h-5.98v3.6h4.23v3.46h-4.23v6.86h-4.43V36.13z"/>
			<path d="M446.13,36.13h10.41v3.73h-5.98v3.6h4.23v3.46h-4.23v6.86h-4.43V36.13z"/>
			<path d="M458.08,36.13h10.65v3.73h-6.22v3.07h4.42v3.46h-4.42v3.8h6.51v3.6h-10.94V36.13z"/>
			<path d="M476.78,54.08c-1.04,0-1.99-0.17-2.85-0.51c-0.86-0.34-1.59-0.88-2.21-1.61c-0.62-0.74-1.11-1.68-1.44-2.83
				c-0.35-1.16-0.52-2.54-0.52-4.17s0.18-3.02,0.54-4.17c0.36-1.16,0.86-2.1,1.48-2.84s1.39-1.28,2.26-1.61
				c0.88-0.34,1.83-0.51,2.87-0.51c1.04,0,1.91,0.15,2.65,0.44c0.74,0.29,1.36,0.71,1.85,1.26c0.49,0.55,0.88,1.22,1.16,1.99
				c0.28,0.78,0.48,1.65,0.6,2.64L479,42.88c-0.09-0.57-0.18-1.06-0.3-1.47c-0.11-0.42-0.25-0.76-0.43-1.03
				c-0.17-0.26-0.38-0.46-0.63-0.6c-0.25-0.13-0.55-0.2-0.9-0.2c-0.9,0-1.54,0.45-1.95,1.35c-0.4,0.9-0.6,2.24-0.6,4.05
				c0,1.82,0.21,3.2,0.62,4.11c0.41,0.93,1.07,1.38,1.98,1.38c0.36,0,0.67-0.06,0.92-0.19c0.26-0.12,0.48-0.33,0.67-0.61
				c0.19-0.28,0.34-0.64,0.47-1.09c0.13-0.45,0.24-1,0.33-1.64l4.18,0.68c-0.16,0.91-0.39,1.75-0.69,2.54
				c-0.3,0.79-0.71,1.47-1.23,2.05c-0.51,0.58-1.15,1.05-1.91,1.37C478.77,53.91,477.85,54.08,476.78,54.08z"/>
			<path d="M487.65,39.84h-4.03v-3.72h12.49v3.73h-4.03v13.91h-4.43L487.65,39.84L487.65,39.84z"/>
			<path d="M506.77,48.6c-0.46,0-0.88-0.08-1.27-0.24c-0.39-0.16-0.72-0.38-1-0.67c-0.29-0.29-0.51-0.62-0.67-1.01
				c-0.16-0.39-0.24-0.81-0.24-1.27s0.08-0.88,0.24-1.27c0.16-0.39,0.38-0.73,0.67-1.02c0.28-0.29,0.61-0.51,1-0.67
				c0.39-0.16,0.81-0.24,1.27-0.24s0.89,0.08,1.28,0.24c0.39,0.16,0.73,0.38,1.02,0.67c0.28,0.29,0.5,0.63,0.67,1.02
				c0.16,0.39,0.25,0.81,0.25,1.27s-0.08,0.88-0.25,1.27c-0.16,0.39-0.39,0.72-0.67,1.01c-0.29,0.29-0.63,0.51-1.02,0.67
				S507.23,48.6,506.77,48.6z"/>
			<path d="M517.3,36.13h4.45l1.79,7.75c0.09,0.37,0.17,0.73,0.25,1.06c0.08,0.33,0.15,0.67,0.22,1.02c0.07,0.34,0.14,0.7,0.22,1.07
				c0.07,0.37,0.15,0.78,0.23,1.23h0.05c0.08-0.44,0.15-0.84,0.22-1.2c0.07-0.37,0.14-0.72,0.22-1.06c0.08-0.33,0.16-0.67,0.23-1
				c0.08-0.33,0.16-0.69,0.26-1.06l1.87-7.79h4.14l-4.91,17.7h-4.31L517.3,36.13z"/>
			<path d="M532.95,36.13h4.43v17.64h-4.43V36.13z"/>
			<path d="M540.08,36.13h10.65v3.73h-6.22v3.07h4.42v3.46h-4.42v3.8h6.51v3.6h-10.94L540.08,36.13L540.08,36.13z"/>
			<path d="M551.59,36.13h4.27l1.1,6.11c0.07,0.37,0.13,0.7,0.18,1s0.1,0.61,0.16,0.94c0.05,0.33,0.11,0.69,0.17,1.08
				c0.06,0.39,0.12,0.87,0.19,1.42h0.05c0.06-0.54,0.12-1.01,0.18-1.4c0.05-0.39,0.11-0.75,0.16-1.08c0.05-0.33,0.11-0.64,0.16-0.94
				c0.05-0.3,0.12-0.63,0.19-1l1.07-6.13h3.94l1.1,6.2c0.07,0.36,0.13,0.7,0.19,1.02c0.06,0.32,0.11,0.65,0.17,0.98
				c0.05,0.34,0.1,0.69,0.15,1.07c0.05,0.38,0.11,0.82,0.16,1.31h0.05c0.05-0.48,0.11-0.91,0.16-1.29c0.05-0.38,0.11-0.73,0.16-1.07
				c0.05-0.33,0.1-0.65,0.16-0.96c0.06-0.31,0.12-0.64,0.18-0.99l1.12-6.27h3.91l-3.94,17.7h-3.86l-1.84-10.32h-0.05l-1.84,10.32
				h-3.87L551.59,36.13z"/>
			<path d="M581.54,48.6c-0.46,0-0.88-0.08-1.27-0.24c-0.39-0.16-0.72-0.38-1-0.67c-0.29-0.29-0.51-0.62-0.67-1.01
				s-0.24-0.81-0.24-1.27s0.08-0.88,0.24-1.27s0.38-0.73,0.67-1.02c0.28-0.29,0.61-0.51,1-0.67c0.39-0.16,0.81-0.24,1.27-0.24
				s0.89,0.08,1.28,0.24c0.39,0.16,0.73,0.38,1.02,0.67c0.28,0.29,0.5,0.63,0.67,1.02c0.16,0.39,0.25,0.81,0.25,1.27
				s-0.08,0.88-0.25,1.27c-0.16,0.39-0.39,0.72-0.67,1.01c-0.29,0.29-0.63,0.51-1.02,0.67C582.41,48.52,582,48.6,581.54,48.6z"/>
			<path d="M592.18,36.13h4.27l1.1,6.11c0.07,0.37,0.13,0.7,0.18,1s0.1,0.61,0.16,0.94c0.05,0.33,0.11,0.69,0.17,1.08
				c0.06,0.39,0.12,0.87,0.19,1.42h0.05c0.06-0.54,0.12-1.01,0.18-1.4c0.05-0.39,0.11-0.75,0.16-1.08c0.05-0.33,0.11-0.64,0.16-0.94
				c0.05-0.3,0.12-0.63,0.19-1l1.07-6.13h3.94l1.1,6.2c0.07,0.36,0.13,0.7,0.19,1.02c0.06,0.32,0.11,0.65,0.17,0.98
				c0.05,0.34,0.1,0.69,0.15,1.07c0.05,0.38,0.11,0.82,0.16,1.31h0.05c0.05-0.48,0.11-0.91,0.16-1.29c0.05-0.38,0.11-0.73,0.16-1.07
				c0.05-0.33,0.1-0.65,0.16-0.96c0.06-0.31,0.12-0.64,0.18-0.99l1.12-6.27h3.91l-3.94,17.7h-3.86l-1.84-10.32h-0.05l-1.84,10.32
				h-3.87L592.18,36.13z"/>
			<path d="M613.07,36.13h4.43v17.64h-4.43V36.13z"/>
			<path d="M620.2,36.13h4.43l3.31,6.5c0.14,0.27,0.26,0.51,0.37,0.72c0.1,0.21,0.21,0.42,0.31,0.64c0.1,0.22,0.21,0.46,0.32,0.71
				c0.11,0.26,0.24,0.56,0.39,0.91h0.05v-9.47h4.01v17.64h-4.1l-3.91-7.14c-0.11-0.19-0.21-0.37-0.29-0.54
				c-0.09-0.16-0.17-0.33-0.26-0.5c-0.09-0.17-0.17-0.35-0.26-0.55c-0.09-0.19-0.19-0.42-0.31-0.69h-0.05v9.42h-4.01V36.13H620.2z"
				/>
			<path d="M636.03,36.13h4.98c0.78,0,1.52,0.05,2.24,0.16c0.72,0.1,1.39,0.28,2,0.53c0.62,0.26,1.19,0.6,1.69,1.03
				c0.51,0.43,0.95,0.97,1.31,1.6c0.37,0.65,0.65,1.42,0.85,2.32s0.3,1.93,0.3,3.11c0,1.21-0.1,2.26-0.3,3.17
				c-0.2,0.91-0.49,1.69-0.85,2.35c-0.37,0.66-0.81,1.21-1.32,1.64c-0.51,0.44-1.08,0.78-1.69,1.04c-0.63,0.26-1.3,0.44-2,0.54
				c-0.71,0.1-1.44,0.16-2.21,0.16h-4.98V36.13H636.03z M641.38,50.1c0.7,0,1.28-0.09,1.73-0.26c0.46-0.18,0.82-0.47,1.1-0.88
				c0.27-0.41,0.46-0.94,0.57-1.6c0.11-0.67,0.16-1.49,0.16-2.48c0-0.94-0.05-1.72-0.16-2.37c-0.11-0.64-0.3-1.16-0.57-1.55
				s-0.64-0.68-1.1-0.85c-0.46-0.17-1.05-0.26-1.75-0.26h-0.9V50.1H641.38z"/>
			<path d="M657.91,54.1c-0.97,0-1.89-0.17-2.78-0.52c-0.89-0.35-1.66-0.89-2.33-1.62c-0.68-0.74-1.22-1.68-1.61-2.84
				c-0.4-1.16-0.6-2.55-0.6-4.17c0-1.62,0.2-3.02,0.6-4.17c0.4-1.16,0.94-2.1,1.61-2.84c0.67-0.74,1.44-1.28,2.33-1.61
				c0.89-0.34,1.81-0.51,2.78-0.51s1.88,0.17,2.77,0.51c0.89,0.34,1.66,0.88,2.33,1.61c0.67,0.74,1.2,1.68,1.6,2.84
				c0.4,1.16,0.6,2.55,0.6,4.17c0,1.62-0.2,3.02-0.6,4.17c-0.4,1.16-0.94,2.1-1.6,2.84c-0.67,0.74-1.44,1.28-2.33,1.62
				S658.87,54.1,657.91,54.1z M657.91,50.43c0.97,0,1.67-0.48,2.14-1.43s0.7-2.31,0.7-4.07c0-1.77-0.23-3.12-0.69-4.03
				c-0.46-0.91-1.18-1.36-2.14-1.36s-1.69,0.46-2.16,1.36c-0.47,0.91-0.71,2.25-0.71,4.03c0,1.76,0.24,3.12,0.71,4.07
				C656.22,49.96,656.94,50.43,657.91,50.43z"/>
			<path d="M665.39,36.13h4.27l1.1,6.11c0.07,0.37,0.13,0.7,0.18,1s0.1,0.61,0.16,0.94c0.05,0.33,0.11,0.69,0.17,1.08
				c0.06,0.39,0.12,0.87,0.19,1.42h0.05c0.06-0.54,0.12-1.01,0.18-1.4c0.05-0.39,0.11-0.75,0.16-1.08c0.05-0.33,0.11-0.64,0.16-0.94
				c0.05-0.3,0.12-0.63,0.19-1l1.07-6.13h3.94l1.1,6.2c0.07,0.36,0.13,0.7,0.19,1.02c0.06,0.32,0.11,0.65,0.17,0.98
				c0.05,0.34,0.1,0.69,0.15,1.07c0.05,0.38,0.11,0.82,0.16,1.31h0.05c0.05-0.48,0.11-0.91,0.16-1.29c0.05-0.38,0.11-0.73,0.16-1.07
				c0.05-0.33,0.1-0.65,0.16-0.96c0.06-0.31,0.12-0.64,0.18-0.99l1.12-6.27h3.91l-3.94,17.7h-3.86l-1.84-10.32h-0.05l-1.84,10.32
				h-3.87L665.39,36.13z"/>
			<path d="M695.33,48.6c-0.46,0-0.88-0.08-1.27-0.24c-0.39-0.16-0.72-0.38-1-0.67c-0.29-0.29-0.51-0.62-0.67-1.01
				c-0.16-0.39-0.24-0.81-0.24-1.27s0.08-0.88,0.24-1.27c0.16-0.39,0.38-0.73,0.67-1.02c0.28-0.29,0.61-0.51,1-0.67
				c0.39-0.16,0.81-0.24,1.27-0.24c0.46,0,0.89,0.08,1.28,0.24c0.39,0.16,0.73,0.38,1.02,0.67c0.28,0.29,0.5,0.63,0.67,1.02
				c0.16,0.39,0.25,0.81,0.25,1.27s-0.08,0.88-0.25,1.27c-0.16,0.39-0.39,0.72-0.67,1.01c-0.29,0.29-0.63,0.51-1.02,0.67
				C696.21,48.52,695.79,48.6,695.33,48.6z"/>
			<path d="M707.77,36.13h4.43v6.66h4.3v-6.66h4.43v17.64h-4.43v-7.39h-4.3v7.39h-4.43V36.13z"/>
			<path d="M723.53,36.13h10.65v3.73h-6.22v3.07h4.42v3.46h-4.42v3.8h6.51v3.6h-10.94L723.53,36.13L723.53,36.13z"/>
			<path d="M736.29,36.13h4.43v14.05h6.43v3.6h-10.86V36.13z"/>
			<path d="M748.81,36.13h5.53c0.82,0,1.62,0.09,2.4,0.27c0.78,0.18,1.47,0.49,2.09,0.95c0.61,0.46,1.1,1.08,1.46,1.85
				c0.37,0.78,0.55,1.77,0.55,2.97c0,0.83-0.09,1.55-0.27,2.19c-0.18,0.63-0.43,1.17-0.74,1.61c-0.32,0.45-0.69,0.83-1.12,1.12
				c-0.42,0.3-0.88,0.53-1.36,0.7c-0.48,0.18-0.99,0.3-1.5,0.37c-0.53,0.07-1.04,0.11-1.54,0.11h-1.16v5.5h-4.35L748.81,36.13
				L748.81,36.13z M754.43,44.8c0.42,0,0.77-0.05,1.05-0.16c0.28-0.11,0.51-0.27,0.68-0.49c0.16-0.21,0.28-0.48,0.36-0.8
				c0.07-0.32,0.11-0.69,0.11-1.11c0-0.41-0.04-0.77-0.11-1.08c-0.07-0.31-0.2-0.57-0.37-0.78c-0.17-0.2-0.4-0.36-0.68-0.46
				c-0.28-0.1-0.64-0.15-1.06-0.15h-1.25v5.01C753.17,44.8,754.43,44.8,754.43,44.8z"/>
		</g>
	</g>
</g>
</svg>
