<?xml version="1.0" encoding="utf-8"?>
<!-- Generator: Adobe Illustrator 23.0.3, SVG Export Plug-In . SVG Version: 6.00 Build 0)  -->
<svg version="1.1" id="Layer_1" xmlns="http://www.w3.org/2000/svg" xmlns:xlink="http://www.w3.org/1999/xlink" x="0px" y="0px"
	 viewBox="0 0 841.89 595.28" style="enable-background:new 0 0 841.89 595.28;" xml:space="preserve">
<style type="text/css">
	.st0{fill:none;stroke:#000000;stroke-miterlimit:10;}
</style>
<path class="st0" d="M116.31,173.22h-11.39v13.98c0,1.15,0.06,2.2,0.17,3.15c0.12,0.95,0.38,1.77,0.78,2.46
	c0.4,0.69,1.02,1.22,1.86,1.6c0.83,0.37,1.94,0.56,3.32,0.56c0.69,0,1.6-0.07,2.72-0.21c1.12-0.14,1.97-0.47,2.55-0.99v10.79
	c-1.44,0.52-2.93,0.86-4.49,1.04c-1.55,0.17-3.08,0.26-4.57,0.26c-2.19,0-4.2-0.23-6.04-0.69c-1.84-0.46-3.45-1.19-4.83-2.2
	c-1.38-1.01-2.46-2.32-3.23-3.93c-0.78-1.61-1.17-3.56-1.17-5.87v-19.93h-8.29v-10.35h8.29v-12.43h12.94v12.43h11.39V173.22z
	 M121.31,183.83c0-3.34,0.6-6.35,1.81-9.06c1.21-2.7,2.86-5.02,4.96-6.95c2.1-1.93,4.57-3.41,7.42-4.44
	c2.85-1.04,5.88-1.56,9.1-1.56c3.22,0,6.25,0.52,9.1,1.56c2.85,1.03,5.32,2.51,7.42,4.44c2.1,1.93,3.75,4.24,4.96,6.95
	c1.21,2.7,1.81,5.72,1.81,9.06c0,3.34-0.6,6.36-1.81,9.06c-1.21,2.7-2.86,5.02-4.96,6.94c-2.1,1.93-4.57,3.41-7.42,4.44
	c-2.85,1.03-5.88,1.55-9.1,1.55c-3.22,0-6.26-0.52-9.1-1.55c-2.85-1.04-5.32-2.52-7.42-4.44c-2.1-1.93-3.75-4.24-4.96-6.94
	C121.92,190.19,121.31,187.17,121.31,183.83z M134.26,183.83c0,3.16,0.91,5.72,2.72,7.68c1.81,1.96,4.36,2.94,7.64,2.94
	s5.82-0.98,7.64-2.94c1.81-1.96,2.72-4.52,2.72-7.68c0-3.16-0.91-5.72-2.72-7.68c-1.81-1.96-4.36-2.94-7.64-2.94
	s-5.82,0.98-7.64,2.94C135.16,178.11,134.26,180.67,134.26,183.83z M175.5,162.86h12.42v5.69h0.18c0.4-0.8,0.98-1.61,1.72-2.42
	c0.75-0.8,1.64-1.52,2.68-2.16c1.04-0.64,2.22-1.15,3.54-1.56c1.32-0.4,2.76-0.6,4.31-0.6c2.94,0,5.54,0.6,7.81,1.81
	c2.27,1.21,3.98,3.11,5.13,5.69c1.5-2.7,3.31-4.63,5.44-5.78c2.13-1.15,4.75-1.73,7.85-1.73c2.82,0,5.19,0.47,7.12,1.43
	c1.93,0.95,3.45,2.24,4.57,3.88c1.12,1.64,1.92,3.57,2.42,5.78c0.49,2.22,0.73,4.59,0.73,7.12v24.76h-12.95v-24.42
	c0-1.96-0.42-3.64-1.25-5.05c-0.84-1.41-2.32-2.11-4.44-2.11c-1.5,0-2.75,0.25-3.75,0.73c-1.01,0.49-1.81,1.17-2.42,2.03
	c-0.6,0.86-1.04,1.87-1.3,3.02c-0.26,1.15-0.39,2.36-0.39,3.62v22.18h-12.95v-22.18c0-0.75-0.03-1.67-0.08-2.76
	c-0.06-1.1-0.26-2.13-0.6-3.11c-0.35-0.98-0.91-1.81-1.68-2.5c-0.78-0.69-1.91-1.04-3.41-1.04c-1.67,0-3.02,0.3-4.06,0.91
	c-1.04,0.6-1.83,1.41-2.37,2.42c-0.55,1.01-0.91,2.15-1.08,3.41c-0.17,1.27-0.26,2.59-0.26,3.97v20.88H175.5V162.86z M251.78,162.86
	h11.91v5.52h0.17c0.52-0.75,1.19-1.51,2.03-2.29c0.83-0.78,1.81-1.48,2.93-2.11c1.12-0.64,2.35-1.15,3.67-1.56
	c1.32-0.4,2.73-0.6,4.23-0.6c3.11,0,5.92,0.53,8.46,1.6c2.53,1.06,4.7,2.56,6.51,4.49s3.21,4.21,4.19,6.86
	c0.98,2.64,1.47,5.55,1.47,8.71c0,2.93-0.45,5.74-1.34,8.41s-2.16,5.05-3.8,7.12c-1.64,2.07-3.64,3.73-6,4.96
	c-2.36,1.24-5.03,1.85-8.02,1.85c-2.7,0-5.22-0.42-7.55-1.25c-2.33-0.84-4.24-2.26-5.74-4.27h-0.17v24.16h-12.94V162.86z
	 M263.68,183.83c0,3.16,0.91,5.72,2.72,7.68c1.81,1.96,4.36,2.94,7.64,2.94s5.82-0.98,7.64-2.94c1.81-1.96,2.72-4.52,2.72-7.68
	c0-3.16-0.91-5.72-2.72-7.68c-1.81-1.96-4.36-2.94-7.64-2.94s-5.82,0.98-7.64,2.94S263.68,180.67,263.68,183.83z M331.25,199.54
	h-0.17c-1.44,2.24-3.35,3.86-5.74,4.83c-2.39,0.98-4.9,1.47-7.55,1.47c-1.96,0-3.84-0.27-5.65-0.82c-1.81-0.54-3.41-1.37-4.79-2.46
	c-1.38-1.09-2.48-2.44-3.28-4.06c-0.81-1.61-1.21-3.48-1.21-5.61c0-2.42,0.44-4.46,1.34-6.13c0.89-1.67,2.1-3.05,3.62-4.14
	s3.26-1.94,5.22-2.55c1.95-0.6,3.98-1.05,6.08-1.34s4.2-0.46,6.3-0.52c2.1-0.06,4.04-0.09,5.82-0.09c0-2.3-0.82-4.13-2.46-5.48
	c-1.64-1.35-3.58-2.03-5.82-2.03c-2.13,0-4.07,0.45-5.82,1.34c-1.76,0.89-3.32,2.11-4.7,3.67l-6.9-7.07
	c2.42-2.24,5.23-3.93,8.45-5.05c3.22-1.12,6.56-1.68,10.01-1.68c3.8,0,6.92,0.47,9.36,1.43c2.45,0.95,4.4,2.34,5.87,4.19
	c1.47,1.84,2.49,4.1,3.07,6.77c0.58,2.68,0.86,5.77,0.86,9.28v21.31h-11.91V199.54z M328.06,186.42c-0.98,0-2.2,0.05-3.67,0.13
	c-1.46,0.09-2.88,0.33-4.23,0.73c-1.35,0.4-2.5,1.01-3.45,1.81c-0.95,0.81-1.42,1.93-1.42,3.37c0,1.55,0.66,2.7,1.98,3.45
	s2.7,1.12,4.14,1.12c1.26,0,2.49-0.17,3.67-0.52c1.18-0.35,2.23-0.84,3.15-1.47c0.92-0.63,1.65-1.44,2.2-2.42
	c0.54-0.98,0.82-2.13,0.82-3.45v-2.76H328.06z M351.27,162.86h12.94v6.73h0.17c1.38-2.59,3.02-4.53,4.92-5.82
	c1.9-1.3,4.28-1.94,7.16-1.94c0.74,0,1.5,0.03,2.24,0.09c0.74,0.06,1.44,0.17,2.07,0.34v11.82c-0.92-0.29-1.83-0.5-2.72-0.65
	c-0.89-0.14-1.83-0.22-2.8-0.22c-2.48,0-4.43,0.34-5.87,1.04c-1.44,0.69-2.55,1.65-3.32,2.89c-0.78,1.24-1.28,2.72-1.51,4.44
	c-0.23,1.73-0.34,3.62-0.34,5.69v17.52h-12.94V162.86z M386.38,139.57h12.94v39.86l14.32-16.57h15.88l-16.66,18.9l17.08,23.04
	h-16.31l-14.15-21.23h-0.17v21.23h-12.94V139.57z M474.05,197.55c-2.07,2.64-4.69,4.69-7.85,6.13c-3.16,1.44-6.44,2.16-9.84,2.16
	c-3.22,0-6.25-0.52-9.1-1.55c-2.85-1.04-5.32-2.52-7.42-4.44s-3.75-4.24-4.96-6.94c-1.21-2.7-1.81-5.73-1.81-9.06
	c0-3.34,0.6-6.35,1.81-9.06c1.21-2.7,2.86-5.02,4.96-6.95c2.1-1.93,4.57-3.41,7.42-4.44c2.85-1.04,5.88-1.56,9.1-1.56
	c2.99,0,5.71,0.52,8.16,1.56c2.44,1.03,4.52,2.51,6.21,4.44c1.7,1.93,3.01,4.24,3.93,6.95c0.92,2.7,1.38,5.72,1.38,9.06v4.06h-30.03
	c0.52,2.48,1.64,4.44,3.37,5.91c1.72,1.46,3.85,2.2,6.38,2.2c2.13,0,3.93-0.47,5.39-1.42c1.47-0.95,2.75-2.17,3.84-3.67
	L474.05,197.55z M463.09,179.08c0.06-2.18-0.66-4.06-2.16-5.61c-1.5-1.55-3.42-2.33-5.78-2.33c-1.44,0-2.7,0.23-3.8,0.69
	c-1.09,0.46-2.03,1.05-2.81,1.77c-0.78,0.72-1.38,1.55-1.81,2.5c-0.43,0.95-0.68,1.94-0.73,2.98H463.09z M484.14,197.38
	c0-1.09,0.2-2.12,0.6-3.1c0.4-0.98,0.96-1.83,1.69-2.55c0.72-0.72,1.57-1.28,2.55-1.68c0.98-0.4,2.01-0.61,3.1-0.61
	c1.09,0,2.13,0.2,3.11,0.61c0.98,0.4,1.83,0.96,2.55,1.68s1.28,1.57,1.68,2.55c0.4,0.98,0.6,2.01,0.6,3.1c0,1.1-0.2,2.13-0.6,3.11
	c-0.4,0.98-0.96,1.83-1.68,2.55c-0.72,0.72-1.57,1.28-2.55,1.68c-0.98,0.4-2.02,0.6-3.11,0.6c-1.09,0-2.13-0.2-3.1-0.6
	c-0.98-0.4-1.83-0.96-2.55-1.68c-0.72-0.72-1.28-1.57-1.69-2.55C484.34,199.51,484.14,198.47,484.14,197.38z M553.43,204.8h-11.91
	v-5.52h-0.17c-0.52,0.75-1.2,1.51-2.03,2.29c-0.84,0.78-1.81,1.48-2.93,2.12c-1.12,0.63-2.36,1.15-3.71,1.55
	c-1.35,0.4-2.75,0.6-4.19,0.6c-3.11,0-5.93-0.53-8.46-1.6c-2.53-1.06-4.7-2.56-6.51-4.49c-1.81-1.92-3.21-4.21-4.19-6.86
	c-0.98-2.65-1.47-5.55-1.47-8.72c0-2.93,0.45-5.74,1.34-8.41c0.89-2.68,2.16-5.05,3.8-7.12c1.64-2.07,3.64-3.73,6-4.96
	c2.36-1.24,5.03-1.86,8.03-1.86c2.7,0,5.22,0.42,7.55,1.25c2.33,0.83,4.24,2.26,5.74,4.27h0.17v-27.78h12.94V204.8z M541.52,183.83
	c0-3.16-0.91-5.72-2.72-7.68c-1.81-1.96-4.36-2.94-7.64-2.94c-3.28,0-5.82,0.98-7.64,2.94s-2.72,4.52-2.72,7.68
	c0,3.16,0.91,5.72,2.72,7.68c1.81,1.96,4.36,2.94,7.64,2.94c3.28,0,5.82-0.98,7.64-2.94C540.62,189.55,541.52,186.99,541.52,183.83z
	 M603.48,197.55c-2.07,2.64-4.69,4.69-7.85,6.13c-3.16,1.44-6.44,2.16-9.84,2.16c-3.22,0-6.25-0.52-9.1-1.55
	c-2.85-1.04-5.32-2.52-7.42-4.44s-3.75-4.24-4.96-6.94c-1.21-2.7-1.81-5.73-1.81-9.06c0-3.34,0.6-6.35,1.81-9.06
	c1.21-2.7,2.86-5.02,4.96-6.95c2.1-1.93,4.57-3.41,7.42-4.44c2.85-1.04,5.88-1.56,9.1-1.56c2.99,0,5.71,0.52,8.16,1.56
	c2.44,1.03,4.52,2.51,6.21,4.44c1.7,1.93,3.01,4.24,3.93,6.95c0.92,2.7,1.38,5.72,1.38,9.06v4.06h-30.03
	c0.52,2.48,1.64,4.44,3.37,5.91c1.72,1.46,3.85,2.2,6.38,2.2c2.13,0,3.93-0.47,5.39-1.42c1.47-0.95,2.75-2.17,3.84-3.67
	L603.48,197.55z M592.52,179.08c0.06-2.18-0.66-4.06-2.16-5.61c-1.5-1.55-3.42-2.33-5.78-2.33c-1.44,0-2.7,0.23-3.8,0.69
	c-1.09,0.46-2.03,1.05-2.81,1.77s-1.38,1.55-1.81,2.5c-0.43,0.95-0.68,1.94-0.73,2.98H592.52z M637.04,175.2
	c-1.9-2.36-4.4-3.54-7.51-3.54c-1.1,0-2.16,0.26-3.19,0.78c-1.04,0.52-1.56,1.41-1.56,2.68c0,1.04,0.53,1.8,1.6,2.29
	c1.06,0.49,2.42,0.92,4.06,1.3c1.64,0.38,3.39,0.78,5.26,1.21c1.87,0.43,3.62,1.11,5.26,2.03c1.64,0.92,2.99,2.17,4.06,3.75
	c1.06,1.58,1.6,3.7,1.6,6.34c0,2.7-0.59,4.93-1.77,6.68c-1.18,1.76-2.69,3.17-4.53,4.23c-1.84,1.06-3.91,1.81-6.21,2.24
	c-2.3,0.43-4.57,0.65-6.81,0.65c-2.94,0-5.9-0.42-8.89-1.25c-2.99-0.84-5.52-2.32-7.59-4.44l7.85-8.71c1.21,1.5,2.55,2.63,4.01,3.41
	c1.47,0.78,3.18,1.17,5.13,1.17c1.5,0,2.85-0.21,4.06-0.65c1.21-0.43,1.81-1.22,1.81-2.37c0-1.09-0.53-1.91-1.59-2.46
	c-1.07-0.55-2.42-1.01-4.06-1.38c-1.64-0.37-3.4-0.78-5.26-1.21c-1.87-0.43-3.63-1.08-5.27-1.94c-1.64-0.86-2.99-2.08-4.06-3.67
	c-1.06-1.58-1.59-3.7-1.59-6.34c0-2.48,0.5-4.6,1.51-6.39c1-1.78,2.33-3.25,3.97-4.4c1.64-1.15,3.53-2,5.65-2.55
	c2.13-0.55,4.28-0.82,6.47-0.82c2.76,0,5.55,0.4,8.37,1.21c2.82,0.81,5.21,2.24,7.16,4.32L637.04,175.2z M652.4,149.66
	c0-2.07,0.73-3.84,2.2-5.31c1.47-1.47,3.24-2.2,5.31-2.2s3.84,0.73,5.31,2.2c1.47,1.46,2.2,3.23,2.2,5.31s-0.73,3.84-2.2,5.31
	c-1.46,1.47-3.23,2.2-5.31,2.2s-3.84-0.73-5.31-2.2C653.13,153.5,652.4,151.73,652.4,149.66z M653.44,162.86h12.94v41.94h-12.94
	V162.86z M719.7,201.26c0,7.94-2,13.96-6,18.08c-4,4.11-10.08,6.17-18.25,6.17c-3.74,0-7.42-0.42-11.04-1.25
	c-3.62-0.84-6.96-2.46-10.01-4.88l7.16-10.7c2.01,1.67,4.13,2.99,6.34,3.97c2.22,0.98,4.65,1.47,7.29,1.47
	c3.97,0,6.89-0.96,8.76-2.89s2.81-4.39,2.81-7.38v-4.06h-0.17c-1.5,2.01-3.35,3.44-5.56,4.27c-2.22,0.83-4.3,1.25-6.26,1.25
	c-3.11,0-5.93-0.53-8.46-1.59s-4.7-2.56-6.51-4.49c-1.81-1.93-3.21-4.21-4.19-6.86c-0.98-2.64-1.47-5.55-1.47-8.71
	c0-2.76,0.45-5.46,1.34-8.11c0.89-2.65,2.16-4.98,3.8-6.99c1.64-2.01,3.64-3.64,6-4.87c2.36-1.24,5.03-1.86,8.03-1.86
	c1.84,0,3.52,0.2,5.05,0.6c1.52,0.4,2.89,0.92,4.1,1.56c1.21,0.63,2.24,1.33,3.11,2.11c0.86,0.78,1.55,1.54,2.07,2.29h0.17v-5.52
	h11.91V201.26z M687.09,183.57c0,1.38,0.26,2.69,0.78,3.93c0.52,1.24,1.25,2.33,2.2,3.28c0.95,0.95,2.04,1.71,3.28,2.29
	c1.24,0.58,2.6,0.86,4.1,0.86c1.44,0,2.79-0.28,4.06-0.86c1.26-0.58,2.37-1.34,3.32-2.29c0.95-0.95,1.68-2.04,2.2-3.28
	c0.52-1.24,0.78-2.55,0.78-3.93c0-1.38-0.26-2.69-0.78-3.93c-0.52-1.24-1.25-2.33-2.2-3.28c-0.95-0.95-2.06-1.71-3.32-2.29
	c-1.27-0.58-2.62-0.86-4.06-0.86c-1.5,0-2.86,0.29-4.1,0.86c-1.24,0.58-2.33,1.34-3.28,2.29c-0.95,0.95-1.68,2.04-2.2,3.28
	C687.34,180.88,687.09,182.19,687.09,183.57z M730.06,162.86h12.42v5.69h0.18c0.4-0.8,0.98-1.61,1.72-2.42
	c0.75-0.8,1.64-1.52,2.68-2.16c1.04-0.64,2.22-1.15,3.54-1.56c1.32-0.4,2.76-0.6,4.31-0.6c3.28,0,5.93,0.51,7.94,1.51
	c2.02,1.01,3.58,2.41,4.7,4.19c1.12,1.78,1.88,3.88,2.29,6.3c0.4,2.42,0.6,5.03,0.6,7.85v23.12H757.5v-20.54
	c0-1.21-0.05-2.46-0.13-3.75c-0.09-1.3-0.34-2.49-0.78-3.58c-0.43-1.09-1.1-1.98-1.99-2.68s-2.17-1.04-3.84-1.04
	c-1.67,0-3.02,0.3-4.06,0.91c-1.04,0.6-1.83,1.41-2.37,2.42c-0.55,1.01-0.91,2.15-1.08,3.41c-0.17,1.27-0.26,2.59-0.26,3.97v20.88
	h-12.94V162.86z"/>
</svg>
