<?xml version="1.0" encoding="utf-8"?>
<!-- Generator: Adobe Illustrator 23.0.4, SVG Export Plug-In . SVG Version: 6.00 Build 0)  -->
<svg version="1.1" id="Layer_1" xmlns="http://www.w3.org/2000/svg" xmlns:xlink="http://www.w3.org/1999/xlink" x="0px" y="0px"
	 viewBox="0 0 150 150" style="enable-background:new 0 0 150 150;" xml:space="preserve">
<style type="text/css">
	.st0{fill:#EEEEEE;}
</style>
<g>
	<circle cx="75" cy="75" r="75"/>
	<g>
		<g>
			<g>
				<path class="st0" d="M98.48,35.93c-2.99-6.29-7.2-11.96-12.37-16.64c-0.68-0.61-1.72-0.56-2.33,0.12
					c-0.61,0.68-0.56,1.72,0.12,2.33c4.84,4.38,8.8,9.7,11.6,15.6c0.39,0.83,1.38,1.17,2.2,0.78
					C98.52,37.74,98.87,36.75,98.48,35.93z"/>
			</g>
		</g>
		<g>
			<g>
				<path class="st0" d="M89.15,38.39c-2.11-4.02-4.85-7.7-8.09-10.88c-0.65-0.64-1.7-0.63-2.34,0.02c-0.64,0.65-0.63,1.7,0.02,2.34
					c2.99,2.94,5.52,6.34,7.48,10.06c0.3,0.56,0.87,0.88,1.46,0.88C88.92,40.81,89.74,39.5,89.15,38.39z"/>
			</g>
		</g>
		<g>
			<g>
				<path class="st0" d="M25.88,89.1c-2.41-2.18-4.62-4.61-6.57-7.23c-1.95-2.62-3.64-5.43-5.03-8.37c-0.39-0.82-1.38-1.18-2.2-0.78
					c-0.82,0.39-1.18,1.38-0.78,2.2c2.99,6.29,7.2,11.96,12.37,16.63c0.32,0.29,0.71,0.43,1.11,0.43
					C26.27,91.98,27,90.12,25.88,89.1z"/>
			</g>
		</g>
		<g>
			<g>
				<path class="st0" d="M31.02,80.98c-3-2.94-5.52-6.34-7.48-10.06c-0.42-0.81-1.42-1.12-2.23-0.69c-0.81,0.42-1.12,1.42-0.69,2.23
					c2.03,3.87,4.73,7.58,8.09,10.88c0.65,0.64,1.7,0.63,2.34-0.02C31.68,82.66,31.67,81.62,31.02,80.98z"/>
			</g>
		</g>
		<g>
			<g>
				<path class="st0" d="M120.02,100.81l-2.95-3.96c0.42-1.61,1.77-5.67,1.09-11.31c-0.73-6.12-2.63-7.08-3.23-10.6
					c-1.48-8.64,2.51-20.48,3.32-22.77c0.03-0.1,0.05-0.16,0.06-0.18c1.74-5.5,2.89-9.14-2.65-11.8
					c-4.96-2.38-10.17-0.27-13.29,5.39c-0.19,0.35-4.19,7.7-5.91,17.72l-20.4-27.43c-0.54-0.73-1.58-0.89-2.31-0.34
					c-0.73,0.54-0.88,1.58-0.34,2.31l22.82,30.69c0.9,1.21,2.83,0.67,2.97-0.83c1.08-11.39,5.86-20.17,6.06-20.53
					c0.85-1.54,4.01-6.39,8.96-4.01c3.13,1.51,2.56,2.38,0.91,7.89c-1.21,3.4-5.04,15.22-3.46,24.43c0.76,4.42,2.52,4.68,3.21,10.43
					c0.28,2.3,0.19,4.65-0.25,7.01c-0.11,0.52-0.71,2.99-2.99,5.73c-0.58,0.7-0.49,1.74,0.21,2.33c0.7,0.58,1.74,0.49,2.33-0.21
					c0.31-0.38,0.6-0.75,0.87-1.12l2.31,3.11c1.34,1.81,0.97,4.37-0.84,5.72l-3.48,2.59c-1.28,0.95-0.6,2.98,0.99,2.98
					c0.93,0,1.09-0.53,4.46-2.91C121.76,108.72,122.45,104.08,120.02,100.81z"/>
			</g>
		</g>
		<g>
			<g>
				<path class="st0" d="M109.16,116.04c-0.54-0.73-1.58-0.89-2.31-0.34l-15.96,11.86c-1.83,1.36-4.42,0.98-5.78-0.85
					c-0.66-0.69-2.88-5.04-8.34-6.67c-9.83-2.92-13.14-10.28-15-12.28c-0.54-0.73-1.58-0.88-2.31-0.34
					c-0.73,0.54-0.88,1.58-0.34,2.31c1.74,1.86,5.67,10.2,16.71,13.48c4.24,1.26,5.92,4.71,6.63,5.47c2.44,3.28,7.11,3.98,10.4,1.53
					l15.96-11.86C109.55,117.8,109.7,116.77,109.16,116.04z"/>
			</g>
		</g>
		<g>
			<g>
				<g>
					<path class="st0" d="M32.55,74c0-0.01-0.01-0.01-0.01-0.01C32.54,73.99,32.55,74,32.55,74z"/>
					<path class="st0" d="M32.54,73.98C32.54,73.98,32.54,73.98,32.54,73.98L32.54,73.98z"/>
					<path class="st0" d="M79.82,63.71l-21.71-29.2v0c-1.76-2.37-1.21-5.83,1.46-7.47c2.24-1.37,5.26-0.74,6.88,1.44l2.35,3.16
						c0.54,0.73,1.58,0.88,2.31,0.34c0.73-0.54,0.88-1.58,0.34-2.31l-2.35-3.16c-4.2-5.65-13.1-4.17-15,2.67
						c-4.78-5.26-13.54-2.82-14.67,4.24c-0.33,2.03,0.09,4.07,1.16,5.79c-7-0.15-11.11,7.88-6.86,13.6l2.59,3.48
						c-7.13-0.08-10.99,7.99-6.82,13.6c2.13,2.86,2.84,3.82,3.04,4.09c0,0,0,0,0,0c0,0,0,0,0.01,0.01c0,0,0,0,0,0
						c0.02,0.03,0.04,0.05,0.05,0.07c-0.01-0.02-0.03-0.04-0.04-0.05c0.01,0.01,0.02,0.03,0.05,0.06c0,0,0,0,0,0
						c0.44,0.59,3.62,4.86,21.91,29.47c0.32,0.44,0.82,0.67,1.33,0.67c1.34,0,2.14-1.54,1.33-2.64
						C27.08,61.1,35.33,72.2,32.15,67.92c-2.73-3.67,0.09-8.75,4.56-8.3c2.45,0.25,3.59,2.03,3.61,2.05L55.36,81.9
						c0.32,0.44,0.82,0.67,1.33,0.67c1.34,0,2.14-1.54,1.33-2.64c-2.04-2.74-19.59-26.35-21.63-29.09
						c-1.65-2.22-1.35-5.32,0.67-7.07c2.28-1.97,5.72-1.58,7.5,0.82l20.41,27.45c0.32,0.44,0.82,0.67,1.33,0.67
						c0.34,0,0.69-0.11,0.98-0.33c0.73-0.54,0.88-1.58,0.34-2.31c-1.8-2.42-22.77-30.63-23.97-32.24c-1.72-2.32-1.21-5.6,1.17-7.28
						c2.26-1.59,5.48-1.02,7.18,1.26c0.45,0.6,24.94,33.55,25.18,33.87c0.55,0.73,1.58,0.88,2.31,0.34
						C80.22,65.48,80.37,64.44,79.82,63.71z M32.6,74.07C32.62,74.09,32.61,74.09,32.6,74.07L32.6,74.07z"/>
				</g>
			</g>
		</g>
	</g>
</g>
</svg>
