<?xml version="1.0" encoding="utf-8"?>
<!-- Generator: Adobe Illustrator 23.0.3, SVG Export Plug-In . SVG Version: 6.00 Build 0)  -->
<svg version="1.1" id="Layer_1" xmlns="http://www.w3.org/2000/svg" xmlns:xlink="http://www.w3.org/1999/xlink" x="0px" y="0px"
	 viewBox="0 0 336.36 356.61" style="enable-background:new 0 0 336.36 356.61;" xml:space="preserve">
<style type="text/css">
	.st0{fill:#343130;}
	.st1{fill:#816645;}
	.st2{fill:#59AB46;}
	.st3{fill:#049046;}
	.st4{fill:#655037;}
	.st5{fill:#B09F9E;}
	.st6{opacity:0.5;fill:#846D66;enable-background:new    ;}
	.st7{fill:#665252;}
	.st8{fill:#B27D7D;}
	.st9{fill:#F6CACC;}
	.st10{fill:#846D66;}
	.st11{fill:#AF9E9F;}
	.st12{fill:#4AA747;}
	.st13{fill:#FFFFFF;}
</style>
<rect y="177.36" class="st0" width="336.36" height="179.26"/>
<g>
	<path class="st1" d="M134.33,275.84c-2.86-1.97-6.23-3.06-9.71-3.13c-4.53-0.08-10.19,1.61-16.08,7.51
		c-11.81,11.78,0,45.63,0,45.63H92.96c-0.63-10.14-0.45-20.32,0.54-30.43c-1.78-4.27-5.49-11.96-10.28-15.2
		c-16.99,1.71-19.84-8.25-19.84-8.25c5.23,7.28,16.5,5.83,16.5,5.83c-12.89-10.54-9.56-23.06-9.56-23.06s-0.25,12.86,12.46,22.09
		c6.57,4.79,9.92,8.79,11.63,11.53c0.34-2.35,0.74-4.71,1.21-7.07l0,0c0,0,0.5-17.32-4.85-28.98c-0.22-0.46-0.43-0.94-0.63-1.42
		c-13.15-0.3-13.59-8.65-13.59-8.65c3.51,6.23,10.08,6.21,12.54,5.96c-4.14-11.11-5.89-24.46-4.38-27.69c0,0,1.71,19.42,7.93,27.91
		c4.26,5.88,6.29,13.63,7.12,17.83c0.32-0.86,0.65-1.71,1-2.54c5.27-12.66,5.66-26.38,4.67-37.05
		c-10.41-4.71-12.82-13.17-12.82-13.17c2.71,4.79,7.17,8.34,12.46,9.9c-0.61-5.23-1.65-10.41-3.1-15.47
		c2.69,4.74,4.89,9.74,6.57,14.92l0,0c0.12,0.38,0.25,0.77,0.36,1.13c1.03,3.35,1.82,6.76,2.36,10.22
		c0.76,4.79,1.04,9.64,0.84,14.49c0.85-0.18,1.68-0.44,2.48-0.77c3.76-1.56,9.59-5.47,16.38-15.22c-1.31,3.45-3.03,6.72-5.14,9.75
		l0,0c-3.11,4.52-7.73,9.35-14.11,11.76c-0.72,6.98-2.59,13.8-5.54,20.18l0,0l0.07-0.09l0.36-0.51l0,0
		c1.19-1.56,4.96-5.56,13.17-8.6c10.31-3.82,17.07-14.47,17.27-14.79c-0.89,3.11-2.5,5.98-4.7,8.36
		c-6.12,6.94-15.49,11.29-15.49,11.29C129.09,269.78,134.03,275.49,134.33,275.84z"/>
	<path class="st2" d="M99.42,203.87c0,0-5.84-2.91-2.56-10.16C96.86,193.68,103.23,196.78,99.42,203.87z"/>
	<path class="st2" d="M85.53,205.32c0,0-6.52-0.28-6.51-8.27C79.02,197.05,86.12,197.26,85.53,205.32z"/>
	<path class="st2" d="M69.44,226.77c0,0-7.13,4.87-12.12-3.48C57.32,223.29,65.03,217.91,69.44,226.77z"/>
	<path class="st2" d="M61.78,243.54c0,0-7.13,4.87-12.11-3.48C49.68,240.06,57.39,234.69,61.78,243.54z"/>
	<path class="st2" d="M55.86,255.36c0,0,0,5.65-6.4,5.31C49.46,260.67,49.38,254.47,55.86,255.36z"/>
	<path class="st2" d="M67.29,277.47c0,0-1.37,6.41-8.5,4.43C58.78,281.9,60.2,274.9,67.29,277.47z"/>
	<path class="st2" d="M143.31,238.15c0,0-5.02,7.01-12.57,0.89C130.74,239.05,136.07,231.34,143.31,238.15z"/>
	<path class="st2" d="M121.27,214.18c0,0-1.27,8.53-10.78,6.5C110.49,220.68,111.76,211.38,121.27,214.18z"/>
	<path class="st2" d="M124.99,235.91c0,0-1.27,8.53-10.78,6.5C114.21,242.41,115.47,233.11,124.99,235.91z"/>
	<path class="st2" d="M72.59,222.53c0,0-6.52-0.37-6.4-8.36C66.19,214.12,73.28,214.44,72.59,222.53z"/>
	<path class="st2" d="M62.24,269.87c0,0-6.32,1.66-8.67-5.97C53.56,263.9,60.41,262.05,62.24,269.87z"/>
	<path class="st2" d="M135.72,226.07c0,0-1.78-6.28,5.84-8.75C141.57,217.32,143.57,224.12,135.72,226.07z"/>
	<path class="st2" d="M136.62,215.15c0,0-2.99-5.79,3.99-9.72C140.6,205.43,143.92,211.68,136.62,215.15z"/>
	<path class="st2" d="M132.47,217.73c0,0-6.13-2.26-3.67-9.85C128.8,207.85,135.5,210.25,132.47,217.73z"/>
	<path class="st2" d="M150.72,250c0,0-0.23-6.52,7.76-7.11C158.47,242.85,158.8,249.97,150.72,250z"/>
	<path class="st2" d="M143.92,222.53c0,0-0.24-6.52,7.76-7.11C151.68,215.37,152.01,222.43,143.92,222.53z"/>
	<path class="st2" d="M145.03,242.6c0,0,1.13-6.01,8.56-4.96C153.59,237.65,152.46,244.21,145.03,242.6z"/>
	<path class="st2" d="M149.31,257.75c0,0,1.13-6.01,8.56-4.96C157.87,252.79,156.74,259.35,149.31,257.75z"/>
	<path class="st2" d="M74.38,240.14c0,0-6.14,0.08-6.55-7.41C67.83,232.69,74.5,232.56,74.38,240.14z"/>
	<path class="st2" d="M69.37,253.9c0,0-5.78,2.06-8.6-4.9C60.78,248.99,66.99,246.69,69.37,253.9z"/>
	<path class="st2" d="M85.68,217.58c0,0-5.49-2.73-2.4-9.58C83.28,208,89.28,210.92,85.68,217.58z"/>
	<path class="st2" d="M82.62,224.19c0,0-6.13-0.34-6.01-7.84C76.61,216.35,83.27,216.63,82.62,224.19z"/>
	<path class="st2" d="M145.66,275.41c0,0,5.21-3.93,10.31,2.26C155.97,277.64,150.35,281.98,145.66,275.41z"/>
	<path class="st2" d="M124.75,284.1c0,0,6.29,1.77,4.42,9.54C129.13,293.67,122.27,291.79,124.75,284.1z"/>
	<path class="st2" d="M137.83,278.32c0,0,7.24-1.93,9.97,6.78C147.79,285.13,139.95,287.32,137.83,278.32z"/>
	<path class="st2" d="M63.69,289.75c0,0-0.79-7.42,8.29-8.77C71.98,280.97,72.94,289.05,63.69,289.75z"/>
	<path class="st2" d="M55.74,228.94c0,0,8.29-0.71,9.58,9.38C65.32,238.33,56.31,239.2,55.74,228.94z"/>
	<path class="st2" d="M120.56,197.79c0,0,6.39,1.36,5.05,9.23C125.61,207.02,118.64,205.59,120.56,197.79z"/>
	<path class="st2" d="M106.63,192.16c0,0,3.4,5.65-3.4,9.96C103.23,202.12,99.49,196.07,106.63,192.16z"/>
	<path class="st2" d="M110.73,199.79c0,0,1.23,6.39-6.57,8.22C104.16,208.01,102.74,201.07,110.73,199.79z"/>
	<path class="st2" d="M89.21,219.86c0,0,6.14-2.26,9.17,5.17C98.39,225.03,91.74,227.53,89.21,219.86z"/>
	<path class="st2" d="M88.25,234.45c0,0-1.19-6.41,6.62-8.18C94.87,226.27,96.24,233.22,88.25,234.45z"/>
	<path class="st2" d="M73.86,225.04c0,0,6.35-1.5,8.53,6.19C82.38,231.23,75.49,232.95,73.86,225.04z"/>
	<path class="st2" d="M79.51,252.15c0,0,7.81-3.15,12.07,6.23C91.58,258.38,83.12,261.9,79.51,252.15z"/>
	<path class="st2" d="M48.35,246.43c0,0,5.39-0.58,6.38,5.98C54.73,252.42,48.87,253.12,48.35,246.43z"/>
	<path class="st3" d="M108.17,211.33c0,0,1.28-7.83,12.06-5.65C120.22,205.7,117.67,213.49,108.17,211.33z"/>
	<path class="st3" d="M114.56,230.43c0,0-0.89-7.9,10.07-8.68C124.64,221.72,124.3,229.96,114.56,230.43z"/>
	<path class="st3" d="M138.67,251.03c0,0,1.28-7.83,12.05-5.65C150.72,245.38,148.16,253.22,138.67,251.03z"/>
	<path class="st3" d="M135.74,273.78c0,0,1.28-7.83,12.05-5.65C147.79,268.15,145.23,275.97,135.74,273.78z"/>
	<path class="st3" d="M135.74,232.09c0,0,1.28-7.83,12.05-5.65C147.79,226.45,145.23,234.28,135.74,232.09z"/>
	<path class="st3" d="M76.55,235.43c0,0,7.85-1.31,9.23,9.56C85.78,245,77.53,245.11,76.55,235.43z"/>
	<path class="st3" d="M63.18,242.54c0,0,6.59-4.44,12.39,4.83C75.57,247.37,68.13,250.93,63.18,242.54z"/>
	<path class="st3" d="M57.93,257.09c0,0,5.54-3.73,10.4,4.09C68.38,261.18,62.11,264.13,57.93,257.09z"/>
	<path class="st3" d="M74.92,266.36c0,0-3.16-5.86,5.13-9.9C80.1,256.46,82.41,262.97,74.92,266.36z"/>
	<path class="st3" d="M120.77,290c0,0-7.28,2.1-9.8-8.03C110.98,281.97,118.78,280.96,120.77,290z"/>
	<path class="st3" d="M129.09,283c0,0-7.28,2.1-9.8-8.04C119.29,274.96,127.09,273.95,129.09,283z"/>
	<path class="st3" d="M146.67,256.12c0,0-3.1,6.89-12.46,2.26C134.19,258.38,138.46,251.78,146.67,256.12z"/>
	<path class="st3" d="M138.27,264.31c0,0-3.09,6.9-12.46,2.26C125.79,266.57,130.07,259.98,138.27,264.31z"/>
	<path class="st3" d="M159.45,265.99c0,0-6.39,4.11-11.71-4.88C147.74,261.11,154.92,257.9,159.45,265.99z"/>
	<path class="st3" d="M138.76,288.53c0,0-7.43,1.52-9.13-8.79C129.63,279.74,137.49,279.36,138.76,288.53z"/>
	<path class="st3" d="M135.27,246.06c0,0-2.79,7.02-12.37,2.8C122.9,248.86,126.88,242.09,135.27,246.06z"/>
	<path class="st3" d="M120.89,257.53c0,0,0.45,7.54-10.02,7.76C110.86,265.29,111.6,257.53,120.89,257.53z"/>
	<path class="st3" d="M130.59,230.43c0,0-6.92-3.11-2.26-12.42C128.34,218.01,134.94,222.23,130.59,230.43z"/>
	<path class="st3" d="M95.59,228.87c0,0,7.85-1.3,9.23,9.58C104.82,238.45,96.56,238.55,95.59,228.87z"/>
	<path class="st3" d="M93.63,240.24c0,0,7.85-1.31,9.23,9.56C102.86,249.81,94.6,249.91,93.63,240.24z"/>
	<path class="st3" d="M89.01,198.81c0,0,7.35,3.03,2.76,12.99C91.77,211.83,84.71,207.56,89.01,198.81z"/>
	<path class="st3" d="M96.75,208.97c0,0,5.53,1.43,3.24,8.97C99.99,218.01,94.55,215.6,96.75,208.97z"/>
	<path class="st3" d="M82.38,262.33c0,0,7.46-2.73,10.84,7.7C93.22,270.03,85.11,271.65,82.38,262.33z"/>
	<path class="st3" d="M63.38,265.44c0,0,7.85-1.31,9.23,9.56C72.66,274.97,64.36,275.07,63.38,265.44z"/>
	<path class="st3" d="M71.87,206.25c0,0,6.66-1.13,7.84,8.12C79.71,214.37,72.66,214.45,71.87,206.25z"/>
	<path class="st4" d="M108.54,280.22c-11.81,11.78,0,45.63,0,45.63h-7.93c0,0-8.46-55.45,24.01-53.14
		C120.06,272.63,114.45,274.32,108.54,280.22z"/>
	<path class="st4" d="M106.14,274.32c0.07-0.09,0.2-0.3,0.43-0.6L106.14,274.32z"/>
	<path class="st4" d="M125.78,242.41c-3.11,4.52-7.73,9.35-14.11,11.76c-0.72,6.98-2.59,13.8-5.54,20.18l0,0l-1.43,1.28
		c-0.23,0.2-0.58,0.17-0.78-0.06c-0.13-0.15-0.17-0.36-0.1-0.55c2.59-6.57,10.4-32.64,5.66-48.98l1.74,8.13
		c0.76,4.79,1.04,9.64,0.84,14.49c0.85-0.17,1.69-0.42,2.49-0.75c-0.34,0.59-0.52,1.27-0.5,1.95c0.04,0.45,0.44,0.78,0.89,0.73
		c0.14-0.01,0.27-0.06,0.38-0.14C119.06,248.12,122.56,245.42,125.78,242.41z"/>
	<path class="st4" d="M114.06,270.92l0.22-0.19C114.2,270.79,114.12,270.85,114.06,270.92z"/>
	<path class="st4" d="M132.31,258.72L132.31,258.72c-6.12,6.94-15.49,11.29-15.49,11.29c-0.31-0.04-0.62-0.04-0.93,0
		c-0.13,0.03-0.27-0.05-0.3-0.18c-0.03-0.1,0.02-0.21,0.11-0.27c2.06-1.59,4.35-2.86,6.79-3.77
		C127.01,264.31,132.31,258.72,132.31,258.72z"/>
	<path class="st5" d="M141.24,311.16l-2.56,10.6c-0.79,3.26-4.08,5.26-7.34,4.48c-3.27-0.79-5.28-4.06-4.49-7.32l0,0l2.56-10.57
		L141.24,311.16z"/>
	<path class="st6" d="M141.24,311.16l-2.56,10.6c-0.81,3.25-4.11,5.23-7.37,4.42c-1.23-0.31-2.34-0.99-3.16-1.95
		c2.61-2.63,4.62-5.79,5.88-9.27l0.17-0.5c0.14-0.45,0.27-0.9,0.39-1.38l1.26-5.21l0.92,0.24l-0.44,1.85L141.24,311.16z"/>
	<polygon class="st7" points="141.48,280.13 143.34,280.58 137.47,304.86 135.61,304.42 	"/>
	<polygon class="st8" points="138.91,278.53 146.36,280.32 146.14,281.25 138.68,279.46 	"/>
	<polygon class="st8" points="139.58,275.75 147.03,277.54 146.7,278.93 139.24,277.14 	"/>
	<polygon class="st9" points="147.03,277.53 146.14,281.25 145.2,281.03 146.1,277.31 	"/>
	<polygon class="st9" points="140.51,275.96 139.61,279.68 138.68,279.46 139.58,275.74 	"/>
	<path class="st10" d="M136.76,310.08l-0.92,3.82c-0.17,0.8-0.96,1.31-1.76,1.14c-0.01,0-0.02,0-0.03-0.01h-0.09
		c-0.75-0.22-1.19-0.99-1-1.75l0.92-3.82L136.76,310.08z"/>
	<path class="st11" d="M136.25,309.96l-0.92,3.81c-0.12,0.5-0.62,0.82-1.13,0.71l0,0c-0.49-0.14-0.78-0.64-0.67-1.13l2.15-8.91
		l1.87,0.44l-0.79,3.25L136.25,309.96z"/>
	<path class="st1" d="M75.57,327.05h212.79l0,0l0,0c0,8.15-6.62,14.75-14.79,14.75H90.36C82.19,341.8,75.57,335.19,75.57,327.05
		L75.57,327.05L75.57,327.05z"/>
	<rect x="75.57" y="322.87" class="st12" width="212.8" height="4.19"/>
	<path class="st12" d="M115.69,323.81c0,0,0-8.06,4.53-11.57c-1.99,3.53-3.02,7.52-2.99,11.57H115.69z"/>
	<path class="st12" d="M117.29,323.57c0,0,0.68-3.97,3.19-5.33c-1.28,1.58-2.12,3.46-2.45,5.47L117.29,323.57z"/>
	<path class="st12" d="M115.41,323.34c0,0-0.85-4.83-3.86-6.45c1.57,1.9,2.61,4.18,3.01,6.61L115.41,323.34z"/>
	<path class="st13" d="M177.59,262.05l-1.53,3.39c-0.17,0.4-0.38,0.78-0.63,1.13c-0.12,0.18-0.33,0.29-0.54,0.29
		c-0.19,0-0.37-0.09-0.49-0.24c-0.25-0.35-0.47-0.73-0.65-1.13c-0.34-0.64-0.62-1.22-0.84-1.72l-1.68-3.77
		c-0.24-0.52-0.48-0.79-0.74-0.79c-0.26,0-0.42,0.23-0.44,0.68c-0.06,0.99-0.09,1.92-0.09,2.77c-0.02,0.6,0.02,1.2,0.12,1.8
		c0.05,0.15,0.13,0.29,0.24,0.41c0.25,0.17,0.52,0.32,0.8,0.45c0.28,0.15,0.44,0.44,0.42,0.76c0,0.95-1.22,1.42-3.66,1.42
		c-2.06,0-3.08-0.46-3.08-1.39c-0.02-0.19,0.04-0.37,0.16-0.52c0.25-0.19,0.52-0.35,0.82-0.47c0.25-0.09,0.45-0.28,0.57-0.52
		c0.14-0.41,0.23-0.84,0.25-1.28c0.08-0.68,0.15-1.8,0.22-3.39s0.1-2.87,0.1-3.96c0.06-0.95-0.05-1.9-0.32-2.81
		c-0.06-0.14-0.15-0.28-0.26-0.38c-0.17-0.13-0.36-0.24-0.55-0.33c-0.6-0.28-0.91-0.65-0.91-1.13c0-0.3,0.13-0.6,0.34-0.81
		c0.24-0.26,0.55-0.44,0.89-0.52c0.49-0.13,1-0.23,1.51-0.28c0.53-0.07,1.05-0.12,1.59-0.12c0.76-0.04,1.53,0.05,2.26,0.27
		c0.2,0.06,0.38,0.18,0.52,0.34c0.22,0.28,0.4,0.58,0.55,0.89l2.65,4.87c0.16,0.34,0.37,0.67,0.6,0.97
		c0.11,0.13,0.28,0.19,0.45,0.18c0.17,0,0.33-0.07,0.45-0.19c0.19-0.21,0.35-0.45,0.46-0.71l1.8-3.49c0.22-0.45,0.36-0.75,0.43-0.88
		c0.27-0.65,0.7-1.23,1.23-1.69c0.87-0.44,1.86-0.63,2.83-0.54c2.4,0,3.6,0.54,3.6,1.64c0.01,0.2-0.04,0.41-0.14,0.59
		c-0.15,0.22-0.35,0.4-0.58,0.54c-0.4,0.32-0.66,0.78-0.74,1.29c-0.21,1.41-0.31,2.84-0.29,4.27c-0.01,1.89,0.09,3.77,0.31,5.65
		c0.02,0.28,0.1,0.56,0.24,0.81c0.24,0.26,0.51,0.47,0.82,0.64c0.29,0.17,0.47,0.48,0.46,0.81c0,0.6-0.38,1.02-1.13,1.25
		c-0.42,0.14-0.84,0.23-1.28,0.27c-0.45,0-1.13,0.07-2.08,0.07c-1.08,0.04-2.15-0.07-3.2-0.3c-0.78-0.24-1.13-0.62-1.13-1.13
		c-0.01-0.18,0.05-0.35,0.16-0.5c0.24-0.27,0.51-0.51,0.79-0.72c0.26-0.28,0.42-0.64,0.45-1.03c0.1-0.86,0.13-1.72,0.11-2.59
		c0.02-0.45-0.01-0.89-0.09-1.33c-0.04-0.19-0.21-0.33-0.41-0.33c-0.24,0-0.46,0.17-0.68,0.5
		C178.24,260.64,177.89,261.33,177.59,262.05z"/>
	<path class="st13" d="M195.1,255.51v7.39c-0.02,0.44,0.03,0.87,0.16,1.29c0.13,0.31,0.35,0.56,0.63,0.75
		c0.21,0.12,0.39,0.28,0.53,0.47c0.1,0.15,0.14,0.33,0.14,0.51c0,1.13-1.39,1.64-4.17,1.64c-1.2,0.03-2.39-0.09-3.56-0.36
		c-0.28-0.07-0.52-0.23-0.71-0.44c-0.18-0.2-0.28-0.46-0.28-0.72c-0.01-0.19,0.04-0.38,0.15-0.54c0.21-0.23,0.45-0.44,0.71-0.61
		c0.29-0.24,0.49-0.58,0.55-0.95c0.13-0.65,0.19-1.31,0.17-1.96c0-0.28,0-0.8-0.06-1.57s-0.07-1.22-0.08-1.34
		c-0.09-0.37-0.36-0.67-0.71-0.8c-0.45-0.14-0.77-0.55-0.79-1.02c0-0.53,0.34-0.93,1.03-1.2c1-0.37,2.02-0.68,3.06-0.93
		c0.83-0.21,1.67-0.34,2.53-0.37C194.86,254.73,195.1,254.99,195.1,255.51z M192.57,249.95c0.61-0.03,1.22,0.11,1.76,0.41
		c0.41,0.23,0.65,0.66,0.65,1.13c0,0.66-0.38,1.26-0.97,1.55c-1.15,0.63-2.45,0.94-3.76,0.9c-0.52,0.02-1.03-0.1-1.48-0.36
		c-0.46-0.25-0.74-0.74-0.74-1.26c0-0.73,0.52-1.3,1.57-1.72C190.53,250.19,191.54,249.97,192.57,249.95z"/>
	<path class="st13" d="M212.76,259.33l0.18,4.52c-0.01,0.26,0.05,0.51,0.16,0.75c0.23,0.33,0.49,0.64,0.78,0.93
		c0.14,0.16,0.2,0.37,0.19,0.58c0,0.55-0.34,0.95-1.01,1.13c-1.17,0.28-2.38,0.4-3.59,0.34c-0.84,0.05-1.69-0.06-2.49-0.3
		c-0.44-0.16-0.73-0.56-0.75-1.03c-0.01-0.13,0.01-0.27,0.08-0.38c0.16-0.21,0.33-0.4,0.51-0.59c0.34-0.35,0.51-1.54,0.51-3.56
		c0.05-0.88-0.09-1.76-0.41-2.59c-0.45-0.69-1.38-0.88-2.07-0.43c-0.12,0.08-0.24,0.18-0.33,0.3c-0.26,0.63-0.37,1.31-0.32,1.99
		v2.52c-0.01,0.35,0.02,0.69,0.09,1.03c0.18,0.39,0.39,0.77,0.63,1.13c0.09,0.16,0.14,0.34,0.14,0.52c0,0.51-0.34,0.87-1.04,1.13
		c-1.06,0.29-2.16,0.41-3.26,0.36c-2.36,0-3.53-0.49-3.53-1.47c-0.01-0.16,0.03-0.32,0.1-0.46c0.15-0.17,0.33-0.32,0.52-0.45
		c0.2-0.13,0.35-0.33,0.42-0.55c0.09-0.5,0.15-1.01,0.16-1.52c0.07-0.97,0.09-1.98,0.09-3.04c0.03-0.38-0.02-0.76-0.14-1.13
		c-0.19-0.29-0.46-0.52-0.77-0.67c-0.32-0.16-0.53-0.48-0.54-0.84c0-0.33,0.16-0.65,0.44-0.84c0.58-0.34,1.19-0.61,1.83-0.81
		c0.82-0.29,1.61-0.53,2.37-0.73c0.5-0.16,1.02-0.26,1.55-0.29c0.24,0,0.48,0.1,0.65,0.27c0.17,0.18,0.26,0.42,0.26,0.67
		c0,0,0,0.12,0,0.32c0,0.19,0,0.12,0,0.18c0,0.41,0.17,0.61,0.51,0.61c0.2,0,0.42-0.17,0.66-0.49c0.69-1.1,1.91-1.74,3.2-1.69
		c0.99-0.02,1.95,0.27,2.75,0.85c0.5,0.35,0.9,0.84,1.13,1.4C212.66,257.73,212.77,258.52,212.76,259.33z"/>
	<path class="st13" d="M221.89,255.51v7.39c-0.02,0.43,0.03,0.87,0.16,1.29c0.14,0.3,0.36,0.56,0.65,0.75
		c0.23,0.13,0.42,0.3,0.58,0.51c0.1,0.15,0.14,0.33,0.14,0.51c0,1.13-1.39,1.64-4.17,1.64c-1.2,0.03-2.39-0.09-3.56-0.36
		c-0.28-0.08-0.53-0.23-0.72-0.44c-0.17-0.2-0.27-0.46-0.27-0.72c-0.01-0.19,0.04-0.38,0.15-0.54c0.21-0.23,0.45-0.44,0.71-0.61
		c0.29-0.24,0.49-0.58,0.55-0.95c0.13-0.65,0.19-1.31,0.17-1.96c0-0.28,0-0.8-0.06-1.57s-0.07-1.22-0.09-1.34
		c-0.07-0.38-0.35-0.69-0.71-0.8c-0.45-0.14-0.76-0.55-0.78-1.02c0-0.53,0.34-0.93,1.03-1.2c1-0.37,2.02-0.68,3.06-0.93
		c0.83-0.21,1.67-0.34,2.53-0.37C221.66,254.73,221.89,254.99,221.89,255.51z M219.37,249.95c0.61-0.03,1.22,0.11,1.76,0.41
		c0.41,0.23,0.65,0.66,0.65,1.13c-0.01,0.66-0.38,1.25-0.97,1.55c-1.15,0.63-2.45,0.94-3.76,0.9c-0.52,0.02-1.03-0.1-1.48-0.36
		c-0.46-0.25-0.74-0.74-0.74-1.26c0-0.73,0.52-1.3,1.56-1.72C217.33,250.19,218.35,249.97,219.37,249.95z"/>
	<path class="st13" d="M236,267.29h-0.92c-0.54,0-1.13,0-1.8,0.08c-0.42,0-0.7,0-0.86,0c-0.5,0.02-0.98-0.12-1.39-0.4
		c-0.34-0.23-0.54-0.62-0.53-1.03c-0.01-0.25,0.07-0.5,0.24-0.69c0.21-0.2,0.48-0.34,0.77-0.4c0.27-0.04,0.52-0.2,0.68-0.42
		c0.17-0.35,0.26-0.74,0.28-1.13c0.07-0.64,0.14-1.87,0.18-3.72c0.05-1.84,0.09-3.66,0.09-5.48c0.03-0.48-0.02-0.96-0.17-1.42
		c-0.17-0.29-0.46-0.49-0.78-0.56c-0.52-0.12-0.89-0.59-0.87-1.13c0.01-0.41,0.24-0.78,0.6-0.97c0.52-0.26,1.1-0.38,1.69-0.35h0.85
		h1.55c1.21,0,2.58,0,4.11-0.11c0.33,0,0.72,0,1.21,0c1.56-0.06,3.12,0.16,4.61,0.65c1.64,0.63,2.99,1.84,3.81,3.39
		c0.78,1.51,1.17,3.2,1.13,4.9c-0.01,0.97-0.15,1.94-0.42,2.88c-0.25,0.89-0.63,1.73-1.13,2.5c-0.99,1.42-2.42,2.47-4.08,3
		c-1.05,0.33-2.15,0.5-3.26,0.5h-1.54h-1.32C237.69,267.31,236.78,267.29,236,267.29z M238.67,253.52v9.82
		c-0.04,0.41,0.08,0.81,0.34,1.13c0.32,0.25,0.73,0.37,1.13,0.34c2.48,0,3.72-1.88,3.71-5.65c0.08-1.65-0.21-3.3-0.86-4.82
		c-0.6-1.22-1.87-1.97-3.24-1.9c-0.31-0.04-0.62,0.05-0.86,0.25C238.72,252.93,238.64,253.23,238.67,253.52z"/>
	<path class="st13" d="M258.65,255.51v7.39c-0.02,0.43,0.03,0.87,0.16,1.29c0.13,0.31,0.36,0.57,0.65,0.75
		c0.2,0.12,0.38,0.28,0.52,0.47c0.1,0.15,0.14,0.33,0.14,0.51c0,1.13-1.38,1.64-4.17,1.64c-1.19,0.03-2.38-0.09-3.54-0.36
		c-0.28-0.07-0.53-0.22-0.72-0.44c-0.17-0.2-0.27-0.46-0.27-0.72c-0.01-0.21,0.06-0.42,0.18-0.59c0.21-0.23,0.45-0.44,0.71-0.61
		c0.29-0.24,0.49-0.58,0.57-0.95c0.12-0.65,0.18-1.31,0.16-1.96c0-0.28,0-0.8,0-1.57s-0.07-1.22-0.08-1.34
		c-0.09-0.37-0.36-0.67-0.71-0.8c-0.45-0.14-0.77-0.55-0.79-1.02c0-0.53,0.35-0.93,1.03-1.2c1-0.37,2.02-0.68,3.06-0.93
		c0.83-0.21,1.67-0.34,2.53-0.37C258.38,254.73,258.65,254.99,258.65,255.51z M256.11,249.95c0.61-0.03,1.22,0.11,1.76,0.41
		c0.41,0.23,0.66,0.66,0.66,1.13c-0.01,0.66-0.39,1.26-0.99,1.55c-1.15,0.63-2.45,0.94-3.76,0.9c-0.52,0.02-1.03-0.1-1.47-0.36
		c-0.46-0.25-0.75-0.74-0.74-1.26c0-0.73,0.52-1.3,1.56-1.72C254.07,250.19,255.09,249.97,256.11,249.95z"/>
	<path class="st13" d="M274.4,253.95c0.24,0.01,0.45,0.15,0.57,0.36c0.16,0.25,0.25,0.55,0.24,0.85c-0.02,0.4-0.13,0.78-0.32,1.13
		c-0.19,0.4-0.46,0.76-0.79,1.06c-0.19,0.17-0.28,0.3-0.28,0.41c-0.01,0.1-0.01,0.2,0,0.3c0.01,0.16,0.01,0.32,0,0.49
		c0.02,0.95-0.35,1.87-1.02,2.54c-0.67,0.65-1.48,1.13-2.37,1.42c-1.02,0.35-2.09,0.52-3.17,0.51c-0.28,0-0.55-0.02-0.83-0.06h-0.51
		c-0.33-0.05-0.63,0.18-0.68,0.51c-0.01,0.05-0.01,0.1,0,0.16c0,0.29,0.17,0.56,0.44,0.68c0.37,0.18,0.78,0.27,1.19,0.25
		c0.5-0.01,1.01-0.06,1.51-0.14c1.02-0.16,2.05-0.26,3.08-0.29c0.81-0.04,1.61,0.13,2.33,0.5c0.44,0.26,0.81,0.63,1.05,1.07
		c0.26,0.45,0.39,0.95,0.39,1.47c-0.02,0.91-0.35,1.79-0.94,2.48c-0.86,1.03-2.01,1.76-3.31,2.11c-1.28,0.38-2.61,0.56-3.94,0.53
		c-1.56,0.06-3.1-0.24-4.53-0.86c-0.52-0.25-0.96-0.61-1.3-1.07c-0.31-0.39-0.48-0.87-0.49-1.37c0-0.32,0.09-0.64,0.27-0.91
		c0.17-0.26,0.41-0.47,0.7-0.6c0.25-0.1,0.37-0.21,0.37-0.33c0-0.11-0.1-0.23-0.32-0.41c-0.59-0.4-0.97-1.05-1.02-1.76
		c0.02-0.46,0.2-0.91,0.5-1.26c0.32-0.43,0.73-0.77,1.21-1.01c0.2-0.1,0.31-0.2,0.31-0.3c0-0.11-0.12-0.29-0.39-0.53
		c-0.83-0.7-1.31-1.74-1.31-2.82c0-0.58,0.17-1.14,0.48-1.63c0.33-0.53,0.77-0.98,1.29-1.32c1.35-0.88,2.92-1.34,4.53-1.33
		c0.76,0.01,1.52,0.1,2.26,0.26c0.53,0.12,1.06,0.19,1.6,0.23c1.02-0.05,2-0.44,2.76-1.13C274.1,254.04,274.24,253.98,274.4,253.95z
		 M264.71,268.14c-0.2,0-0.32,0.12-0.32,0.37c0.01,0.52,0.31,0.99,0.78,1.22c0.65,0.33,1.38,0.49,2.12,0.46
		c0.67,0.03,1.34-0.09,1.96-0.34c0.4-0.13,0.68-0.5,0.7-0.93c0-0.21-0.1-0.41-0.27-0.54c-0.19-0.15-0.42-0.23-0.66-0.21
		c-0.2-0.01-0.39-0.01-0.59,0c-0.52,0.08-1.05,0.12-1.59,0.11c-0.44,0-0.85,0-1.26,0l-0.72-0.1L264.71,268.14z M267.49,256.58
		c-0.4-0.01-0.79,0.17-1.03,0.49c-0.27,0.37-0.41,0.82-0.39,1.28c-0.04,0.78,0.1,1.55,0.42,2.26c0.22,0.64,0.93,0.98,1.57,0.76
		c0.24-0.08,0.45-0.24,0.6-0.45c0.28-0.4,0.42-0.89,0.4-1.38c0.04-0.73-0.11-1.45-0.42-2.11
		C268.46,256.94,268.01,256.61,267.49,256.58z"/>
	<path class="st13" d="M281.02,254.64c0.7,0.03,1.39,0.12,2.07,0.27c0.16,0.01,0.32,0.01,0.49,0c0.29-0.04,0.57-0.12,0.84-0.23
		c0.16-0.07,0.33-0.11,0.5-0.11c0.47,0.07,0.88,0.34,1.13,0.75c0.33,0.4,0.59,0.84,0.79,1.31c0.18,0.39,0.29,0.8,0.31,1.23
		c0.01,0.32-0.12,0.63-0.35,0.85c-0.24,0.23-0.56,0.35-0.89,0.34c-0.28,0-0.56-0.08-0.79-0.23c-0.41-0.28-0.79-0.59-1.13-0.95
		c-0.34-0.41-0.82-0.69-1.35-0.79c-0.49,0.01-0.88,0.4-0.88,0.88c0,0.42,0.4,0.8,1.2,1.13c1.22,0.5,2.33,1.22,3.3,2.11
		c0.64,0.62,0.99,1.47,0.97,2.36c0.04,1.18-0.52,2.31-1.48,3c-0.95,0.7-2.1,1.07-3.28,1.03c-0.6-0.02-1.2-0.07-1.8-0.16l-1.39-0.15
		c-0.13-0.01-0.26-0.01-0.39,0c-0.18,0.01-0.36,0.01-0.53,0c-0.34,0.02-0.68-0.09-0.94-0.3c-0.42-0.42-0.76-0.92-0.97-1.48
		c-0.26-0.54-0.41-1.13-0.44-1.73c0-0.78,0.31-1.13,0.92-1.13c0.24,0,0.47,0.09,0.66,0.24c0.2,0.16,0.62,0.58,1.26,1.25
		c0.25,0.29,0.54,0.55,0.86,0.77c0.22,0.14,0.48,0.21,0.74,0.21c0.25,0.01,0.49-0.07,0.68-0.23c0.17-0.15,0.27-0.36,0.26-0.59
		c0-0.38-0.33-0.73-0.99-1.05c-1.12-0.49-2.12-1.19-2.97-2.07c-0.59-0.68-0.91-1.56-0.91-2.46c-0.02-0.95,0.31-1.88,0.93-2.61
		C278.34,255.11,279.66,254.57,281.02,254.64z"/>
	<path class="st2" d="M176.2,271.22c1.39-0.01,2.77,0.2,4.1,0.62c0.37,0.14,0.75,0.23,1.13,0.27c0.48-0.06,0.95-0.19,1.39-0.37
		c0.23-0.08,0.47-0.11,0.71-0.11c0.74,0.07,1.4,0.49,1.78,1.13c0.88,1.08,1.36,2.43,1.36,3.83c0.02,0.81-0.23,1.61-0.72,2.26
		c-0.46,0.57-1.17,0.89-1.9,0.87c-0.69-0.02-1.35-0.26-1.88-0.69c-0.5-0.49-0.96-1.01-1.38-1.56c-0.96-1.37-2.51-2.21-4.19-2.26
		c-1.32-0.04-2.58,0.54-3.4,1.57c-0.89,1.22-1.34,2.71-1.26,4.22c-0.09,2.42,0.62,4.8,2.02,6.78c0.49,0.66,1.11,1.21,1.82,1.61
		c0.63,0.38,1.36,0.58,2.1,0.6c0.53,0.02,1.05-0.19,1.43-0.56c0.37-0.4,0.57-0.92,0.55-1.47c0.05-0.43-0.13-0.85-0.46-1.13
		c-0.1-0.08-0.22-0.13-0.34-0.16c-0.11,0-0.43,0-0.95,0c-0.44,0.01-0.87-0.15-1.19-0.45c-0.31-0.29-0.48-0.7-0.48-1.13
		c0-0.91,0.61-1.56,1.82-1.95c1.5-0.44,3.06-0.65,4.62-0.62c1.59-0.04,3.18,0.16,4.71,0.58c1.2,0.37,1.8,1.05,1.8,2.03
		c0.01,0.39-0.14,0.76-0.42,1.03c-0.28,0.3-0.66,0.49-1.08,0.52c-0.27,0.01-0.53,0.1-0.75,0.26c-0.18,0.25-0.3,0.54-0.36,0.85
		c-0.45,1.71-1.42,3.25-2.77,4.39c-1,0.84-2.15,1.48-3.4,1.89c-1.36,0.46-2.8,0.68-4.24,0.68c-2.32,0.02-4.61-0.55-6.65-1.67
		c-2.03-1.07-3.68-2.73-4.74-4.75c-0.91-1.69-1.37-3.58-1.36-5.5c0.01-2,0.58-3.95,1.63-5.65c1.13-1.94,2.8-3.51,4.81-4.52
		C171.97,271.68,174.07,271.2,176.2,271.22z"/>
	<path class="st2" d="M199.82,277.77c1.74-0.06,3.45,0.45,4.88,1.45c0.65,0.44,1.16,1.06,1.48,1.77c0.32,0.88,0.46,1.82,0.42,2.76
		v2.46c-0.08,1.12,0.05,2.25,0.37,3.32c0.07,0.18,0.19,0.34,0.34,0.46c0.22,0.1,0.46,0.16,0.7,0.18c0.34,0.04,0.57,0.34,0.53,0.68
		c0,0,0,0.01,0,0.01c-0.03,0.61-0.26,1.19-0.65,1.66c-0.44,0.59-1,1.07-1.64,1.43c-0.79,0.47-1.69,0.72-2.6,0.72
		c-1.04,0.07-2.06-0.35-2.75-1.13c-0.14-0.23-0.38-0.39-0.65-0.43c-0.32,0.05-0.63,0.19-0.87,0.41c-1.09,0.8-2.41,1.22-3.76,1.21
		c-1.24,0.06-2.46-0.26-3.51-0.93c-0.59-0.41-1.07-0.95-1.39-1.59c-0.33-0.63-0.51-1.34-0.51-2.06c-0.02-1.18,0.47-2.3,1.35-3.09
		c1.44-1.39,3.6-2.09,6.49-2.1c0.41,0.05,0.83-0.02,1.21-0.19c0.16-0.12,0.24-0.41,0.24-0.88c0.05-0.86-0.07-1.72-0.36-2.53
		c-0.17-0.47-0.63-0.79-1.13-0.79c-0.32,0-0.63,0.1-0.88,0.29c-0.37,0.33-0.7,0.71-0.97,1.13c-0.99,1.4-2,2.1-3.08,2.1
		c-0.49,0.02-0.97-0.15-1.32-0.49c-0.34-0.33-0.53-0.78-0.51-1.25c0.02-0.58,0.25-1.14,0.63-1.58c0.48-0.57,1.07-1.04,1.73-1.39
		C195.51,278.34,197.64,277.78,199.82,277.77z M198.69,287.32c-0.49,0-0.95,0.22-1.27,0.6c-0.65,0.77-0.71,1.86-0.16,2.7
		c0.24,0.32,0.61,0.5,1.01,0.49c0.88,0,1.32-0.75,1.32-2.26c0.04-0.42-0.03-0.84-0.19-1.22c-0.16-0.21-0.42-0.33-0.69-0.3H198.69z"
		/>
	<path class="st2" d="M217.33,277.86c0.58,0,0.94,0.08,1.06,0.25c0.21,0.5,0.32,1.04,0.34,1.58c0,0.49,0.23,0.72,0.51,0.72
		s0.43-0.16,0.63-0.47c0.69-1.27,2.01-2.06,3.45-2.08c0.92-0.03,1.82,0.32,2.47,0.98c0.34,0.35,0.6,0.77,0.77,1.22
		c0.59,1.53,0.18,3.27-1.02,4.39c-0.7,0.66-1.63,1.03-2.59,1.01c-0.49,0.02-0.97-0.09-1.42-0.29c-0.55-0.33-1.06-0.74-1.51-1.21
		c-0.16-0.2-0.39-0.33-0.65-0.35c-0.3,0-0.56,0.22-0.6,0.52c-0.12,0.72-0.16,1.46-0.14,2.19c-0.03,1.13,0.03,2.27,0.18,3.39
		c0.03,0.26,0.14,0.5,0.32,0.69c0.26,0.19,0.57,0.32,0.88,0.38c1,0.3,1.49,0.81,1.49,1.56c-0.01,0.42-0.18,0.83-0.48,1.13
		c-0.35,0.35-0.79,0.59-1.28,0.68c-1.54,0.25-3.1,0.36-4.67,0.33c-1.5,0.06-3.01-0.11-4.46-0.51c-0.91-0.32-1.36-0.85-1.36-1.6
		c0.05-0.65,0.42-1.23,1-1.54c0.25-0.15,0.47-0.35,0.66-0.58c0.14-0.21,0.23-0.45,0.25-0.7c0.23-1.85,0.32-3.71,0.27-5.57
		c0.02-0.36-0.03-0.72-0.17-1.06c-0.14-0.25-0.38-0.44-0.66-0.52c-0.79-0.3-1.13-0.76-1.13-1.34c0.02-0.56,0.33-1.07,0.82-1.36
		c0.84-0.51,1.75-0.89,2.71-1.13C214.42,278.14,215.87,277.9,217.33,277.86z"/>
	<path class="st2" d="M246.75,273v15.09c-0.03,0.55,0.01,1.11,0.11,1.65c0.12,0.3,0.33,0.55,0.6,0.71c0.31,0.19,0.58,0.44,0.8,0.72
		c0.14,0.23,0.21,0.49,0.2,0.76c0,0.88-0.88,1.56-2.66,2.02c-1.57,0.4-3.18,0.61-4.8,0.61c-0.24,0.03-0.49-0.03-0.69-0.16
		c-0.14-0.23-0.21-0.49-0.2-0.76c-0.06-0.55-0.26-0.84-0.6-0.84c-0.33,0.07-0.64,0.25-0.87,0.5c-1.05,0.89-2.38,1.37-3.76,1.37
		c-1.73-0.01-3.39-0.69-4.62-1.9c-0.8-0.76-1.47-1.65-1.96-2.63c-1.43-2.65-1.31-5.86,0.31-8.4c0.76-1.31,1.89-2.38,3.24-3.07
		c1.04-0.57,2.21-0.88,3.4-0.89c1.19-0.02,2.36,0.28,3.4,0.86c0.12,0.08,0.26,0.12,0.4,0.14c0.35,0,0.53-0.47,0.53-1.42
		c0.02-0.34-0.08-0.67-0.29-0.94c-0.29-0.27-0.65-0.46-1.03-0.55c-0.69-0.21-1.04-0.6-1.04-1.13c0-0.8,0.8-1.43,2.4-1.89
		c1.84-0.58,3.74-0.95,5.66-1.13C246.27,271.65,246.75,272.1,246.75,273z M237.75,281.31c-0.74,0.02-1.4,0.46-1.7,1.13
		c-0.62,1.24-0.91,2.61-0.85,4c-0.08,1.19,0.21,2.37,0.82,3.39c0.35,0.53,0.94,0.84,1.57,0.82c0.73-0.03,1.35-0.54,1.53-1.24
		c0.39-1.3,0.56-2.66,0.49-4.02c0.11-1.16-0.09-2.33-0.58-3.39C238.75,281.58,238.27,281.32,237.75,281.31z"/>
	<path class="st2" d="M264.75,286.82h-7.78c-0.35,0-0.52,0.16-0.52,0.45c0.05,0.81,0.47,1.55,1.13,2.02c0.7,0.6,1.59,0.94,2.51,0.95
		c0.6-0.01,1.2-0.11,1.77-0.3c0.57-0.17,1.11-0.42,1.6-0.75c0.25-0.22,0.56-0.36,0.89-0.41c0.35,0.04,0.66,0.23,0.84,0.53
		c0.27,0.31,0.42,0.71,0.42,1.13c-0.11,0.95-0.67,1.78-1.49,2.26c-1.75,1.31-3.88,2-6.07,1.96c-3.22,0.16-6.23-1.56-7.72-4.4
		c-0.64-1.21-0.97-2.56-0.97-3.93c-0.01-1.81,0.58-3.56,1.69-4.99c0.96-1.27,2.24-2.26,3.71-2.86c1.16-0.48,2.4-0.72,3.66-0.71
		c1.94-0.05,3.83,0.58,5.35,1.78c0.73,0.58,1.33,1.3,1.79,2.11c0.49,0.82,0.76,1.75,0.78,2.71c0.03,0.62-0.13,1.23-0.45,1.76
		C265.65,286.55,265.22,286.81,264.75,286.82z M257.4,283.74h1.66c0.71,0,1.06-0.33,1.06-0.97c0.02-0.53-0.16-1.05-0.51-1.46
		c-0.35-0.37-0.84-0.58-1.35-0.56c-0.58-0.01-1.13,0.26-1.46,0.73c-0.31,0.39-0.48,0.87-0.49,1.37c-0.03,0.25,0.06,0.51,0.24,0.69
		C256.81,283.7,257.11,283.77,257.4,283.74z"/>
	<path class="st2" d="M287.53,283.88l0.23,5.8c0,0.34,0.07,0.68,0.22,0.98c0.3,0.43,0.64,0.83,1.01,1.2
		c0.18,0.21,0.27,0.47,0.25,0.75c0,0.73-0.43,1.23-1.3,1.52c-1.53,0.35-3.11,0.5-4.68,0.43c-1.09,0.06-2.18-0.08-3.23-0.4
		c-0.58-0.19-0.98-0.73-0.97-1.34c-0.01-0.17,0.02-0.34,0.1-0.49c0.2-0.27,0.42-0.52,0.66-0.77c0.44-0.46,0.67-2,0.67-4.62
		c0.06-1.15-0.12-2.31-0.53-3.39c-0.59-0.89-1.79-1.13-2.68-0.55c-0.16,0.11-0.31,0.24-0.43,0.39c-0.34,0.81-0.48,1.7-0.42,2.57
		v3.26c-0.02,0.45,0.02,0.9,0.12,1.34c0.23,0.49,0.51,0.96,0.83,1.4c0.12,0.2,0.19,0.44,0.18,0.68c0,0.65-0.45,1.13-1.36,1.43
		c-1.38,0.37-2.81,0.53-4.24,0.46c-3.07,0-4.61-0.63-4.61-1.9c-0.02-0.21,0.04-0.42,0.15-0.6c0.19-0.23,0.42-0.43,0.67-0.59
		c0.26-0.18,0.45-0.43,0.54-0.72c0.12-0.66,0.2-1.32,0.22-1.99c0.08-1.25,0.11-2.57,0.11-3.95c0.03-0.5-0.02-1.01-0.17-1.49
		c-0.26-0.37-0.61-0.66-1.01-0.87c-0.43-0.21-0.7-0.65-0.7-1.13c-0.02-0.45,0.2-0.88,0.58-1.13c0.75-0.45,1.55-0.8,2.38-1.06
		c1.06-0.37,2.08-0.69,3.07-0.95c0.66-0.2,1.33-0.33,2.02-0.4c0.32,0,0.62,0.13,0.84,0.36c0.22,0.23,0.34,0.54,0.34,0.86
		c0,0,0,0.18,0,0.42c0,0.08,0,0.15,0,0.23c0,0.53,0.23,0.8,0.67,0.8c0.26,0,0.54-0.21,0.84-0.63c0.94-1.31,2.49-2.06,4.11-1.96
		c1.28-0.02,2.54,0.38,3.58,1.13c0.65,0.46,1.15,1.1,1.45,1.83C287.34,281.8,287.51,282.84,287.53,283.88z"/>
	<path class="st2" d="M172.75,298.43c1.29,0.06,2.56,0.31,3.78,0.72c0.15,0.05,0.3,0.07,0.45,0.08c0.29-0.05,0.57-0.14,0.84-0.25
		c0.15-0.06,0.31-0.09,0.48-0.09c0.62,0,1.29,0.5,1.98,1.48c0.63,0.81,1,1.8,1.04,2.82c0.02,0.48-0.15,0.95-0.46,1.32
		c-0.28,0.34-0.69,0.54-1.13,0.54c-0.32,0.01-0.63-0.07-0.91-0.23c-0.55-0.41-1.06-0.85-1.55-1.32c-0.86-0.93-2.04-1.49-3.31-1.57
		c-0.45-0.02-0.89,0.11-1.25,0.37c-0.31,0.24-0.48,0.61-0.48,0.99c0,0.81,0.71,1.42,2.15,1.83c1.26,0.34,2.5,0.76,3.7,1.25
		c2.39,1.15,3.59,2.85,3.58,5.09c0.03,1.92-0.88,3.74-2.43,4.87c-1.89,1.36-4.19,2.04-6.52,1.93c-1.27-0.01-2.54-0.15-3.78-0.43
		c-1.01-0.17-1.98-0.51-2.87-1.01c-0.6-0.51-1.02-1.19-1.22-1.94c-0.34-0.94-0.52-1.93-0.53-2.92c-0.03-0.37,0.07-0.74,0.28-1.04
		c0.21-0.28,0.53-0.44,0.88-0.45c0.41,0.02,0.78,0.23,1.02,0.55c0.5,0.63,0.96,1.28,1.38,1.96c0.42,0.58,0.99,1.03,1.65,1.3
		c0.73,0.34,1.53,0.52,2.33,0.52c0.58,0.03,1.16-0.11,1.68-0.38c0.38-0.18,0.63-0.56,0.65-0.98c-0.01-0.38-0.19-0.74-0.5-0.97
		c-0.5-0.35-1.05-0.6-1.64-0.75c-1.04-0.3-2.07-0.68-3.06-1.13c-0.71-0.35-1.37-0.79-1.96-1.31c-1.38-1.07-2.21-2.7-2.26-4.45
		c0-0.83,0.2-1.65,0.58-2.39c0.39-0.78,0.94-1.48,1.63-2.02C168.59,299.09,170.65,298.38,172.75,298.43z"/>
	<path class="st2" d="M196.18,311.64h-6.59c-0.28,0-0.43,0.12-0.43,0.37c0.05,0.69,0.41,1.33,0.99,1.72
		c0.59,0.51,1.34,0.79,2.12,0.8c1.01-0.04,2-0.35,2.85-0.89c0.21-0.18,0.47-0.3,0.75-0.34c0.3,0.03,0.57,0.2,0.72,0.45
		c0.22,0.26,0.34,0.58,0.35,0.91c-0.09,0.81-0.56,1.53-1.27,1.94c-1.48,1.12-3.29,1.7-5.14,1.67c-1.8,0.05-3.56-0.55-4.94-1.71
		c-0.65-0.58-1.19-1.27-1.6-2.03c-0.54-1.02-0.82-2.16-0.83-3.32c-0.01-1.53,0.49-3.02,1.44-4.22c0.81-1.07,1.89-1.91,3.14-2.42
		c0.98-0.4,2.03-0.61,3.09-0.6c1.64-0.05,3.24,0.48,4.53,1.5c0.62,0.5,1.13,1.11,1.52,1.8c0.4,0.69,0.63,1.46,0.66,2.26
		c0.02,0.52-0.11,1.04-0.39,1.49C196.97,311.4,196.59,311.63,196.18,311.64z M189.95,309.02h1.42c0.6,0,0.89-0.27,0.89-0.82
		c0.02-0.45-0.13-0.88-0.43-1.22c-0.59-0.62-1.57-0.65-2.19-0.06c-0.06,0.06-0.12,0.12-0.17,0.19c-0.26,0.32-0.4,0.72-0.42,1.13
		c-0.02,0.22,0.05,0.43,0.2,0.59C189.46,308.97,189.71,309.04,189.95,309.02z"/>
	<path class="st2" d="M205.46,304.07c0.49,0,0.79,0.07,0.89,0.21c0.18,0.43,0.28,0.88,0.29,1.34c0,0.41,0.19,0.61,0.43,0.61
		s0.36-0.14,0.53-0.41c0.59-1.07,1.71-1.74,2.93-1.75c0.78-0.02,1.53,0.27,2.08,0.82c0.28,0.3,0.5,0.66,0.65,1.05
		c0.16,0.39,0.25,0.8,0.25,1.22c-0.01,0.46-0.11,0.92-0.31,1.34c-0.18,0.43-0.45,0.81-0.79,1.13c-0.59,0.57-1.39,0.87-2.21,0.86
		c-0.41,0.01-0.82-0.08-1.19-0.26c-0.47-0.28-0.9-0.62-1.27-1.02c-0.14-0.16-0.34-0.27-0.55-0.29c-0.26,0-0.48,0.19-0.51,0.44
		c-0.1,0.61-0.14,1.23-0.11,1.85c-0.03,0.96,0.02,1.93,0.15,2.88c0.03,0.21,0.13,0.41,0.27,0.58c0.23,0.16,0.49,0.27,0.76,0.33
		c0.84,0.26,1.26,0.69,1.26,1.32c0,0.37-0.14,0.73-0.41,0.99c-0.31,0.3-0.7,0.5-1.13,0.56c-1.31,0.22-2.63,0.32-3.95,0.28
		c-1.27,0.05-2.54-0.1-3.77-0.43c-0.75-0.26-1.13-0.72-1.13-1.36c0.05-0.54,0.38-1.02,0.87-1.26c0.21-0.13,0.4-0.29,0.55-0.49
		c0.11-0.18,0.19-0.39,0.22-0.6c0.19-1.56,0.27-3.14,0.23-4.71c0.02-0.31-0.03-0.62-0.15-0.9c-0.13-0.21-0.32-0.36-0.55-0.44
		c-0.67-0.26-1-0.63-1-1.13c0.03-0.47,0.28-0.89,0.68-1.13c0.7-0.43,1.47-0.75,2.26-0.96C202.94,304.36,204.19,304.13,205.46,304.07
		z"/>
	<path class="st2" d="M229.75,308.35l-3.62,7.05c-0.39,0.81-0.87,1.57-1.44,2.26c-0.31,0.38-0.77,0.61-1.26,0.63
		c-0.41,0.01-0.8-0.16-1.06-0.47c-0.59-0.66-1.09-1.38-1.51-2.16l-3.97-7.52c-0.15-0.33-0.36-0.63-0.62-0.89
		c-0.24-0.2-0.53-0.34-0.84-0.42c-0.7-0.2-1.06-0.59-1.06-1.13c0-0.54,0.44-0.98,1.32-1.24c1.36-0.31,2.76-0.45,4.16-0.4
		c1.18-0.04,2.36,0.07,3.51,0.34c0.76,0.24,1.13,0.59,1.13,1.06c-0.03,0.38-0.22,0.74-0.53,0.96c-0.16,0.14-0.31,0.29-0.44,0.46
		c-0.06,0.12-0.09,0.26-0.09,0.4c0.09,0.56,0.3,1.1,0.61,1.58c0.41,0.71,0.79,1.13,1.13,1.13c0.22,0,0.43-0.1,0.57-0.27
		c0.31-0.43,0.58-0.89,0.82-1.37c0.24-0.37,0.39-0.79,0.44-1.23c-0.05-0.31-0.21-0.59-0.45-0.79c-0.27-0.24-0.44-0.58-0.48-0.94
		c0-0.45,0.29-0.77,0.88-0.97c0.96-0.23,1.94-0.33,2.92-0.29c1.91,0,2.87,0.42,2.87,1.23c0,0.47-0.34,0.82-1.03,1.04
		c-0.41,0.09-0.8,0.28-1.13,0.54C230.24,307.37,229.96,307.85,229.75,308.35z"/>
	<path class="st2" d="M241.39,304.96v8.12c-0.03,0.48,0.04,0.96,0.18,1.41c0.15,0.34,0.39,0.62,0.7,0.82
		c0.22,0.14,0.42,0.32,0.59,0.52c0.1,0.17,0.15,0.36,0.15,0.55c0,1.21-1.53,1.81-4.53,1.81c-1.31,0.03-2.63-0.1-3.91-0.4
		c-0.31-0.08-0.58-0.25-0.79-0.49c-0.2-0.22-0.31-0.51-0.31-0.8c-0.01-0.2,0.04-0.41,0.16-0.58c0.23-0.26,0.49-0.49,0.78-0.68
		c0.32-0.27,0.55-0.64,0.62-1.05c0.14-0.71,0.2-1.43,0.18-2.16c0-0.32-0.02-0.89-0.07-1.73c0-0.85-0.07-1.33-0.09-1.48
		c-0.07-0.42-0.38-0.76-0.78-0.88c-0.51-0.15-0.86-0.6-0.87-1.13c0-0.59,0.37-1.03,1.13-1.31c1.11-0.42,2.24-0.76,3.4-1.02
		c0.91-0.24,1.84-0.39,2.77-0.43C241.1,304.08,241.39,304.37,241.39,304.96z M238.62,298.84c0.67-0.03,1.35,0.13,1.94,0.45
		c0.44,0.25,0.72,0.72,0.71,1.23c-0.01,0.72-0.42,1.38-1.08,1.71c-1.27,0.69-2.69,1.02-4.13,0.98c-0.57,0.03-1.13-0.1-1.63-0.38
		c-0.51-0.28-0.82-0.82-0.8-1.4c0-0.8,0.57-1.43,1.72-1.89c1.02-0.44,2.12-0.68,3.23-0.71L238.62,298.84z"/>
	<path class="st2" d="M252.23,303.99c1.56-0.03,3.09,0.4,4.41,1.24c1.09,0.59,1.78,1.71,1.81,2.95c0.03,0.75-0.28,1.47-0.85,1.96
		c-0.51,0.48-1.19,0.74-1.89,0.72c-0.69,0.04-1.35-0.28-1.74-0.85c-0.23-0.43-0.41-0.88-0.53-1.36c-0.16-0.67-0.76-1.14-1.45-1.13
		c-0.52,0-1,0.26-1.29,0.68c-0.36,0.47-0.55,1.05-0.53,1.65c0,1.11,0.43,2.18,1.21,2.97c0.63,0.69,1.53,1.07,2.47,1.05
		c0.38,0,0.76-0.03,1.13-0.11c0.43-0.13,0.84-0.29,1.25-0.49c0.13-0.07,0.28-0.1,0.43-0.1c0.34,0.01,0.65,0.18,0.84,0.45
		c0.25,0.29,0.37,0.67,0.36,1.05c-0.02,0.48-0.2,0.95-0.51,1.32c-0.38,0.48-0.84,0.89-1.36,1.21c-1.3,0.77-2.79,1.16-4.3,1.13
		c-1.79,0.04-3.54-0.55-4.93-1.68c-2.99-2.38-3.48-6.72-1.09-9.7c0.27-0.34,0.58-0.66,0.91-0.94
		C248.13,304.66,250.15,303.94,252.23,303.99z"/>
	<path class="st2" d="M272.76,311.64h-6.59c-0.28,0-0.43,0.12-0.43,0.37c0.05,0.69,0.41,1.33,0.99,1.72c0.6,0.5,1.35,0.79,2.13,0.8
		c0.51-0.01,1.01-0.1,1.49-0.26c0.48-0.14,0.93-0.35,1.35-0.63c0.21-0.18,0.48-0.3,0.76-0.34c0.3,0.03,0.56,0.2,0.71,0.45
		c0.22,0.25,0.35,0.58,0.35,0.91c-0.08,0.81-0.55,1.54-1.27,1.94c-1.48,1.12-3.29,1.7-5.14,1.67c-1.8,0.05-3.55-0.55-4.93-1.71
		c-1.54-1.36-2.42-3.31-2.42-5.35c-0.02-1.53,0.49-3.02,1.43-4.22c0.81-1.07,1.89-1.91,3.14-2.42c0.98-0.41,2.04-0.61,3.1-0.6
		c1.64-0.05,3.25,0.48,4.53,1.5c0.62,0.49,1.13,1.1,1.52,1.8c0.41,0.68,0.64,1.46,0.66,2.26c0.02,0.52-0.11,1.04-0.37,1.49
		C273.56,311.41,273.18,311.64,272.76,311.64z M266.54,309.02h1.42c0.59,0,0.89-0.27,0.89-0.82c0.02-0.45-0.14-0.89-0.44-1.22
		c-0.59-0.62-1.57-0.65-2.19-0.06c-0.06,0.06-0.12,0.12-0.17,0.19c-0.25,0.32-0.4,0.72-0.42,1.13c-0.02,0.22,0.05,0.43,0.2,0.59
		C266.04,308.97,266.29,309.04,266.54,309.02L266.54,309.02z"/>
	<path class="st2" d="M281.09,303.99c0.76,0.04,1.52,0.14,2.26,0.3c0.18,0.01,0.36,0.01,0.53,0c0.32-0.04,0.62-0.13,0.92-0.25
		c0.18-0.08,0.36-0.12,0.55-0.12c0.54,0.06,1.02,0.37,1.3,0.82c0.35,0.44,0.65,0.92,0.87,1.43c0.2,0.43,0.31,0.89,0.33,1.36
		c0.01,0.35-0.13,0.69-0.39,0.93c-0.27,0.25-0.62,0.38-0.99,0.37c-0.31,0.01-0.61-0.08-0.87-0.24c-0.45-0.31-0.86-0.66-1.25-1.05
		c-0.37-0.46-0.9-0.76-1.48-0.86c-0.53,0-0.96,0.43-0.96,0.96v0c0,0.45,0.43,0.88,1.31,1.29c1.34,0.55,2.56,1.33,3.62,2.31
		c0.7,0.68,1.08,1.62,1.06,2.6c0,1.3-0.64,2.51-1.71,3.24c-1.04,0.78-2.31,1.17-3.6,1.13c-0.36,0-1.02-0.07-1.98-0.18
		c-0.96-0.11-1.42-0.16-1.53-0.16c-0.14-0.01-0.28-0.01-0.42,0h-0.59c-0.38,0.02-0.75-0.1-1.04-0.34c-0.9-0.97-1.44-2.22-1.55-3.53
		c0-0.86,0.33-1.29,1.01-1.29c0.26,0,0.52,0.09,0.72,0.26c0.48,0.43,0.95,0.89,1.38,1.38c0.28,0.32,0.6,0.61,0.95,0.85
		c0.24,0.15,0.52,0.22,0.8,0.23c0.27,0.02,0.54-0.07,0.75-0.25c0.19-0.16,0.29-0.4,0.28-0.64c0-0.41-0.38-0.79-1.13-1.13
		c-1.22-0.53-2.33-1.3-3.25-2.26c-0.66-0.75-1.01-1.71-1.01-2.71c-0.03-1.05,0.34-2.07,1.03-2.87
		C278.08,304.44,279.57,303.86,281.09,303.99z"/>
</g>
<g>
	<path class="st1" d="M134.45,98.44c-2.85-1.97-6.21-3.06-9.68-3.13c-4.52-0.08-10.16,1.61-16.04,7.51c-11.78,11.78,0,45.63,0,45.63
		H93.2c-0.63-10.14-0.45-20.32,0.54-30.43c-1.77-4.27-5.48-11.96-10.25-15.2c-16.94,1.71-19.78-8.25-19.78-8.25
		c5.22,7.28,16.45,5.83,16.45,5.83c-12.85-10.54-9.53-23.06-9.53-23.06S70.38,90.2,83.05,99.42c6.55,4.79,9.89,8.79,11.6,11.53
		c0.34-2.35,0.73-4.71,1.21-7.07l0,0c0,0,0.5-17.32-4.83-28.98c-0.21-0.46-0.43-0.94-0.63-1.42c-13.11-0.3-13.55-8.65-13.55-8.65
		c3.5,6.23,10.05,6.21,12.5,5.96c-4.13-11.11-5.87-24.46-4.37-27.69c0,0,1.71,19.42,7.9,27.91c4.25,5.88,6.27,13.63,7.1,17.83
		c0.32-0.86,0.64-1.71,0.99-2.54c5.25-12.66,5.65-26.38,4.65-37.05C95.25,44.55,92.84,36.1,92.84,36.1c2.7,4.79,7.15,8.34,12.42,9.9
		c-0.61-5.23-1.64-10.41-3.09-15.47c2.68,4.74,4.87,9.74,6.55,14.92l0,0c0.12,0.38,0.25,0.77,0.36,1.13
		c1.03,3.35,1.81,6.76,2.35,10.22c0.76,4.79,1.04,9.64,0.84,14.49c0.85-0.18,1.67-0.44,2.47-0.77c3.75-1.56,9.56-5.47,16.33-15.22
		c-1.3,3.45-3.02,6.72-5.13,9.75l0,0c-3.11,4.52-7.71,9.35-14.07,11.76c-0.72,6.98-2.58,13.8-5.52,20.18l0,0l0.07-0.09l0.36-0.51
		l0,0c1.19-1.56,4.95-5.56,13.13-8.6c10.28-3.82,17.02-14.47,17.22-14.79c-0.88,3.11-2.49,5.98-4.69,8.36
		C126.35,88.28,117,92.63,117,92.63C129.22,92.39,134.16,98.09,134.45,98.44z"/>
	<path class="st2" d="M99.64,26.48c0,0-5.83-2.91-2.55-10.16C97.09,16.29,103.44,19.38,99.64,26.48z"/>
	<path class="st2" d="M85.79,27.92c0,0-6.5-0.28-6.49-8.27C79.3,19.65,86.38,19.87,85.79,27.92z"/>
	<path class="st2" d="M69.75,49.38c0,0-7.11,4.87-12.08-3.48C57.66,45.9,65.36,40.51,69.75,49.38z"/>
	<path class="st2" d="M62.11,66.15c0,0-7.11,4.87-12.07-3.48C50.04,62.67,57.73,57.29,62.11,66.15z"/>
	<path class="st2" d="M56.21,77.97c0,0,0,5.65-6.38,5.31C49.83,83.28,49.75,77.08,56.21,77.97z"/>
	<path class="st2" d="M67.6,100.08c0,0-1.37,6.41-8.48,4.43C59.12,104.51,60.53,97.5,67.6,100.08z"/>
	<path class="st2" d="M143.41,60.76c0,0-5,7.01-12.53,0.89C130.87,61.65,136.19,53.95,143.41,60.76z"/>
	<path class="st2" d="M121.43,36.79c0,0-1.26,8.53-10.75,6.5C110.68,43.29,111.95,33.98,121.43,36.79z"/>
	<path class="st2" d="M125.14,58.51c0,0-1.26,8.53-10.75,6.5C114.39,65.02,115.65,55.71,125.14,58.51z"/>
	<path class="st2" d="M72.89,45.13c0,0-6.5-0.37-6.38-8.36C66.51,36.73,73.58,37.05,72.89,45.13z"/>
	<path class="st2" d="M62.57,92.48c0,0-6.3,1.66-8.65-5.97C53.92,86.51,60.75,84.65,62.57,92.48z"/>
	<path class="st2" d="M135.84,48.68c0,0-1.77-6.28,5.83-8.75C141.67,39.92,143.67,46.72,135.84,48.68z"/>
	<path class="st2" d="M136.73,37.76c0,0-2.98-5.79,3.97-9.72C140.71,28.03,144.02,34.29,136.73,37.76z"/>
	<path class="st2" d="M132.6,40.33c0,0-6.11-2.26-3.66-9.85C128.94,30.45,135.62,32.86,132.6,40.33z"/>
	<path class="st2" d="M150.79,72.6c0,0-0.23-6.52,7.74-7.11C158.53,65.46,158.86,72.57,150.79,72.6z"/>
	<path class="st2" d="M144.02,45.13c0,0-0.24-6.52,7.74-7.11C151.75,37.97,152.08,45.04,144.02,45.13z"/>
	<path class="st2" d="M145.12,65.21c0,0,1.13-6.01,8.54-4.96C153.66,60.25,152.53,66.81,145.12,65.21z"/>
	<path class="st2" d="M149.39,80.35c0,0,1.13-6.01,8.54-4.96C157.93,75.39,156.8,81.95,149.39,80.35z"/>
	<path class="st2" d="M74.67,62.75c0,0-6.12,0.08-6.53-7.41C68.14,55.29,74.8,55.17,74.67,62.75z"/>
	<path class="st2" d="M69.68,76.5c0,0-5.76,2.06-8.57-4.9C61.11,71.6,67.31,69.3,69.68,76.5z"/>
	<path class="st2" d="M85.94,40.18c0,0-5.48-2.73-2.39-9.58C83.55,30.61,89.53,33.52,85.94,40.18z"/>
	<path class="st2" d="M82.89,46.79c0,0-6.11-0.34-6-7.84C76.9,38.95,83.54,39.24,82.89,46.79z"/>
	<path class="st2" d="M145.76,98.01c0,0,5.19-3.93,10.28,2.26C156.03,100.25,150.43,104.58,145.76,98.01z"/>
	<path class="st2" d="M124.9,106.71c0,0,6.27,1.77,4.4,9.54C129.27,116.27,122.43,114.4,124.9,106.71z"/>
	<path class="st2" d="M137.94,100.93c0,0,7.22-1.93,9.94,6.78C147.88,107.74,140.05,109.93,137.94,100.93z"/>
	<path class="st2" d="M64.01,112.35c0,0-0.79-7.42,8.27-8.77C72.28,103.58,73.24,111.65,64.01,112.35z"/>
	<path class="st2" d="M56.08,51.54c0,0,8.27-0.71,9.55,9.38C65.64,60.94,56.66,61.81,56.08,51.54z"/>
	<path class="st2" d="M120.72,20.4c0,0,6.37,1.36,5.04,9.23C125.76,29.63,118.81,28.19,120.72,20.4z"/>
	<path class="st2" d="M106.83,14.77c0,0,3.39,5.65-3.39,9.96C103.44,24.73,99.72,18.67,106.83,14.77z"/>
	<path class="st2" d="M110.92,22.4c0,0,1.23,6.39-6.55,8.22C104.37,30.62,102.96,23.67,110.92,22.4z"/>
	<path class="st2" d="M89.46,42.47c0,0,6.12-2.26,9.15,5.17C98.61,47.64,91.98,50.13,89.46,42.47z"/>
	<path class="st2" d="M88.5,57.06c0,0-1.19-6.41,6.61-8.18C95.11,48.88,96.48,55.82,88.5,57.06z"/>
	<path class="st2" d="M74.15,47.65c0,0,6.34-1.5,8.5,6.19C82.66,53.84,75.78,55.55,74.15,47.65z"/>
	<path class="st2" d="M79.79,74.75c0,0,7.79-3.15,12.04,6.23C91.82,80.98,83.39,84.51,79.79,74.75z"/>
	<path class="st2" d="M48.72,69.04c0,0,5.38-0.58,6.36,5.98C55.08,75.02,49.24,75.72,48.72,69.04z"/>
	<path class="st3" d="M108.37,33.94c0,0,1.28-7.83,12.03-5.65C120.38,28.3,117.84,36.1,108.37,33.94z"/>
	<path class="st3" d="M114.74,53.04c0,0-0.89-7.9,10.04-8.68C124.79,44.33,124.45,52.56,114.74,53.04z"/>
	<path class="st3" d="M138.78,73.63c0,0,1.28-7.83,12.02-5.65C150.79,67.99,148.24,75.82,138.78,73.63z"/>
	<path class="st3" d="M135.86,96.39c0,0,1.28-7.83,12.02-5.65C147.88,90.75,145.33,98.58,135.86,96.39z"/>
	<path class="st3" d="M135.86,54.7c0,0,1.28-7.83,12.02-5.65C147.88,49.06,145.33,56.89,135.86,54.7z"/>
	<path class="st3" d="M76.84,58.04c0,0,7.83-1.31,9.2,9.56C86.04,67.6,77.81,67.72,76.84,58.04z"/>
	<path class="st3" d="M63.5,65.14c0,0,6.57-4.44,12.35,4.83C75.86,69.97,68.44,73.53,63.5,65.14z"/>
	<path class="st3" d="M58.27,79.7c0,0,5.52-3.73,10.37,4.09C68.69,83.78,62.44,86.73,58.27,79.7z"/>
	<path class="st3" d="M75.21,88.97c0,0-3.15-5.86,5.12-9.9C80.37,79.06,82.68,85.58,75.21,88.97z"/>
	<path class="st3" d="M120.94,112.6c0,0-7.26,2.1-9.77-8.03C111.17,104.57,118.95,103.57,120.94,112.6z"/>
	<path class="st3" d="M129.22,105.6c0,0-7.26,2.1-9.77-8.04C119.46,97.56,127.24,96.56,129.22,105.6z"/>
	<path class="st3" d="M146.76,78.73c0,0-3.09,6.89-12.42,2.26C134.32,80.98,138.57,74.39,146.76,78.73z"/>
	<path class="st3" d="M138.38,86.91c0,0-3.08,6.9-12.42,2.26C125.94,89.17,130.21,82.59,138.38,86.91z"/>
	<path class="st3" d="M159.5,88.59c0,0-6.37,4.11-11.68-4.88C147.82,83.72,154.98,80.51,159.5,88.59z"/>
	<path class="st3" d="M138.87,111.13c0,0-7.41,1.52-9.1-8.79C129.77,102.35,137.6,101.97,138.87,111.13z"/>
	<path class="st3" d="M135.39,68.66c0,0-2.78,7.02-12.33,2.8C123.06,71.46,127.02,64.7,135.39,68.66z"/>
	<path class="st3" d="M121.05,80.14c0,0,0.45,7.54-9.99,7.76C111.06,87.89,111.79,80.14,121.05,80.14z"/>
	<path class="st3" d="M130.73,53.04c0,0-6.9-3.11-2.26-12.42C128.48,40.61,135.06,44.84,130.73,53.04z"/>
	<path class="st3" d="M95.82,51.48c0,0,7.83-1.3,9.2,9.58C105.03,61.05,96.79,61.15,95.82,51.48z"/>
	<path class="st3" d="M93.87,62.85c0,0,7.83-1.31,9.2,9.56C103.07,72.41,94.84,72.51,93.87,62.85z"/>
	<path class="st3" d="M89.26,21.42c0,0,7.33,3.03,2.76,12.99C92.02,34.44,84.97,30.17,89.26,21.42z"/>
	<path class="st3" d="M96.99,31.58c0,0,5.51,1.43,3.23,8.97C100.21,40.61,94.78,38.21,96.99,31.58z"/>
	<path class="st3" d="M82.66,84.94c0,0,7.44-2.73,10.81,7.7C93.46,92.64,85.38,94.25,82.66,84.94z"/>
	<path class="st3" d="M63.71,88.04c0,0,7.83-1.31,9.2,9.56C72.95,97.57,64.68,97.67,63.71,88.04z"/>
	<path class="st3" d="M72.18,28.86c0,0,6.64-1.13,7.81,8.12C79.99,36.98,72.95,37.06,72.18,28.86z"/>
	<path class="st4" d="M108.74,102.82c-11.78,11.78,0,45.63,0,45.63h-7.9c0,0-8.44-55.45,23.94-53.14
		C120.22,95.23,114.64,96.93,108.74,102.82z"/>
	<path class="st4" d="M106.35,96.93c0.07-0.09,0.2-0.3,0.43-0.6L106.35,96.93z"/>
	<path class="st4" d="M125.93,65.02c-3.11,4.52-7.71,9.35-14.07,11.76c-0.72,6.98-2.58,13.8-5.52,20.18l0,0l-1.42,1.28
		c-0.23,0.2-0.58,0.17-0.78-0.06c-0.13-0.15-0.17-0.36-0.1-0.55c2.59-6.57,10.37-32.64,5.65-48.98l1.74,8.13
		c0.76,4.79,1.04,9.64,0.84,14.49c0.85-0.17,1.68-0.42,2.48-0.75c-0.34,0.59-0.52,1.27-0.5,1.95c0.04,0.45,0.44,0.78,0.88,0.73
		c0.14-0.01,0.27-0.06,0.38-0.14C119.23,70.72,122.72,68.03,125.93,65.02z"/>
	<path class="st4" d="M114.24,93.53l0.21-0.19C114.38,93.4,114.31,93.46,114.24,93.53z"/>
	<path class="st4" d="M132.44,81.32L132.44,81.32C126.35,88.27,117,92.61,117,92.61c-0.31-0.04-0.62-0.04-0.93,0
		c-0.13,0.03-0.27-0.05-0.3-0.18c-0.03-0.1,0.02-0.21,0.11-0.27c2.05-1.59,4.34-2.86,6.78-3.77
		C127.16,86.91,132.44,81.32,132.44,81.32z"/>
	<path class="st5" d="M141.34,133.76l-2.55,10.6c-0.79,3.26-4.06,5.26-7.32,4.48s-5.26-4.06-4.48-7.32l0,0l2.55-10.57L141.34,133.76
		z"/>
	<path class="st6" d="M141.34,133.76l-2.55,10.6c-0.81,3.25-4.1,5.23-7.35,4.42c-1.23-0.31-2.33-0.99-3.15-1.95
		c2.61-2.63,4.61-5.79,5.86-9.27l0.17-0.5c0.14-0.45,0.27-0.9,0.38-1.38l1.25-5.21l0.91,0.24l-0.44,1.85L141.34,133.76z"/>
	
		<rect x="127.1" y="114.15" transform="matrix(0.2341 -0.9722 0.9722 0.2341 -5 223.862)" class="st7" width="24.98" height="1.91"/>
	
		<rect x="142.14" y="98.67" transform="matrix(0.2341 -0.9722 0.9722 0.2341 9.5833 217.1584)" class="st8" width="0.96" height="7.64"/>
	
		<rect x="142.52" y="96.12" transform="matrix(0.2341 -0.9722 0.9722 0.2341 12.5358 215.8005)" class="st8" width="1.43" height="7.64"/>
	
		<rect x="144.29" y="101.41" transform="matrix(0.2341 -0.9722 0.9722 0.2341 12.9233 220.1772)" class="st9" width="3.83" height="0.96"/>
	
		<rect x="137.79" y="99.83" transform="matrix(0.2341 -0.9722 0.9722 0.2341 9.4698 212.6491)" class="st9" width="3.83" height="0.96"/>
	<path class="st10" d="M136.88,132.68l-0.91,3.82c-0.17,0.8-0.96,1.31-1.76,1.14c-0.01,0-0.02,0-0.03-0.01h-0.09
		c-0.75-0.22-1.19-0.99-0.99-1.75l0.91-3.82L136.88,132.68z"/>
	<path class="st11" d="M136.37,132.57l-0.91,3.81c-0.12,0.5-0.62,0.82-1.13,0.71l0,0c-0.48-0.14-0.78-0.64-0.67-1.13l2.15-8.91
		l1.86,0.44l-0.79,3.25L136.37,132.57z"/>
	<path class="st1" d="M75.86,149.65h212.18l0,0l0,0c0,8.15-6.6,14.75-14.75,14.75H90.6C82.46,164.4,75.86,157.8,75.86,149.65
		L75.86,149.65L75.86,149.65z"/>
	<rect x="75.86" y="145.47" class="st12" width="212.2" height="4.19"/>
	<path class="st12" d="M115.87,146.41c0,0,0-8.06,4.52-11.57c-1.98,3.53-3.01,7.52-2.98,11.57H115.87z"/>
	<path class="st12" d="M117.46,146.17c0,0,0.68-3.97,3.18-5.33c-1.27,1.58-2.11,3.46-2.44,5.47L117.46,146.17z"/>
	<path class="st12" d="M115.58,145.95c0,0-0.85-4.83-3.85-6.45c1.56,1.9,2.6,4.18,3,6.61L115.58,145.95z"/>
	<path class="st0" d="M177.59,84.65l-1.52,3.39c-0.17,0.4-0.38,0.78-0.63,1.13c-0.12,0.18-0.32,0.29-0.54,0.29
		c-0.19,0-0.37-0.09-0.49-0.24c-0.25-0.35-0.47-0.73-0.64-1.13c-0.34-0.64-0.62-1.22-0.84-1.72l-1.67-3.77
		c-0.24-0.52-0.47-0.79-0.73-0.79c-0.26,0-0.42,0.23-0.44,0.68c-0.06,0.99-0.09,1.92-0.09,2.77c-0.02,0.6,0.02,1.2,0.12,1.8
		c0.05,0.15,0.13,0.29,0.24,0.41c0.25,0.17,0.52,0.32,0.8,0.45c0.28,0.15,0.44,0.44,0.42,0.76c0,0.95-1.22,1.42-3.65,1.42
		c-2.06,0-3.07-0.46-3.07-1.39c-0.02-0.19,0.04-0.37,0.16-0.52c0.25-0.19,0.52-0.35,0.81-0.47c0.25-0.09,0.45-0.28,0.56-0.52
		c0.14-0.41,0.22-0.84,0.25-1.28c0.08-0.68,0.15-1.8,0.21-3.39s0.1-2.87,0.1-3.96c0.06-0.95-0.05-1.9-0.32-2.81
		c-0.06-0.14-0.15-0.28-0.26-0.38c-0.17-0.13-0.36-0.24-0.55-0.33c-0.6-0.28-0.9-0.65-0.9-1.13c0-0.3,0.13-0.6,0.34-0.81
		c0.24-0.26,0.55-0.44,0.89-0.52c0.49-0.13,0.99-0.23,1.5-0.28c0.52-0.07,1.05-0.12,1.58-0.12c0.76-0.04,1.53,0.05,2.26,0.27
		c0.2,0.06,0.38,0.18,0.52,0.34c0.22,0.28,0.4,0.58,0.55,0.89l2.64,4.87c0.16,0.34,0.36,0.67,0.6,0.97
		c0.11,0.13,0.28,0.19,0.45,0.18c0.17,0,0.33-0.07,0.45-0.19c0.19-0.21,0.35-0.45,0.46-0.71l1.8-3.49c0.21-0.45,0.36-0.75,0.43-0.88
		c0.27-0.65,0.69-1.23,1.23-1.69c0.87-0.44,1.85-0.63,2.82-0.54c2.39,0,3.59,0.54,3.59,1.64c0.01,0.2-0.04,0.41-0.14,0.59
		c-0.15,0.22-0.35,0.4-0.58,0.54c-0.4,0.32-0.66,0.78-0.73,1.29c-0.21,1.41-0.31,2.84-0.29,4.27c-0.01,1.89,0.09,3.77,0.3,5.65
		c0.02,0.28,0.1,0.56,0.24,0.81c0.23,0.26,0.51,0.47,0.81,0.64c0.29,0.17,0.46,0.48,0.46,0.81c0,0.6-0.38,1.02-1.13,1.25
		c-0.41,0.14-0.84,0.23-1.28,0.27c-0.45,0-1.13,0.07-2.08,0.07c-1.07,0.04-2.15-0.07-3.2-0.3c-0.78-0.24-1.13-0.62-1.13-1.13
		c-0.01-0.18,0.05-0.35,0.16-0.5c0.24-0.27,0.5-0.51,0.79-0.72c0.26-0.28,0.42-0.64,0.45-1.03c0.09-0.86,0.13-1.72,0.11-2.59
		c0.02-0.45-0.01-0.89-0.09-1.33c-0.04-0.19-0.21-0.33-0.41-0.33c-0.24,0-0.46,0.17-0.68,0.5
		C178.24,83.25,177.89,83.94,177.59,84.65z"/>
	<path class="st0" d="M195.05,78.12v7.39c-0.02,0.44,0.03,0.87,0.16,1.29c0.13,0.31,0.35,0.56,0.63,0.75
		c0.21,0.12,0.39,0.28,0.53,0.47c0.1,0.15,0.14,0.33,0.14,0.51c0,1.13-1.39,1.64-4.16,1.64c-1.19,0.03-2.38-0.09-3.55-0.36
		c-0.28-0.07-0.52-0.23-0.71-0.44c-0.18-0.2-0.28-0.46-0.28-0.72c-0.01-0.19,0.04-0.38,0.15-0.54c0.21-0.23,0.45-0.44,0.71-0.61
		c0.29-0.24,0.49-0.58,0.55-0.95c0.13-0.65,0.19-1.31,0.17-1.96c0-0.28,0-0.8-0.06-1.57c-0.06-0.77-0.07-1.22-0.08-1.34
		c-0.09-0.37-0.35-0.67-0.71-0.8c-0.45-0.14-0.76-0.55-0.79-1.02c0-0.53,0.34-0.93,1.03-1.2c1-0.37,2.01-0.68,3.05-0.93
		c0.82-0.21,1.67-0.34,2.52-0.37C194.81,77.34,195.05,77.6,195.05,78.12z M192.53,72.56c0.61-0.03,1.22,0.11,1.75,0.41
		c0.4,0.23,0.65,0.66,0.64,1.13c0,0.66-0.38,1.26-0.97,1.55c-1.15,0.63-2.44,0.94-3.75,0.9c-0.52,0.02-1.03-0.1-1.48-0.36
		c-0.46-0.25-0.74-0.74-0.73-1.26c0-0.73,0.52-1.3,1.57-1.72C190.5,72.8,191.51,72.58,192.53,72.56z"/>
	<path class="st0" d="M212.66,81.93l0.18,4.52c-0.01,0.26,0.05,0.51,0.16,0.75c0.23,0.33,0.49,0.64,0.78,0.93
		c0.13,0.16,0.2,0.37,0.19,0.58c0,0.55-0.34,0.95-1.01,1.13c-1.17,0.28-2.38,0.4-3.58,0.34c-0.84,0.05-1.68-0.06-2.48-0.3
		c-0.44-0.16-0.73-0.56-0.75-1.03c-0.01-0.13,0.01-0.27,0.08-0.38c0.16-0.21,0.33-0.4,0.51-0.59c0.34-0.35,0.51-1.54,0.51-3.56
		c0.05-0.88-0.09-1.76-0.41-2.59c-0.45-0.69-1.37-0.88-2.06-0.43c-0.12,0.08-0.24,0.18-0.33,0.29c-0.26,0.63-0.37,1.31-0.32,1.99
		v2.52c-0.01,0.34,0.02,0.69,0.09,1.03c0.18,0.39,0.39,0.77,0.63,1.13c0.09,0.16,0.14,0.34,0.14,0.52c0,0.51-0.34,0.87-1.04,1.13
		c-1.06,0.29-2.16,0.41-3.25,0.36c-2.35,0-3.52-0.49-3.52-1.47c-0.01-0.16,0.03-0.32,0.1-0.46c0.15-0.17,0.33-0.32,0.52-0.45
		c0.2-0.13,0.35-0.33,0.42-0.55c0.09-0.5,0.15-1.01,0.16-1.52c0.07-0.97,0.09-1.98,0.09-3.04c0.03-0.38-0.02-0.76-0.14-1.13
		c-0.19-0.29-0.46-0.52-0.77-0.67c-0.32-0.16-0.53-0.48-0.54-0.84c0-0.33,0.16-0.65,0.44-0.84c0.58-0.34,1.19-0.61,1.83-0.81
		c0.81-0.29,1.6-0.53,2.36-0.73c0.5-0.16,1.02-0.25,1.55-0.29c0.24,0,0.48,0.1,0.64,0.27c0.17,0.18,0.26,0.42,0.26,0.67
		c0,0,0,0.12,0,0.32s0,0.12,0,0.18c0,0.41,0.17,0.61,0.51,0.61c0.2,0,0.42-0.17,0.65-0.49c0.69-1.1,1.9-1.74,3.2-1.69
		c0.98-0.02,1.95,0.27,2.74,0.85c0.5,0.35,0.89,0.84,1.13,1.4C212.56,80.33,212.68,81.13,212.66,81.93z"/>
	<path class="st0" d="M221.77,78.12v7.39c-0.02,0.43,0.03,0.87,0.16,1.29c0.14,0.3,0.36,0.56,0.64,0.75
		c0.22,0.13,0.42,0.3,0.58,0.51c0.1,0.15,0.14,0.33,0.14,0.51c0,1.13-1.39,1.64-4.16,1.64c-1.19,0.03-2.38-0.09-3.55-0.36
		c-0.28-0.08-0.53-0.23-0.72-0.44c-0.17-0.2-0.27-0.46-0.27-0.72c-0.01-0.19,0.04-0.38,0.15-0.54c0.21-0.23,0.45-0.44,0.71-0.61
		c0.29-0.24,0.48-0.58,0.55-0.95c0.13-0.65,0.19-1.31,0.17-1.96c0-0.28,0-0.8-0.06-1.57c-0.06-0.77-0.07-1.22-0.09-1.34
		c-0.07-0.38-0.34-0.69-0.71-0.8c-0.45-0.14-0.76-0.55-0.78-1.02c0-0.53,0.34-0.93,1.03-1.2c1-0.37,2.01-0.68,3.05-0.93
		c0.82-0.21,1.67-0.34,2.52-0.37C221.54,77.34,221.77,77.6,221.77,78.12z M219.26,72.56c0.61-0.03,1.22,0.11,1.75,0.41
		c0.4,0.23,0.65,0.66,0.64,1.13c-0.01,0.66-0.38,1.25-0.97,1.55c-1.15,0.63-2.44,0.94-3.75,0.9c-0.52,0.02-1.03-0.1-1.48-0.36
		c-0.46-0.25-0.74-0.74-0.73-1.26c0-0.73,0.52-1.3,1.56-1.72C217.22,72.8,218.23,72.58,219.26,72.56z"/>
	<path class="st0" d="M235.84,89.89h-0.91c-0.54,0-1.13,0-1.8,0.08c-0.42,0-0.7,0-0.86,0c-0.49,0.02-0.98-0.12-1.39-0.4
		c-0.34-0.23-0.54-0.62-0.53-1.03c-0.01-0.25,0.07-0.5,0.24-0.69c0.21-0.2,0.48-0.34,0.77-0.4c0.27-0.04,0.52-0.2,0.68-0.42
		c0.17-0.35,0.26-0.74,0.28-1.13c0.07-0.64,0.14-1.87,0.18-3.72s0.09-3.66,0.09-5.48c0.03-0.48-0.02-0.96-0.17-1.42
		c-0.17-0.29-0.45-0.49-0.78-0.56c-0.52-0.12-0.88-0.59-0.87-1.13c0.01-0.41,0.24-0.78,0.6-0.97c0.52-0.26,1.1-0.38,1.68-0.35h0.85
		h1.55c1.21,0,2.57,0,4.1-0.11c0.33,0,0.72,0,1.21,0c1.56-0.06,3.12,0.16,4.6,0.65c1.63,0.63,2.98,1.84,3.79,3.39
		c0.78,1.51,1.17,3.2,1.13,4.9c-0.01,0.97-0.15,1.94-0.42,2.88c-0.25,0.89-0.63,1.73-1.13,2.5c-0.99,1.42-2.42,2.47-4.07,3
		c-1.05,0.33-2.15,0.5-3.25,0.5h-1.54h-1.32C237.52,89.92,236.62,89.89,235.84,89.89z M238.5,76.13v9.82
		c-0.04,0.41,0.08,0.81,0.34,1.13c0.32,0.25,0.72,0.37,1.13,0.34c2.48,0,3.71-1.88,3.7-5.65c0.08-1.65-0.21-3.3-0.86-4.82
		c-0.6-1.22-1.87-1.97-3.23-1.9c-0.31-0.04-0.62,0.05-0.86,0.25C238.55,75.54,238.47,75.83,238.5,76.13z"/>
	<path class="st0" d="M258.42,78.12v7.39c-0.02,0.43,0.03,0.87,0.16,1.29c0.13,0.31,0.36,0.57,0.64,0.75
		c0.2,0.12,0.38,0.28,0.52,0.47c0.1,0.15,0.14,0.33,0.14,0.51c0,1.13-1.38,1.64-4.16,1.64c-1.19,0.03-2.38-0.09-3.53-0.36
		c-0.28-0.07-0.53-0.22-0.72-0.44c-0.17-0.2-0.27-0.46-0.27-0.72c-0.01-0.21,0.06-0.42,0.18-0.59c0.21-0.23,0.45-0.44,0.71-0.61
		c0.29-0.24,0.49-0.58,0.56-0.95c0.12-0.65,0.17-1.31,0.16-1.96c0-0.28,0-0.8,0-1.57s-0.07-1.22-0.08-1.34
		c-0.09-0.37-0.35-0.67-0.71-0.8c-0.45-0.14-0.76-0.55-0.79-1.02c0-0.53,0.35-0.93,1.03-1.2c1-0.37,2.01-0.68,3.05-0.93
		c0.82-0.21,1.67-0.34,2.52-0.37C258.15,77.34,258.42,77.6,258.42,78.12z M255.89,72.56c0.61-0.03,1.22,0.11,1.75,0.41
		c0.41,0.23,0.66,0.66,0.65,1.13c-0.01,0.66-0.39,1.26-0.98,1.55c-1.15,0.63-2.44,0.94-3.75,0.9c-0.51,0.02-1.02-0.1-1.47-0.36
		c-0.46-0.25-0.75-0.74-0.73-1.26c0-0.73,0.52-1.3,1.56-1.72C253.86,72.8,254.87,72.58,255.89,72.56z"/>
	<path class="st0" d="M274.13,76.56c0.24,0.01,0.45,0.15,0.56,0.36c0.16,0.25,0.25,0.55,0.24,0.85c-0.02,0.4-0.13,0.78-0.32,1.13
		c-0.19,0.4-0.46,0.76-0.79,1.06c-0.19,0.17-0.28,0.3-0.28,0.41c-0.01,0.1-0.01,0.2,0,0.3c0.01,0.16,0.01,0.32,0,0.49
		c0.02,0.95-0.34,1.87-1.02,2.54c-0.67,0.65-1.48,1.13-2.36,1.42c-1.02,0.35-2.09,0.52-3.16,0.51c-0.28,0-0.55-0.02-0.82-0.06h-0.51
		c-0.33-0.05-0.63,0.18-0.68,0.51c-0.01,0.05-0.01,0.1,0,0.16c0,0.29,0.17,0.56,0.44,0.68c0.37,0.18,0.78,0.27,1.19,0.25
		c0.5-0.01,1-0.06,1.5-0.14c1.02-0.16,2.04-0.26,3.07-0.29c0.81-0.04,1.61,0.13,2.33,0.5c0.44,0.26,0.8,0.63,1.05,1.07
		c0.26,0.45,0.39,0.95,0.38,1.47c-0.02,0.91-0.35,1.79-0.94,2.48c-0.86,1.03-2.01,1.76-3.3,2.11c-1.27,0.38-2.6,0.56-3.93,0.53
		c-1.55,0.06-3.09-0.24-4.52-0.86c-0.51-0.25-0.96-0.61-1.3-1.07c-0.31-0.39-0.48-0.87-0.49-1.37c0-0.32,0.09-0.64,0.27-0.91
		c0.17-0.26,0.41-0.47,0.7-0.6c0.25-0.1,0.37-0.21,0.37-0.33s-0.1-0.23-0.32-0.41c-0.59-0.4-0.96-1.05-1.02-1.76
		c0.02-0.46,0.2-0.91,0.5-1.26c0.32-0.43,0.73-0.77,1.21-1.01c0.2-0.1,0.3-0.2,0.3-0.3c0-0.11-0.12-0.29-0.38-0.53
		c-0.83-0.7-1.31-1.74-1.31-2.82c0-0.58,0.17-1.14,0.47-1.63c0.33-0.53,0.77-0.98,1.29-1.32c1.34-0.88,2.91-1.34,4.52-1.33
		c0.76,0.01,1.52,0.1,2.26,0.26c0.52,0.12,1.06,0.19,1.59,0.23c1.02-0.05,2-0.44,2.76-1.13C273.83,76.64,273.97,76.58,274.13,76.56z
		 M264.46,90.74c-0.2,0-0.32,0.12-0.32,0.37c0.01,0.52,0.31,0.99,0.78,1.22c0.65,0.33,1.38,0.49,2.11,0.46
		c0.67,0.03,1.33-0.09,1.95-0.34c0.4-0.13,0.68-0.5,0.7-0.93c0-0.21-0.1-0.41-0.27-0.54c-0.18-0.15-0.42-0.23-0.65-0.21
		c-0.2-0.01-0.39-0.01-0.59,0c-0.52,0.08-1.05,0.12-1.58,0.11c-0.44,0-0.85,0-1.25,0l-0.72-0.1L264.46,90.74z M267.24,79.19
		c-0.4-0.01-0.78,0.17-1.03,0.49c-0.27,0.37-0.41,0.82-0.38,1.28c-0.04,0.78,0.1,1.55,0.42,2.26c0.22,0.64,0.93,0.98,1.57,0.76
		c0.24-0.08,0.45-0.24,0.6-0.45c0.28-0.4,0.42-0.89,0.4-1.38c0.04-0.73-0.11-1.45-0.42-2.11C268.21,79.54,267.76,79.21,267.24,79.19
		z"/>
	<path class="st0" d="M280.74,77.25c0.7,0.03,1.39,0.12,2.07,0.27c0.16,0.01,0.32,0.01,0.49,0c0.29-0.04,0.57-0.12,0.84-0.23
		c0.16-0.07,0.33-0.11,0.5-0.11c0.47,0.07,0.88,0.34,1.13,0.75c0.33,0.4,0.59,0.84,0.79,1.31c0.18,0.39,0.29,0.8,0.3,1.23
		c0.01,0.32-0.12,0.63-0.35,0.85c-0.24,0.23-0.56,0.35-0.89,0.34c-0.28,0-0.55-0.08-0.79-0.23c-0.41-0.28-0.79-0.59-1.13-0.95
		c-0.34-0.41-0.82-0.69-1.34-0.79c-0.48,0.01-0.87,0.4-0.88,0.88c0,0.42,0.4,0.8,1.2,1.13c1.21,0.5,2.33,1.22,3.29,2.11
		c0.64,0.62,0.99,1.47,0.97,2.36c0.04,1.18-0.52,2.31-1.48,3c-0.94,0.7-2.1,1.07-3.27,1.03c-0.6-0.02-1.2-0.07-1.8-0.16l-1.39-0.15
		c-0.13-0.01-0.26-0.01-0.38,0c-0.18,0.01-0.35,0.01-0.53,0c-0.34,0.02-0.67-0.09-0.94-0.3c-0.42-0.42-0.75-0.92-0.97-1.48
		c-0.26-0.54-0.41-1.13-0.44-1.73c0-0.78,0.3-1.13,0.91-1.13c0.24,0,0.47,0.09,0.65,0.24c0.2,0.16,0.61,0.58,1.25,1.25
		c0.25,0.29,0.54,0.55,0.86,0.77c0.22,0.14,0.47,0.21,0.73,0.21c0.25,0.01,0.49-0.07,0.68-0.23c0.17-0.15,0.26-0.36,0.26-0.59
		c0-0.38-0.33-0.73-0.98-1.05c-1.11-0.49-2.12-1.19-2.96-2.07c-0.59-0.68-0.91-1.56-0.9-2.46c-0.02-0.95,0.31-1.88,0.93-2.61
		C278.06,77.72,279.38,77.17,280.74,77.25z"/>
	<path class="st2" d="M176.2,93.82c1.39-0.01,2.77,0.2,4.09,0.62c0.36,0.14,0.74,0.23,1.13,0.27c0.48-0.06,0.94-0.19,1.39-0.37
		c0.23-0.08,0.47-0.11,0.71-0.11c0.74,0.07,1.4,0.49,1.77,1.13c0.88,1.08,1.35,2.43,1.36,3.83c0.02,0.81-0.23,1.61-0.72,2.26
		c-0.46,0.57-1.16,0.89-1.9,0.87c-0.68-0.02-1.34-0.26-1.87-0.69c-0.5-0.49-0.96-1.01-1.38-1.56c-0.96-1.37-2.51-2.21-4.18-2.26
		c-1.31-0.04-2.57,0.54-3.39,1.57c-0.89,1.22-1.33,2.71-1.25,4.22c-0.09,2.42,0.62,4.8,2.01,6.78c0.49,0.66,1.11,1.21,1.82,1.61
		c0.63,0.38,1.35,0.58,2.09,0.6c0.53,0.02,1.05-0.19,1.42-0.56c0.37-0.4,0.57-0.92,0.55-1.47c0.05-0.43-0.13-0.85-0.46-1.13
		c-0.1-0.08-0.22-0.13-0.34-0.16c-0.11,0-0.43,0-0.95,0c-0.44,0.01-0.86-0.15-1.19-0.45c-0.31-0.29-0.48-0.7-0.47-1.13
		c0-0.91,0.61-1.56,1.82-1.95c1.5-0.44,3.05-0.65,4.61-0.62c1.59-0.04,3.17,0.16,4.7,0.58c1.2,0.37,1.8,1.05,1.8,2.03
		c0.01,0.39-0.14,0.76-0.42,1.03c-0.28,0.3-0.66,0.49-1.07,0.52c-0.27,0.01-0.53,0.1-0.75,0.26c-0.18,0.25-0.3,0.54-0.36,0.85
		c-0.45,1.71-1.42,3.25-2.77,4.39c-1,0.84-2.15,1.48-3.39,1.89c-1.36,0.46-2.79,0.68-4.22,0.68c-2.32,0.02-4.6-0.55-6.63-1.67
		c-2.02-1.07-3.67-2.73-4.73-4.75c-0.9-1.69-1.37-3.58-1.36-5.5c0.01-2,0.57-3.95,1.63-5.65c1.13-1.94,2.8-3.51,4.8-4.52
		C171.99,94.29,174.08,93.8,176.2,93.82z"/>
	<path class="st2" d="M199.76,100.37c1.74-0.06,3.44,0.45,4.87,1.45c0.65,0.44,1.16,1.06,1.48,1.77c0.32,0.88,0.46,1.82,0.42,2.76
		v2.46c-0.08,1.12,0.05,2.25,0.37,3.32c0.07,0.18,0.19,0.34,0.34,0.46c0.22,0.1,0.46,0.16,0.7,0.18c0.33,0.04,0.57,0.34,0.53,0.68
		c0,0,0,0.01,0,0.01c-0.03,0.61-0.25,1.19-0.64,1.66c-0.44,0.59-1,1.07-1.64,1.43c-0.78,0.47-1.68,0.72-2.6,0.72
		c-1.04,0.07-2.05-0.35-2.74-1.13c-0.14-0.23-0.37-0.39-0.64-0.43c-0.32,0.05-0.63,0.19-0.87,0.41c-1.09,0.8-2.4,1.22-3.75,1.21
		c-1.23,0.06-2.46-0.26-3.5-0.93c-0.59-0.41-1.07-0.95-1.39-1.59c-0.33-0.63-0.51-1.34-0.51-2.06c-0.02-1.18,0.47-2.3,1.34-3.09
		c1.44-1.39,3.59-2.09,6.47-2.1c0.41,0.05,0.83-0.02,1.21-0.19c0.16-0.12,0.24-0.41,0.24-0.88c0.05-0.86-0.07-1.72-0.36-2.53
		c-0.17-0.47-0.62-0.79-1.13-0.79c-0.32,0-0.63,0.1-0.88,0.29c-0.37,0.33-0.7,0.71-0.97,1.13c-0.98,1.4-2,2.1-3.07,2.1
		c-0.49,0.02-0.96-0.15-1.32-0.49c-0.34-0.33-0.53-0.78-0.51-1.25c0.02-0.58,0.25-1.14,0.63-1.58c0.48-0.57,1.07-1.04,1.73-1.39
		C195.46,100.94,197.59,100.39,199.76,100.37z M198.63,109.93c-0.49,0-0.95,0.22-1.26,0.6c-0.64,0.77-0.71,1.86-0.16,2.7
		c0.23,0.32,0.61,0.5,1.01,0.49c0.88,0,1.32-0.75,1.32-2.26c0.04-0.42-0.03-0.84-0.19-1.22c-0.16-0.21-0.42-0.33-0.69-0.3H198.63z"
		/>
	<path class="st2" d="M217.22,100.46c0.58,0,0.94,0.08,1.06,0.25c0.21,0.5,0.32,1.04,0.34,1.58c0,0.49,0.23,0.72,0.51,0.72
		c0.28,0,0.43-0.16,0.63-0.47c0.69-1.27,2-2.06,3.44-2.08c0.92-0.03,1.82,0.32,2.46,0.98c0.33,0.35,0.6,0.77,0.77,1.22
		c0.59,1.53,0.18,3.27-1.02,4.39c-0.69,0.66-1.62,1.03-2.59,1.01c-0.49,0.02-0.97-0.09-1.41-0.29c-0.55-0.33-1.06-0.74-1.5-1.21
		c-0.16-0.2-0.39-0.33-0.64-0.35c-0.3,0-0.56,0.22-0.6,0.52c-0.12,0.72-0.16,1.46-0.14,2.19c-0.03,1.13,0.03,2.27,0.18,3.39
		c0.03,0.26,0.14,0.5,0.32,0.69c0.26,0.19,0.56,0.32,0.88,0.38c0.99,0.3,1.49,0.81,1.49,1.56c-0.01,0.42-0.18,0.83-0.47,1.13
		c-0.35,0.35-0.79,0.59-1.28,0.68c-1.54,0.25-3.09,0.36-4.65,0.33c-1.5,0.06-3-0.11-4.45-0.51c-0.9-0.32-1.36-0.85-1.36-1.6
		c0.05-0.65,0.42-1.23,0.99-1.54c0.25-0.15,0.47-0.35,0.65-0.58c0.14-0.21,0.23-0.45,0.25-0.7c0.23-1.85,0.32-3.71,0.27-5.57
		c0.02-0.36-0.03-0.72-0.17-1.06c-0.14-0.25-0.38-0.44-0.65-0.52c-0.79-0.3-1.13-0.76-1.13-1.34c0.02-0.56,0.33-1.07,0.81-1.36
		c0.84-0.51,1.75-0.89,2.7-1.13C214.32,100.74,215.76,100.5,217.22,100.46z"/>
	<path class="st2" d="M246.55,95.61v15.09c-0.03,0.55,0.01,1.11,0.11,1.65c0.12,0.3,0.33,0.55,0.6,0.71
		c0.31,0.19,0.58,0.44,0.8,0.72c0.14,0.23,0.21,0.49,0.2,0.76c0,0.88-0.88,1.56-2.65,2.02c-1.56,0.4-3.17,0.61-4.79,0.61
		c-0.24,0.03-0.48-0.03-0.69-0.16c-0.14-0.23-0.21-0.49-0.2-0.76c-0.06-0.55-0.26-0.84-0.6-0.84c-0.33,0.07-0.64,0.25-0.87,0.5
		c-1.05,0.89-2.38,1.37-3.75,1.37c-1.72-0.01-3.38-0.69-4.61-1.9c-0.8-0.76-1.46-1.65-1.95-2.63c-1.43-2.65-1.31-5.86,0.3-8.4
		c0.76-1.31,1.88-2.38,3.23-3.07c1.04-0.57,2.2-0.88,3.39-0.89c1.18-0.02,2.35,0.28,3.39,0.86c0.12,0.08,0.25,0.12,0.4,0.14
		c0.35,0,0.53-0.47,0.53-1.42c0.02-0.34-0.08-0.67-0.29-0.94c-0.29-0.27-0.64-0.46-1.03-0.55c-0.69-0.21-1.04-0.6-1.04-1.13
		c0-0.8,0.8-1.43,2.39-1.89c1.84-0.58,3.73-0.95,5.65-1.13C246.08,94.25,246.55,94.7,246.55,95.61z M237.59,103.92
		c-0.74,0.02-1.4,0.46-1.69,1.13c-0.61,1.24-0.91,2.61-0.85,4c-0.08,1.19,0.2,2.37,0.81,3.39c0.35,0.53,0.94,0.84,1.57,0.82
		c0.73-0.03,1.35-0.54,1.52-1.24c0.39-1.3,0.55-2.66,0.49-4.02c0.11-1.16-0.09-2.33-0.58-3.39
		C238.58,104.18,238.1,103.93,237.59,103.92z"/>
	<path class="st2" d="M264.51,109.43h-7.76c-0.35,0-0.52,0.16-0.52,0.45c0.05,0.81,0.47,1.55,1.13,2.02c0.7,0.6,1.59,0.94,2.51,0.95
		c0.6-0.01,1.19-0.11,1.76-0.3c0.57-0.17,1.1-0.42,1.59-0.75c0.25-0.22,0.56-0.36,0.89-0.41c0.35,0.04,0.65,0.23,0.84,0.53
		c0.27,0.31,0.42,0.71,0.42,1.13c-0.11,0.95-0.66,1.78-1.49,2.26c-1.74,1.31-3.87,2-6.05,1.96c-3.21,0.16-6.22-1.56-7.7-4.4
		c-0.64-1.21-0.97-2.56-0.97-3.93c-0.01-1.81,0.58-3.56,1.68-4.99c0.95-1.27,2.23-2.26,3.7-2.86c1.16-0.48,2.4-0.72,3.65-0.71
		c1.93-0.05,3.82,0.58,5.33,1.78c0.72,0.58,1.33,1.3,1.78,2.11c0.49,0.82,0.76,1.75,0.78,2.71c0.03,0.62-0.13,1.23-0.45,1.76
		C265.4,109.16,264.97,109.42,264.51,109.43z M257.18,106.35h1.66c0.71,0,1.06-0.33,1.06-0.97c0.02-0.53-0.16-1.05-0.51-1.46
		c-0.34-0.37-0.84-0.58-1.34-0.56c-0.58-0.01-1.12,0.26-1.46,0.73c-0.31,0.39-0.48,0.87-0.49,1.37c-0.03,0.25,0.06,0.51,0.24,0.69
		C256.59,106.3,256.89,106.38,257.18,106.35z"/>
	<path class="st2" d="M287.22,106.48l0.23,5.8c0,0.34,0.07,0.68,0.21,0.98c0.3,0.43,0.63,0.83,1.01,1.2
		c0.18,0.21,0.27,0.47,0.25,0.75c0,0.73-0.43,1.23-1.3,1.52c-1.53,0.35-3.1,0.5-4.66,0.43c-1.09,0.06-2.18-0.08-3.22-0.4
		c-0.58-0.19-0.98-0.73-0.97-1.34c-0.01-0.17,0.02-0.34,0.1-0.49c0.2-0.27,0.42-0.52,0.65-0.77c0.44-0.46,0.67-2,0.67-4.62
		c0.06-1.15-0.12-2.31-0.53-3.39c-0.59-0.89-1.79-1.13-2.68-0.55c-0.16,0.11-0.31,0.24-0.43,0.39c-0.34,0.81-0.48,1.7-0.42,2.57
		v3.26c-0.02,0.45,0.02,0.9,0.12,1.34c0.23,0.49,0.51,0.96,0.82,1.4c0.12,0.2,0.19,0.44,0.18,0.68c0,0.65-0.45,1.13-1.36,1.43
		c-1.38,0.37-2.8,0.53-4.22,0.46c-3.06,0-4.6-0.63-4.6-1.9c-0.02-0.21,0.04-0.42,0.15-0.6c0.19-0.23,0.42-0.43,0.67-0.59
		c0.25-0.18,0.45-0.43,0.54-0.72c0.12-0.66,0.2-1.32,0.21-1.99c0.08-1.25,0.11-2.57,0.11-3.95c0.03-0.5-0.02-1.01-0.17-1.49
		c-0.26-0.37-0.6-0.66-1.01-0.87c-0.43-0.21-0.7-0.65-0.7-1.13c-0.02-0.45,0.2-0.88,0.58-1.13c0.74-0.45,1.54-0.8,2.37-1.06
		c1.06-0.37,2.08-0.69,3.06-0.95c0.65-0.2,1.33-0.33,2.01-0.4c0.32,0,0.62,0.13,0.84,0.36c0.22,0.23,0.34,0.54,0.34,0.86
		c0,0,0,0.18,0,0.42c0,0.08,0,0.15,0,0.23c0,0.53,0.23,0.8,0.67,0.8c0.26,0,0.54-0.21,0.84-0.63c0.94-1.31,2.49-2.06,4.1-1.96
		c1.28-0.02,2.53,0.38,3.57,1.13c0.64,0.46,1.15,1.1,1.45,1.83C287.03,104.41,287.2,105.44,287.22,106.48z"/>
	<path class="st2" d="M172.77,121.04c1.28,0.06,2.55,0.31,3.77,0.72c0.15,0.05,0.3,0.07,0.45,0.08c0.29-0.05,0.57-0.14,0.84-0.25
		c0.15-0.06,0.31-0.09,0.47-0.09c0.62,0,1.29,0.5,1.98,1.48c0.63,0.81,0.99,1.8,1.04,2.82c0.02,0.48-0.15,0.95-0.46,1.32
		c-0.28,0.34-0.69,0.54-1.13,0.54c-0.32,0.01-0.63-0.07-0.9-0.23c-0.54-0.41-1.06-0.85-1.55-1.32c-0.86-0.93-2.04-1.49-3.3-1.57
		c-0.44-0.02-0.88,0.11-1.24,0.37c-0.31,0.24-0.48,0.61-0.47,0.99c0,0.81,0.71,1.42,2.15,1.83c1.26,0.34,2.49,0.76,3.69,1.25
		c2.39,1.15,3.58,2.85,3.57,5.09c0.03,1.92-0.87,3.74-2.43,4.87c-1.89,1.36-4.18,2.04-6.5,1.93c-1.27-0.01-2.53-0.15-3.77-0.43
		c-1-0.17-1.97-0.51-2.86-1.01c-0.6-0.51-1.02-1.19-1.22-1.94c-0.34-0.94-0.52-1.93-0.53-2.92c-0.03-0.37,0.07-0.74,0.28-1.04
		c0.21-0.28,0.53-0.44,0.88-0.45c0.4,0.02,0.78,0.23,1.02,0.55c0.5,0.63,0.96,1.28,1.38,1.96c0.42,0.58,0.99,1.03,1.65,1.3
		c0.73,0.34,1.52,0.52,2.33,0.52c0.58,0.03,1.16-0.11,1.67-0.38c0.38-0.18,0.63-0.56,0.64-0.98c-0.01-0.38-0.19-0.74-0.5-0.97
		c-0.5-0.35-1.05-0.6-1.64-0.75c-1.04-0.3-2.06-0.68-3.05-1.13c-0.71-0.35-1.36-0.79-1.95-1.31c-1.38-1.07-2.21-2.7-2.26-4.45
		c0-0.83,0.2-1.65,0.58-2.39c0.39-0.78,0.94-1.48,1.63-2.02C168.62,121.7,170.67,120.98,172.77,121.04z"/>
	<path class="st2" d="M196.13,134.25h-6.57c-0.28,0-0.43,0.12-0.43,0.37c0.05,0.69,0.41,1.33,0.98,1.72
		c0.59,0.51,1.34,0.79,2.11,0.8c1.01-0.04,1.99-0.35,2.85-0.89c0.21-0.18,0.47-0.3,0.75-0.34c0.3,0.03,0.57,0.2,0.72,0.45
		c0.22,0.26,0.34,0.58,0.35,0.91c-0.09,0.81-0.56,1.53-1.26,1.94c-1.47,1.12-3.28,1.7-5.13,1.67c-1.79,0.05-3.55-0.55-4.92-1.71
		c-0.65-0.58-1.19-1.27-1.59-2.03c-0.54-1.02-0.82-2.16-0.82-3.32c-0.01-1.53,0.49-3.02,1.43-4.22c0.81-1.07,1.89-1.91,3.13-2.42
		c0.98-0.4,2.03-0.61,3.08-0.6c1.64-0.05,3.24,0.48,4.52,1.5c0.61,0.5,1.13,1.11,1.51,1.8c0.4,0.69,0.63,1.46,0.65,2.26
		c0.02,0.52-0.11,1.04-0.38,1.49C196.91,134,196.54,134.24,196.13,134.25z M189.92,131.63h1.41c0.6,0,0.89-0.27,0.89-0.82
		c0.02-0.45-0.13-0.88-0.43-1.22c-0.59-0.62-1.57-0.65-2.19-0.06c-0.06,0.06-0.12,0.12-0.17,0.19c-0.26,0.32-0.4,0.72-0.42,1.13
		c-0.02,0.22,0.05,0.43,0.2,0.59C189.43,131.58,189.67,131.65,189.92,131.63z"/>
	<path class="st2" d="M205.38,126.67c0.49,0,0.79,0.07,0.89,0.21c0.18,0.43,0.28,0.88,0.29,1.34c0,0.41,0.19,0.61,0.43,0.61
		s0.36-0.14,0.53-0.41c0.59-1.07,1.71-1.74,2.92-1.75c0.78-0.02,1.53,0.27,2.08,0.82c0.28,0.3,0.5,0.66,0.64,1.05
		c0.16,0.39,0.25,0.8,0.25,1.22c-0.01,0.46-0.11,0.92-0.3,1.34c-0.18,0.43-0.45,0.81-0.79,1.13c-0.59,0.57-1.38,0.87-2.2,0.86
		c-0.41,0.01-0.82-0.08-1.19-0.26c-0.47-0.28-0.89-0.62-1.26-1.02c-0.14-0.16-0.34-0.27-0.55-0.29c-0.26,0-0.47,0.19-0.51,0.44
		c-0.1,0.61-0.14,1.23-0.11,1.85c-0.03,0.96,0.02,1.93,0.15,2.88c0.03,0.21,0.13,0.41,0.27,0.58c0.23,0.16,0.49,0.27,0.76,0.33
		c0.84,0.26,1.25,0.69,1.25,1.32c0,0.37-0.14,0.73-0.41,0.99c-0.31,0.3-0.7,0.5-1.13,0.56c-1.3,0.22-2.62,0.32-3.94,0.28
		c-1.27,0.05-2.54-0.1-3.76-0.43c-0.75-0.26-1.13-0.72-1.13-1.36c0.05-0.54,0.38-1.02,0.87-1.26c0.21-0.13,0.4-0.29,0.55-0.49
		c0.11-0.18,0.19-0.39,0.21-0.6c0.19-1.56,0.26-3.14,0.23-4.71c0.02-0.31-0.03-0.62-0.15-0.9c-0.13-0.21-0.32-0.36-0.55-0.44
		c-0.67-0.26-0.99-0.63-0.99-1.13c0.03-0.47,0.28-0.89,0.68-1.13c0.7-0.43,1.46-0.75,2.26-0.96
		C202.87,126.97,204.12,126.73,205.38,126.67z"/>
	<path class="st2" d="M229.6,130.95l-3.61,7.05c-0.39,0.81-0.87,1.57-1.43,2.26c-0.31,0.38-0.76,0.61-1.25,0.63
		c-0.41,0.01-0.8-0.16-1.06-0.47c-0.58-0.66-1.09-1.38-1.5-2.16l-3.96-7.52c-0.15-0.33-0.36-0.63-0.62-0.89
		c-0.24-0.2-0.53-0.34-0.84-0.42c-0.7-0.2-1.06-0.59-1.06-1.13s0.44-0.98,1.32-1.24c1.36-0.31,2.75-0.45,4.14-0.4
		c1.18-0.04,2.35,0.07,3.5,0.34c0.76,0.24,1.13,0.59,1.13,1.06c-0.02,0.38-0.22,0.74-0.53,0.96c-0.16,0.14-0.31,0.29-0.44,0.46
		c-0.06,0.12-0.09,0.26-0.09,0.4c0.09,0.56,0.3,1.1,0.61,1.58c0.41,0.71,0.79,1.13,1.13,1.13c0.22,0,0.43-0.1,0.56-0.27
		c0.31-0.43,0.58-0.89,0.81-1.37c0.24-0.37,0.39-0.79,0.44-1.23c-0.05-0.31-0.21-0.59-0.45-0.79c-0.27-0.24-0.44-0.58-0.47-0.94
		c0-0.45,0.29-0.77,0.88-0.97c0.95-0.23,1.93-0.33,2.91-0.29c1.91,0,2.86,0.42,2.86,1.23c0,0.47-0.34,0.82-1.03,1.04
		c-0.41,0.09-0.8,0.28-1.13,0.54C230.09,129.98,229.82,130.45,229.6,130.95z"/>
	<path class="st2" d="M241.21,127.56v8.12c-0.03,0.48,0.04,0.96,0.18,1.41c0.15,0.34,0.39,0.62,0.7,0.82
		c0.22,0.14,0.42,0.32,0.59,0.52c0.1,0.17,0.15,0.36,0.15,0.55c0,1.21-1.52,1.81-4.52,1.81c-1.31,0.03-2.62-0.1-3.9-0.4
		c-0.31-0.08-0.58-0.25-0.79-0.49c-0.2-0.22-0.31-0.51-0.3-0.8c-0.01-0.2,0.04-0.41,0.16-0.58c0.23-0.26,0.49-0.49,0.78-0.68
		c0.32-0.27,0.54-0.64,0.62-1.05c0.14-0.71,0.2-1.43,0.18-2.16c0-0.32-0.02-0.89-0.07-1.73c0-0.85-0.07-1.33-0.09-1.48
		c-0.07-0.42-0.38-0.76-0.78-0.88c-0.5-0.15-0.86-0.6-0.87-1.13c0-0.59,0.37-1.03,1.13-1.31c1.1-0.42,2.24-0.76,3.39-1.02
		c0.9-0.24,1.83-0.39,2.77-0.43C240.92,126.68,241.21,126.98,241.21,127.56z M238.44,121.44c0.67-0.03,1.34,0.13,1.93,0.45
		c0.44,0.25,0.72,0.72,0.71,1.23c-0.01,0.72-0.42,1.38-1.07,1.71c-1.26,0.69-2.69,1.03-4.12,0.98c-0.57,0.03-1.13-0.1-1.63-0.38
		c-0.51-0.28-0.82-0.82-0.8-1.4c0-0.8,0.56-1.43,1.72-1.89c1.02-0.44,2.11-0.68,3.22-0.71L238.44,121.44z"/>
	<path class="st2" d="M252.02,126.59c1.56-0.03,3.09,0.4,4.39,1.24c1.08,0.59,1.77,1.71,1.81,2.95c0.03,0.75-0.28,1.47-0.85,1.96
		c-0.51,0.48-1.19,0.74-1.89,0.72c-0.69,0.04-1.35-0.28-1.74-0.85c-0.23-0.43-0.41-0.88-0.53-1.36c-0.16-0.67-0.76-1.14-1.45-1.13
		c-0.51,0-0.99,0.26-1.29,0.68c-0.36,0.47-0.55,1.05-0.53,1.65c0,1.11,0.43,2.18,1.21,2.97c0.63,0.69,1.53,1.07,2.46,1.05
		c0.38,0,0.76-0.03,1.13-0.11c0.43-0.13,0.84-0.29,1.24-0.49c0.13-0.07,0.28-0.1,0.43-0.1c0.34,0.01,0.65,0.18,0.84,0.45
		c0.24,0.29,0.37,0.67,0.36,1.05c-0.02,0.48-0.2,0.95-0.51,1.32c-0.38,0.48-0.84,0.89-1.36,1.21c-1.3,0.77-2.78,1.16-4.29,1.13
		c-1.79,0.04-3.53-0.55-4.91-1.68c-2.98-2.38-3.47-6.72-1.09-9.7c0.27-0.34,0.58-0.66,0.91-0.94
		C247.93,127.27,249.95,126.54,252.02,126.59z"/>
	<path class="st2" d="M272.49,134.25h-6.57c-0.28,0-0.43,0.12-0.43,0.37c0.05,0.69,0.41,1.33,0.98,1.72c0.59,0.5,1.34,0.79,2.12,0.8
		c0.51-0.01,1.01-0.1,1.49-0.26c0.48-0.14,0.93-0.35,1.34-0.63c0.21-0.18,0.48-0.3,0.76-0.34c0.29,0.03,0.56,0.2,0.71,0.45
		c0.22,0.25,0.34,0.58,0.35,0.91c-0.08,0.81-0.55,1.54-1.26,1.94c-1.47,1.12-3.28,1.7-5.13,1.67c-1.79,0.05-3.54-0.55-4.91-1.71
		c-1.53-1.36-2.41-3.31-2.42-5.35c-0.02-1.53,0.49-3.02,1.42-4.22c0.81-1.07,1.89-1.91,3.13-2.42c0.98-0.41,2.03-0.61,3.09-0.6
		c1.64-0.05,3.24,0.48,4.52,1.5c0.62,0.49,1.13,1.1,1.51,1.8c0.41,0.68,0.63,1.46,0.65,2.26c0.02,0.52-0.11,1.04-0.37,1.49
		C273.29,134.01,272.91,134.25,272.49,134.25z M266.29,131.63h1.41c0.59,0,0.89-0.27,0.89-0.82c0.02-0.45-0.14-0.89-0.44-1.22
		c-0.59-0.62-1.57-0.65-2.19-0.06c-0.06,0.06-0.12,0.12-0.17,0.19c-0.25,0.32-0.4,0.72-0.42,1.13c-0.02,0.22,0.05,0.43,0.2,0.59
		C265.79,131.58,266.04,131.65,266.29,131.63L266.29,131.63z"/>
	<path class="st2" d="M280.8,126.59c0.76,0.04,1.52,0.14,2.26,0.3c0.18,0.01,0.35,0.01,0.53,0c0.31-0.04,0.62-0.13,0.91-0.25
		c0.17-0.08,0.36-0.12,0.55-0.12c0.54,0.06,1.01,0.37,1.3,0.82c0.35,0.44,0.65,0.92,0.87,1.43c0.19,0.43,0.31,0.89,0.33,1.36
		c0.01,0.35-0.13,0.69-0.38,0.93c-0.27,0.25-0.62,0.38-0.98,0.37c-0.31,0.01-0.61-0.08-0.87-0.24c-0.45-0.31-0.86-0.66-1.24-1.05
		c-0.37-0.46-0.9-0.76-1.48-0.86c-0.53,0-0.96,0.43-0.96,0.96c0,0,0,0,0,0c0,0.45,0.43,0.88,1.31,1.29
		c1.33,0.55,2.56,1.33,3.61,2.31c0.7,0.68,1.08,1.62,1.06,2.6c0,1.3-0.63,2.51-1.71,3.24c-1.03,0.78-2.3,1.17-3.59,1.13
		c-0.36,0-1.02-0.07-1.98-0.18c-0.96-0.11-1.41-0.16-1.52-0.16c-0.14-0.01-0.28-0.01-0.42,0h-0.59c-0.38,0.02-0.75-0.1-1.04-0.34
		c-0.89-0.97-1.44-2.22-1.55-3.53c0-0.86,0.33-1.29,1.01-1.29c0.26,0,0.52,0.09,0.72,0.26c0.48,0.43,0.94,0.89,1.38,1.38
		c0.28,0.32,0.6,0.61,0.95,0.85c0.24,0.15,0.52,0.22,0.8,0.23c0.27,0.02,0.54-0.07,0.75-0.25c0.19-0.16,0.29-0.4,0.28-0.64
		c0-0.41-0.38-0.79-1.13-1.13c-1.22-0.53-2.32-1.3-3.24-2.26c-0.65-0.75-1.01-1.71-1.01-2.71c-0.03-1.05,0.34-2.07,1.03-2.87
		C277.8,127.05,279.29,126.46,280.8,126.59z"/>
</g>
</svg>
