<?xml version="1.0" encoding="utf-8"?>
<!-- Generator: Adobe Illustrator 23.0.3, SVG Export Plug-In . SVG Version: 6.00 Build 0)  -->
<svg version="1.1" id="Layer_1" xmlns="http://www.w3.org/2000/svg" xmlns:xlink="http://www.w3.org/1999/xlink" x="0px" y="0px"
	 viewBox="0 0 690.7 90.4" style="enable-background:new 0 0 690.7 90.4;" xml:space="preserve">
<style type="text/css">
	.st0{fill:none;stroke:#000000;stroke-miterlimit:10;width:100%}
</style>
<path class="st0" d="M34.6,35.9H23.2v14c0,1.1,0.1,2.2,0.2,3.1c0.1,0.9,0.4,1.8,0.8,2.5s1,1.2,1.9,1.6c0.8,0.4,1.9,0.6,3.3,0.6
	c0.7,0,1.6-0.1,2.7-0.2c1.1-0.1,2-0.5,2.6-1v10.8c-1.4,0.5-2.9,0.9-4.5,1c-1.6,0.2-3.1,0.3-4.6,0.3c-2.2,0-4.2-0.2-6-0.7
	c-1.8-0.5-3.4-1.2-4.8-2.2c-1.4-1-2.5-2.3-3.2-3.9c-0.8-1.6-1.2-3.6-1.2-5.9V35.9H2V25.6h8.3V13.1h12.9v12.4h11.4L34.6,35.9
	L34.6,35.9z M39.6,46.5c0-3.3,0.6-6.4,1.8-9.1c1.2-2.7,2.9-5,5-6.9s4.6-3.4,7.4-4.4c2.9-1,5.9-1.6,9.1-1.6S69.1,25,72,26
	c2.9,1,5.3,2.5,7.4,4.4c2.1,1.9,3.8,4.2,5,6.9c1.2,2.7,1.8,5.7,1.8,9.1s-0.6,6.4-1.8,9.1c-1.2,2.7-2.9,5-5,6.9
	c-2.1,1.9-4.6,3.4-7.4,4.4c-2.9,1-5.9,1.6-9.1,1.6s-6.3-0.5-9.1-1.6c-2.9-1-5.3-2.5-7.4-4.4c-2.1-1.9-3.8-4.2-5-6.9
	C40.2,52.9,39.6,49.8,39.6,46.5z M52.6,46.5c0,3.2,0.9,5.7,2.7,7.7c1.8,2,4.4,2.9,7.6,2.9s5.8-1,7.6-2.9c1.8-2,2.7-4.5,2.7-7.7
	c0-3.2-0.9-5.7-2.7-7.7c-1.8-2-4.4-2.9-7.6-2.9s-5.8,1-7.6,2.9C53.5,40.8,52.6,43.3,52.6,46.5z M93.8,25.5h12.4v5.7h0.2
	c0.4-0.8,1-1.6,1.7-2.4c0.8-0.8,1.6-1.5,2.7-2.2s2.2-1.1,3.5-1.6c1.3-0.4,2.8-0.6,4.3-0.6c2.9,0,5.5,0.6,7.8,1.8
	c2.3,1.2,4,3.1,5.1,5.7c1.5-2.7,3.3-4.6,5.4-5.8s4.8-1.7,7.9-1.7c2.8,0,5.2,0.5,7.1,1.4c1.9,0.9,3.4,2.2,4.6,3.9
	c1.1,1.6,1.9,3.6,2.4,5.8c0.5,2.2,0.7,4.6,0.7,7.1v24.8h-12.9V43c0-2-0.4-3.6-1.2-5.1c-0.8-1.4-2.3-2.1-4.4-2.1
	c-1.5,0-2.8,0.2-3.8,0.7c-1,0.5-1.8,1.2-2.4,2c-0.6,0.9-1,1.9-1.3,3c-0.3,1.1-0.4,2.4-0.4,3.6v22.2h-12.9V45.3c0-0.8,0-1.7-0.1-2.8
	c-0.1-1.1-0.3-2.1-0.6-3.1c-0.4-1-0.9-1.8-1.7-2.5c-0.8-0.7-1.9-1-3.4-1c-1.7,0-3,0.3-4.1,0.9c-1,0.6-1.8,1.4-2.4,2.4
	c-0.6,1-0.9,2.1-1.1,3.4c-0.2,1.3-0.3,2.6-0.3,4v20.9H93.8V25.5z M170.1,25.5H182V31h0.2c0.5-0.8,1.2-1.5,2-2.3
	c0.8-0.8,1.8-1.5,2.9-2.1c1.1-0.6,2.4-1.1,3.7-1.6c1.3-0.4,2.7-0.6,4.2-0.6c3.1,0,5.9,0.5,8.5,1.6c2.5,1.1,4.7,2.6,6.5,4.5
	s3.2,4.2,4.2,6.9c1,2.6,1.5,5.6,1.5,8.7c0,2.9-0.5,5.7-1.3,8.4s-2.2,5.1-3.8,7.1c-1.6,2.1-3.6,3.7-6,5c-2.4,1.2-5,1.9-8,1.9
	c-2.7,0-5.2-0.4-7.5-1.2c-2.3-0.8-4.2-2.3-5.7-4.3H183v24.2h-12.9L170.1,25.5L170.1,25.5z M182,46.5c0,3.2,0.9,5.7,2.7,7.7
	c1.8,2,4.4,2.9,7.6,2.9s5.8-1,7.6-2.9c1.8-2,2.7-4.5,2.7-7.7c0-3.2-0.9-5.7-2.7-7.7c-1.8-2-4.4-2.9-7.6-2.9s-5.8,1-7.6,2.9
	S182,43.3,182,46.5z M249.5,62.2h-0.2c-1.4,2.2-3.4,3.9-5.7,4.8c-2.4,1-4.9,1.5-7.5,1.5c-2,0-3.8-0.3-5.6-0.8
	c-1.8-0.5-3.4-1.4-4.8-2.5c-1.4-1.1-2.5-2.4-3.3-4.1c-0.8-1.6-1.2-3.5-1.2-5.6c0-2.4,0.4-4.5,1.3-6.1c0.9-1.7,2.1-3.1,3.6-4.1
	s3.3-1.9,5.2-2.6c2-0.6,4-1.1,6.1-1.3s4.2-0.5,6.3-0.5c2.1-0.1,4-0.1,5.8-0.1c0-2.3-0.8-4.1-2.5-5.5c-1.6-1.4-3.6-2-5.8-2
	c-2.1,0-4.1,0.4-5.8,1.3c-1.8,0.9-3.3,2.1-4.7,3.7l-6.9-7.1c2.4-2.2,5.2-3.9,8.5-5.1c3.2-1.1,6.6-1.7,10-1.7c3.8,0,6.9,0.5,9.4,1.4
	c2.5,0.9,4.4,2.3,5.9,4.2c1.5,1.8,2.5,4.1,3.1,6.8c0.6,2.7,0.9,5.8,0.9,9.3v21.3h-11.9L249.5,62.2L249.5,62.2z M246.4,49.1
	c-1,0-2.2,0.1-3.7,0.1c-1.5,0.1-2.9,0.3-4.2,0.7s-2.5,1-3.5,1.8c-1,0.8-1.4,1.9-1.4,3.4c0,1.6,0.7,2.7,2,3.4s2.7,1.1,4.1,1.1
	c1.3,0,2.5-0.2,3.7-0.5c1.2-0.4,2.2-0.8,3.1-1.5c0.9-0.6,1.6-1.4,2.2-2.4c0.5-1,0.8-2.1,0.8-3.4v-2.8L246.4,49.1L246.4,49.1z
	 M269.6,25.5h12.9v6.7h0.2c1.4-2.6,3-4.5,4.9-5.8c1.9-1.3,4.3-1.9,7.2-1.9c0.7,0,1.5,0,2.2,0.1s1.4,0.2,2.1,0.3v11.8
	c-0.9-0.3-1.8-0.5-2.7-0.6c-0.9-0.1-1.8-0.2-2.8-0.2c-2.5,0-4.4,0.3-5.9,1c-1.4,0.7-2.5,1.6-3.3,2.9c-0.8,1.2-1.3,2.7-1.5,4.4
	c-0.2,1.7-0.3,3.6-0.3,5.7v17.5h-12.9L269.6,25.5L269.6,25.5z M304.7,2.2h12.9v39.9l14.3-16.6h15.9l-16.7,18.9l17.1,23h-16.3
	l-14.1-21.2h-0.2v21.2h-12.9L304.7,2.2L304.7,2.2z M392.3,60.2c-2.1,2.6-4.7,4.7-7.9,6.1s-6.4,2.2-9.8,2.2c-3.2,0-6.2-0.5-9.1-1.6
	c-2.9-1-5.3-2.5-7.4-4.4c-2.1-1.9-3.8-4.2-5-6.9s-1.8-5.7-1.8-9.1c0-3.3,0.6-6.4,1.8-9.1c1.2-2.7,2.9-5,5-6.9s4.6-3.4,7.4-4.4
	c2.9-1,5.9-1.6,9.1-1.6c3,0,5.7,0.5,8.2,1.6c2.4,1,4.5,2.5,6.2,4.4c1.7,1.9,3,4.2,3.9,6.9c0.9,2.7,1.4,5.7,1.4,9.1v4.1h-30
	c0.5,2.5,1.6,4.4,3.4,5.9c1.7,1.5,3.9,2.2,6.4,2.2c2.1,0,3.9-0.5,5.4-1.4c1.5-0.9,2.8-2.2,3.8-3.7L392.3,60.2z M381.4,41.7
	c0.1-2.2-0.7-4.1-2.2-5.6s-3.4-2.3-5.8-2.3c-1.4,0-2.7,0.2-3.8,0.7c-1.1,0.5-2,1.1-2.8,1.8s-1.4,1.6-1.8,2.5s-0.7,1.9-0.7,3H381.4z
	 M402.4,60c0-1.1,0.2-2.1,0.6-3.1c0.4-1,1-1.8,1.7-2.6c0.7-0.7,1.6-1.3,2.5-1.7c1-0.4,2-0.6,3.1-0.6s2.1,0.2,3.1,0.6
	c1,0.4,1.8,1,2.5,1.7s1.3,1.6,1.7,2.6s0.6,2,0.6,3.1c0,1.1-0.2,2.1-0.6,3.1c-0.4,1-1,1.8-1.7,2.6s-1.6,1.3-2.5,1.7
	c-1,0.4-2,0.6-3.1,0.6s-2.1-0.2-3.1-0.6c-1-0.4-1.8-1-2.5-1.7c-0.7-0.7-1.3-1.6-1.7-2.6C402.6,62.2,402.4,61.1,402.4,60z
	 M471.7,67.5h-11.9v-5.5h-0.2c-0.5,0.8-1.2,1.5-2,2.3c-0.8,0.8-1.8,1.5-2.9,2.1c-1.1,0.6-2.4,1.1-3.7,1.6c-1.3,0.4-2.8,0.6-4.2,0.6
	c-3.1,0-5.9-0.5-8.5-1.6c-2.5-1.1-4.7-2.6-6.5-4.5c-1.8-1.9-3.2-4.2-4.2-6.9s-1.5-5.6-1.5-8.7c0-2.9,0.5-5.7,1.3-8.4
	c0.9-2.7,2.2-5.1,3.8-7.1c1.6-2.1,3.6-3.7,6-5c2.4-1.2,5-1.9,8-1.9c2.7,0,5.2,0.4,7.5,1.2s4.2,2.3,5.7,4.3h0.2V2.2h12.9L471.7,67.5
	L471.7,67.5z M459.8,46.5c0-3.2-0.9-5.7-2.7-7.7c-1.8-2-4.4-2.9-7.6-2.9s-5.8,1-7.6,2.9s-2.7,4.5-2.7,7.7c0,3.2,0.9,5.7,2.7,7.7
	c1.8,2,4.4,2.9,7.6,2.9s5.8-1,7.6-2.9C458.9,52.2,459.8,49.7,459.8,46.5z M521.8,60.2c-2.1,2.6-4.7,4.7-7.8,6.1s-6.4,2.2-9.8,2.2
	c-3.2,0-6.2-0.5-9.1-1.6c-2.8-1-5.3-2.5-7.4-4.4c-2.1-1.9-3.8-4.2-5-6.9s-1.8-5.7-1.8-9.1c0-3.3,0.6-6.4,1.8-9.1
	c1.2-2.7,2.9-5,5-6.9c2.1-1.9,4.6-3.4,7.4-4.4c2.8-1,5.9-1.6,9.1-1.6c3,0,5.7,0.5,8.2,1.6c2.4,1,4.5,2.5,6.2,4.4
	c1.7,1.9,3,4.2,3.9,6.9c0.9,2.7,1.4,5.7,1.4,9.1v4.1h-30c0.5,2.5,1.6,4.4,3.4,5.9c1.7,1.5,3.8,2.2,6.4,2.2c2.1,0,3.9-0.5,5.4-1.4
	c1.5-0.9,2.8-2.2,3.8-3.7L521.8,60.2z M510.8,41.7c0.1-2.2-0.7-4.1-2.2-5.6s-3.4-2.3-5.8-2.3c-1.4,0-2.7,0.2-3.8,0.7
	c-1.1,0.5-2,1.1-2.8,1.8s-1.4,1.6-1.8,2.5s-0.7,1.9-0.7,3H510.8z M555.3,37.9c-1.9-2.4-4.4-3.5-7.5-3.5c-1.1,0-2.2,0.3-3.2,0.8
	c-1,0.5-1.6,1.4-1.6,2.7c0,1,0.5,1.8,1.6,2.3c1.1,0.5,2.4,0.9,4.1,1.3s3.4,0.8,5.3,1.2c1.9,0.4,3.6,1.1,5.3,2s3,2.2,4.1,3.8
	c1.1,1.6,1.6,3.7,1.6,6.3c0,2.7-0.6,4.9-1.8,6.7c-1.2,1.8-2.7,3.2-4.5,4.2s-3.9,1.8-6.2,2.2c-2.3,0.4-4.6,0.6-6.8,0.6
	c-2.9,0-5.9-0.4-8.9-1.2c-3-0.8-5.5-2.3-7.6-4.4l7.8-8.7c1.2,1.5,2.5,2.6,4,3.4c1.5,0.8,3.2,1.2,5.1,1.2c1.5,0,2.8-0.2,4.1-0.6
	c1.2-0.4,1.8-1.2,1.8-2.4c0-1.1-0.5-1.9-1.6-2.5c-1.1-0.6-2.4-1-4.1-1.4c-1.6-0.4-3.4-0.8-5.3-1.2c-1.9-0.4-3.6-1.1-5.3-1.9
	s-3-2.1-4.1-3.7c-1.1-1.6-1.6-3.7-1.6-6.3c0-2.5,0.5-4.6,1.5-6.4c1-1.8,2.3-3.2,4-4.4c1.6-1.1,3.5-2,5.7-2.6
	c2.1-0.6,4.3-0.8,6.5-0.8c2.8,0,5.5,0.4,8.4,1.2c2.8,0.8,5.2,2.2,7.2,4.3L555.3,37.9z M570.7,12.3c0-2.1,0.7-3.8,2.2-5.3
	c1.5-1.5,3.2-2.2,5.3-2.2s3.8,0.7,5.3,2.2c1.5,1.5,2.2,3.2,2.2,5.3s-0.7,3.8-2.2,5.3c-1.5,1.5-3.2,2.2-5.3,2.2s-3.8-0.7-5.3-2.2
	C571.4,16.2,570.7,14.4,570.7,12.3z M571.7,25.5h12.9v41.9h-12.9V25.5z M638,63.9c0,7.9-2,14-6,18.1c-4,4.1-10.1,6.2-18.2,6.2
	c-3.7,0-7.4-0.4-11-1.2c-3.6-0.8-7-2.5-10-4.9l7.2-10.7c2,1.7,4.1,3,6.3,4c2.2,1,4.7,1.5,7.3,1.5c4,0,6.9-1,8.8-2.9s2.8-4.4,2.8-7.4
	v-4.1h-0.2c-1.5,2-3.3,3.4-5.6,4.3c-2.2,0.8-4.3,1.2-6.3,1.2c-3.1,0-5.9-0.5-8.5-1.6s-4.7-2.6-6.5-4.5c-1.8-1.9-3.2-4.2-4.2-6.9
	c-1-2.6-1.5-5.6-1.5-8.7c0-2.8,0.5-5.5,1.3-8.1s2.2-5,3.8-7c1.6-2,3.6-3.6,6-4.9c2.4-1.2,5-1.9,8-1.9c1.8,0,3.5,0.2,5,0.6
	c1.5,0.4,2.9,0.9,4.1,1.6c1.2,0.6,2.2,1.3,3.1,2.1c0.9,0.8,1.5,1.5,2.1,2.3h0.2v-5.5H638L638,63.9L638,63.9z M605.4,46.2
	c0,1.4,0.3,2.7,0.8,3.9c0.5,1.2,1.2,2.3,2.2,3.3s2,1.7,3.3,2.3c1.2,0.6,2.6,0.9,4.1,0.9c1.4,0,2.8-0.3,4.1-0.9
	c1.3-0.6,2.4-1.3,3.3-2.3s1.7-2,2.2-3.3s0.8-2.6,0.8-3.9c0-1.4-0.3-2.7-0.8-3.9c-0.5-1.2-1.2-2.3-2.2-3.3s-2.1-1.7-3.3-2.3
	c-1.3-0.6-2.6-0.9-4.1-0.9c-1.5,0-2.9,0.3-4.1,0.9c-1.2,0.6-2.3,1.3-3.3,2.3s-1.7,2-2.2,3.3C605.6,43.5,605.4,44.9,605.4,46.2z
	 M648.4,25.5h12.4v5.7h0.2c0.4-0.8,1-1.6,1.7-2.4c0.8-0.8,1.6-1.5,2.7-2.2s2.2-1.1,3.5-1.6c1.3-0.4,2.8-0.6,4.3-0.6
	c3.3,0,5.9,0.5,7.9,1.5c2,1,3.6,2.4,4.7,4.2s1.9,3.9,2.3,6.3c0.4,2.4,0.6,5,0.6,7.9v23.1h-12.9V46.9c0-1.2,0-2.5-0.1-3.8
	c-0.1-1.3-0.3-2.5-0.8-3.6c-0.4-1.1-1.1-2-2-2.7s-2.2-1-3.8-1c-1.7,0-3,0.3-4.1,0.9c-1,0.6-1.8,1.4-2.4,2.4c-0.5,1-0.9,2.1-1.1,3.4
	c-0.2,1.3-0.3,2.6-0.3,4v20.9h-12.9L648.4,25.5L648.4,25.5z"/>
</svg>
